<svg xmlns="http://www.w3.org/2000/svg" xmlns:xlink="http://www.w3.org/1999/xlink" viewBox="0 0 264.59 194.22"><defs><style>.cls-1{mask:url(#mask);filter:url(#luminosity-noclip-4);}.cls-2,.cls-4,.cls-6{mix-blend-mode:multiply;}.cls-2{fill:url(#linear-gradient);}.cls-3{mask:url(#mask-2);filter:url(#luminosity-noclip-5);}.cls-4{fill:url(#linear-gradient-2);}.cls-5{mask:url(#mask-3);filter:url(#luminosity-noclip-6);}.cls-6{fill:url(#linear-gradient-3);}.cls-7{fill:#00a99d;opacity:0.21;}.cls-8{fill:#f7931e;opacity:0.59;}.cls-9{fill:url(#radial-gradient);}.cls-10{fill:#fae182;}.cls-11{fill:#fff;}.cls-12{fill:url(#radial-gradient-2);}.cls-13{mask:url(#mask-4);}.cls-14{fill:url(#linear-gradient-4);}.cls-15{mask:url(#mask-5);}.cls-16{fill:url(#linear-gradient-5);}.cls-17{mask:url(#mask-6);}.cls-18{fill:url(#linear-gradient-6);}.cls-19{fill:url(#linear-gradient-7);}.cls-20{fill:#f7d084;}.cls-21{fill:#323755;}.cls-22{fill:#25283e;}.cls-23{fill:#292d45;}.cls-24{fill:#c0b3af;}.cls-25{fill:#d9544e;}.cls-26{fill:#6b81e3;}.cls-27{fill:#4d67d7;}.cls-28{fill:#4b63c7;}.cls-29{fill:#e9dad3;}.cls-30{fill:#daccc6;}.cls-31{fill:#dfd0ca;}.cls-32{fill:#ad9696;}.cls-33{fill:#d5b8b8;}.cls-34{fill:#ebcbcb;}.cls-35{fill:#323438;}.cls-36{fill:#e4ab8c;}.cls-37{fill:#c8c6cf;}.cls-38{fill:#1d2032;}.cls-39{fill:#e3aa8b;}.cls-40{fill:#cc8c5b;}.cls-41{fill:#be8e75;}.cls-42{fill:#9f9da4;}.cls-43{fill:#e8e5f0;}.cls-44{fill:#3b4163;}.cls-45{fill:url(#linear-gradient-8);}.cls-46{fill:url(#linear-gradient-9);}.cls-47{fill:#6f6865;}.cls-48{fill:#baaeaa;}.cls-49{fill:#bcdcfb;}.cls-50{fill:#e3a98a;}.cls-51{fill:#d19d80;}.cls-52{fill:#f9dd93;}.cls-53{fill:#63a7eb;}.cls-54{fill:#424870;}.cls-55{fill:#ded1ca;}.cls-56{fill:#dee0e6;}.cls-57{fill:#3b3f46;}.cls-58{fill:#d39879;}.cls-59{fill:#dfdfdf;}.cls-60{fill:#334561;}.cls-61{fill:#9f7a64;}.cls-62{fill:#688bc3;}.cls-63{fill:#6d6761;}.cls-64{fill:#916440;}.cls-65{fill:#5b78ad;}.cls-66{fill:#c5ccd9;}.cls-67{fill:#d45d58;}.cls-68{fill:#64442c;}.cls-69{fill:#525252;}.cls-70{fill:#292929;}.cls-71{fill:#857052;}.cls-72{fill:#41476d;}.cls-73{fill:#313652;}.cls-74{fill:#525a8a;}.cls-75{fill:#5775a3;}.cls-76{fill:#5d5854;}.cls-77{fill:#ecdfd2;}.cls-78{fill:#5d7acd;}.cls-79{fill:#d44e57;}.cls-80{fill:#434343;}.cls-81{fill:#191a2a;}.cls-82{fill:#6e6e6e;}.cls-83{filter:url(#luminosity-noclip-3);}.cls-84{filter:url(#luminosity-noclip-2);}.cls-85{filter:url(#luminosity-noclip);}</style><filter id="luminosity-noclip" x="84.6" y="-9037.86" width="9.05" height="32766" filterUnits="userSpaceOnUse" color-interpolation-filters="sRGB"><feFlood flood-color="#fff" result="bg"/><feBlend in="SourceGraphic" in2="bg"/></filter><mask id="mask" x="84.6" y="-9037.86" width="9.05" height="32766" maskUnits="userSpaceOnUse"><g class="cls-85"/></mask><linearGradient id="linear-gradient" x1="89.13" y1="49.92" x2="89.13" y2="114.47" gradientTransform="translate(13.57 -10.38) rotate(7.21)" gradientUnits="userSpaceOnUse"><stop offset="0.01"/><stop offset="1" stop-color="#fff"/></linearGradient><filter id="luminosity-noclip-2" x="115.64" y="-9037.86" width="8.46" height="32766" filterUnits="userSpaceOnUse" color-interpolation-filters="sRGB"><feFlood flood-color="#fff" result="bg"/><feBlend in="SourceGraphic" in2="bg"/></filter><mask id="mask-2" x="115.64" y="-9037.86" width="8.46" height="32766" maskUnits="userSpaceOnUse"><g class="cls-84"/></mask><linearGradient id="linear-gradient-2" x1="119.87" y1="49.92" x2="119.87" y2="114.47" gradientTransform="translate(250.74 190.17) rotate(173.38)" xlink:href="#linear-gradient"/><filter id="luminosity-noclip-3" x="85.41" y="-9037.86" width="38.06" height="32766" filterUnits="userSpaceOnUse" color-interpolation-filters="sRGB"><feFlood flood-color="#fff" result="bg"/><feBlend in="SourceGraphic" in2="bg"/></filter><mask id="mask-3" x="85.41" y="-9037.86" width="38.06" height="32766" maskUnits="userSpaceOnUse"><g class="cls-83"/></mask><linearGradient id="linear-gradient-3" x1="104.44" y1="49.92" x2="104.44" y2="114.47" gradientTransform="matrix(1, 0, 0, 1, 0, 0)" xlink:href="#linear-gradient"/><radialGradient id="radial-gradient" cx="118.69" cy="38.57" r="74.7" gradientUnits="userSpaceOnUse"><stop offset="0.01" stop-color="#f9dc9a"/><stop offset="0.99" stop-color="#fae46e"/></radialGradient><radialGradient id="radial-gradient-2" cx="90.26" cy="65.02" r="8.94" xlink:href="#radial-gradient"/><filter id="luminosity-noclip-4" x="84.6" y="73.26" width="9.05" height="58.48" filterUnits="userSpaceOnUse" color-interpolation-filters="sRGB"><feFlood flood-color="#fff" result="bg"/><feBlend in="SourceGraphic" in2="bg"/></filter><mask id="mask-4" x="84.6" y="73.26" width="9.05" height="58.48" maskUnits="userSpaceOnUse"><g class="cls-1"><rect class="cls-2" x="88.28" y="73.13" width="1.69" height="58.73" transform="translate(-12.16 12) rotate(-7.21)"/></g></mask><linearGradient id="linear-gradient-4" x1="89.13" y1="49.92" x2="89.13" y2="114.47" gradientTransform="translate(13.57 -10.38) rotate(7.21)" gradientUnits="userSpaceOnUse"><stop offset="0.01" stop-color="#f9dc9a"/><stop offset="1" stop-color="#fff"/></linearGradient><filter id="luminosity-noclip-5" x="115.64" y="73.07" width="8.46" height="58.54" filterUnits="userSpaceOnUse" color-interpolation-filters="sRGB"><feFlood flood-color="#fff" result="bg"/><feBlend in="SourceGraphic" in2="bg"/></filter><mask id="mask-5" x="115.64" y="73.07" width="8.46" height="58.54" maskUnits="userSpaceOnUse"><g class="cls-3"><rect class="cls-4" x="119.02" y="72.98" width="1.69" height="58.73" transform="translate(227.13 217.83) rotate(-173.38)"/></g></mask><linearGradient id="linear-gradient-5" x1="119.87" y1="49.92" x2="119.87" y2="114.47" gradientTransform="translate(250.74 190.17) rotate(173.38)" xlink:href="#linear-gradient-4"/><filter id="luminosity-noclip-6" x="85.41" y="74.31" width="38.06" height="7.95" filterUnits="userSpaceOnUse" color-interpolation-filters="sRGB"><feFlood flood-color="#fff" result="bg"/><feBlend in="SourceGraphic" in2="bg"/></filter><mask id="mask-6" x="85.41" y="74.31" width="38.06" height="7.95" maskUnits="userSpaceOnUse"><g class="cls-5"><polygon class="cls-6" points="116.81 82.26 110.44 75.96 104.24 82.22 98.08 76.13 92.09 82.18 85.41 75.57 86.23 74.74 92.08 80.53 98.07 74.48 104.23 80.58 110.43 74.31 116.8 80.62 122.64 74.72 123.47 75.53 116.81 82.26"/></g></mask><linearGradient id="linear-gradient-6" x1="104.44" y1="49.92" x2="104.44" y2="114.47" gradientTransform="matrix(1, 0, 0, 1, 0, 0)" xlink:href="#linear-gradient-4"/><linearGradient id="linear-gradient-7" x1="71.65" y1="128.44" x2="134.67" y2="128.44" gradientUnits="userSpaceOnUse"><stop offset="0" stop-color="#6ed1e2"/><stop offset="1" stop-color="#5a7af5"/></linearGradient><linearGradient id="linear-gradient-8" x1="-17329.34" y1="143.85" x2="-17512.94" y2="143.85" gradientTransform="matrix(-1, 0, 0, 1, -17312.04, 0)" gradientUnits="userSpaceOnUse"><stop offset="0" stop-color="#f1a163"/><stop offset="1" stop-color="#f7d16b"/></linearGradient><linearGradient id="linear-gradient-9" x1="-17396.86" y1="143.85" x2="-17450.7" y2="143.85" xlink:href="#linear-gradient-8"/></defs><title>community</title><g id="Layer_2" data-name="Layer 2"><g id="Layer_1-2" data-name="Layer 1"><rect class="cls-7" x="6.49" y="73.62" width="167.4" height="112.69" transform="translate(-12.27 9.43) rotate(-5.61)"/><circle class="cls-8" cx="212.25" cy="51.66" r="51.66"/><path class="cls-9" d="M145.34,49.43v.15a31.42,31.42,0,0,1-3.63,14.64s-12.91,25.54-14.64,49.71c.06,11.29-10.68,20.5-24,20.56h-.42V13.43C126.15,13.39,145.24,29.48,145.34,49.43Z"/><path class="cls-10" d="M103.43,135.26h-1.19c-13.71-.07-24.81-9.56-24.77-21.17C75.77,90.52,63.05,65.27,62.92,65a31.68,31.68,0,0,1-3.71-14.89V50c.1-20.16,19.55-36.53,43.37-36.53h.85ZM60.74,50v.15a30.13,30.13,0,0,0,3.55,14.2c.13.26,13,25.8,14.72,49.69v0c-.05,10.69,10.18,19.45,22.88,19.67V15C79.22,15.27,60.84,30.84,60.74,50Z"/><path class="cls-11" d="M129.37,53.31a12,12,0,0,0,.74-3.25l2.19-.83-.42-2.52-.43-2.51-2.34-.07a11.72,11.72,0,0,0-1.77-2.82l1-2.14-2.08-1.48-2.07-1.48-1.71,1.61a11.91,11.91,0,0,0-3.24-.75l-.84-2.19-2.51.43-2.51.42-.08,2.34a11.92,11.92,0,0,0-2.82,1.77l-2.14-1L106.82,41,105.35,43l1.6,1.71a12,12,0,0,0-.74,3.25l-2.19.83.42,2.52.42,2.51,2.35.07A12,12,0,0,0,109,56.74l-1,2.14,2.07,1.48,2.08,1.48,1.71-1.61a11.83,11.83,0,0,0,3.24.75l.84,2.19,2.51-.43,2.51-.42.08-2.34a12.12,12.12,0,0,0,2.82-1.77l2.14,1,1.47-2.08L131,55Zm-14.83.8a6.24,6.24,0,1,1,8.71-1.46A6.25,6.25,0,0,1,114.54,54.11Z"/><path class="cls-12" d="M97.35,67.72a7.63,7.63,0,0,0,.47-2l1.38-.53-.26-1.59L98.67,62l-1.48,0a7.78,7.78,0,0,0-1.12-1.79l.6-1.35-1.31-.93-1.31-.94-1.08,1a7.43,7.43,0,0,0-2-.47l-.53-1.39-1.59.27-1.59.27,0,1.48a7.6,7.6,0,0,0-1.78,1.12L84,58.6l-.94,1.31-.93,1.32,1,1.08a7.63,7.63,0,0,0-.47,2l-1.38.53.26,1.59.27,1.59,1.48,0a7.78,7.78,0,0,0,1.12,1.79l-.6,1.35,1.31.93,1.31.94,1.08-1a7.45,7.45,0,0,0,2,.48L90.13,74l1.59-.27,1.59-.27,0-1.48a7.36,7.36,0,0,0,1.78-1.11l1.35.6.94-1.31.93-1.31ZM88,68.23a3.95,3.95,0,1,1,5.51-.92A3.94,3.94,0,0,1,88,68.23Z"/><g class="cls-13"><rect class="cls-14" x="88.28" y="73.13" width="1.69" height="58.73" transform="translate(-12.16 12) rotate(-7.21)"/></g><g class="cls-15"><rect class="cls-16" x="119.02" y="72.98" width="1.69" height="58.73" transform="translate(227.13 217.83) rotate(-173.38)"/></g><g class="cls-17"><polygon class="cls-18" points="116.81 82.26 110.44 75.96 104.24 82.22 98.08 76.13 92.09 82.18 85.41 75.57 86.23 74.74 92.08 80.53 98.07 74.48 104.23 80.58 110.43 74.31 116.8 80.62 122.64 74.72 123.47 75.53 116.81 82.26"/></g><path class="cls-19" d="M124.47,144.61l-42.41.21a10.25,10.25,0,0,1-10.3-10.2l-.11-22.24,62.91-.32.11,22.25A10.25,10.25,0,0,1,124.47,144.61Z"/><path class="cls-20" d="M66.27,54.24l-1.54,0c.45-15.26,7.93-23.83,14.12-28.34a36.45,36.45,0,0,1,13.48-6.18l.28,1.51a35.48,35.48,0,0,0-12.9,5.95C71.14,33.4,66.62,42.52,66.27,54.24Z"/><path class="cls-21" d="M71.21,55.69s.39,7-.9,8.05a6.62,6.62,0,0,1-3.52.63c-.5,0-1,0-1.51,0h0c-2-.1-3.78-.35-3.78-.35s-5.17.26-4.92-2.95A3,3,0,0,1,58,59.84c.71-.2,4,.36,4.53.38s5,1,5.22.94a7.06,7.06,0,0,0,.73-3c0-1.67,0-3.22,0-3.22Z"/><path class="cls-22" d="M43.82,122.37a7.09,7.09,0,0,1-.8,1.47c-.37.41-1.77,1.15-1.77,2.38s2.36,1,3.28.92,1-.76,1.39-1.52.78-.63.86-1.24a7.84,7.84,0,0,0-.3-2Z"/><path class="cls-22" d="M62.37,122.61A6.43,6.43,0,0,0,65,124.26c1.31.28,2.22.64,2.23,1.42s-3.77,1.29-5.27.5c-2.24-1.17-2.47-.81-2.71-1.4s.3-2.15.28-2.33S62.37,122.61,62.37,122.61Z"/><path class="cls-23" d="M62.22,83.47s1.36,9.85,1.91,13.18c.65,3.89.87,7.11,1.05,9.12.23,2.54-2.15,16.17-2,16.91s-4.28-.31-4.28-.31,1.39-16.22.72-18.92c-.63-2.51-2.91-13.56-3.48-12.87S52,103.39,51.54,105.37,47,122.87,47,122.87s-3.07.66-3.85,0c0,0,2.68-14.26,3-18,.1-1.41.94-16.88,3.34-23.15C50.71,78.47,62.22,83.47,62.22,83.47Z"/><rect class="cls-24" x="29.04" y="49.36" width="6.47" height="10.72" rx="1.38" transform="translate(-24.49 83.24) rotate(-86.15)"/><rect class="cls-25" x="54.94" y="30.47" width="6.93" height="52.02" transform="translate(118.68 1.99) rotate(93.85)"/><rect class="cls-26" x="57.41" y="28.16" width="2.31" height="52.02" transform="translate(0.59 108.97) rotate(-86.15)"/><rect class="cls-27" x="57.26" y="30.47" width="2.31" height="52.02" transform="translate(118.67 1.98) rotate(93.84)"/><rect class="cls-28" x="57.1" y="32.77" width="2.31" height="52.02" transform="translate(120.82 4.61) rotate(93.85)"/><polygon class="cls-29" points="84.13 61.68 84.59 54.76 92.11 58.03 94.04 58.87 92.01 59.45 84.13 61.68"/><path class="cls-30" d="M84.44,57.07a1.16,1.16,0,0,1,.15-2.31Z"/><path class="cls-31" d="M84.28,59.37a1.15,1.15,0,0,1,.16-2.3Z"/><path class="cls-29" d="M84.13,61.68a1.16,1.16,0,0,1,.15-2.31Z"/><rect class="cls-32" x="31.27" y="50.81" width="2.31" height="3.2" transform="translate(-22.04 81.26) rotate(-86.16)"/><rect class="cls-33" x="31.11" y="53.12" width="2.31" height="3.2" transform="translate(89.03 26.18) rotate(93.84)"/><rect class="cls-34" x="30.96" y="55.43" width="2.31" height="3.2" transform="translate(91.16 28.8) rotate(93.84)"/><polygon class="cls-30" points="84.44 57.07 94.04 58.87 84.59 54.76 84.44 57.07"/><polygon class="cls-31" points="84.28 59.37 94.04 58.87 84.44 57.07 84.28 59.37"/><polygon class="cls-29" points="84.28 59.37 94.04 58.87 84.13 61.68 84.28 59.37"/><polygon class="cls-35" points="92.01 59.45 92.11 58.03 94.04 58.87 92.01 59.45"/><path class="cls-36" d="M69,53.38s-.27,1.2,0,1.53.38-.1.38-.1-.13.42.2.56S70,55,70,55a.35.35,0,0,0,.36.36c.36,0,.36-.42.36-.42s.26.49.56.15a1.8,1.8,0,0,0,.3-1.46s-.06-.21-.42-.2a.49.49,0,0,0-.71-.31s-.46-.42-.74,0A.42.42,0,0,0,69,53.38Z"/><path class="cls-37" d="M44.38,83.3a7.81,7.81,0,0,0,2.39.39c.71-.13.35-8.78.38-10.58A45.77,45.77,0,0,1,48,67.79h0A37,37,0,0,1,49.17,74c0,2-.26,9.62-.26,9.62l3,.29,8.54.21,1.78-.21s-.21-3.26-.29-4.81c0-1-.24-2.75-.19-4.47a15.83,15.83,0,0,1,.15-2.59c0-3.44.22-6.85.22-6.85q.18-2.34.24-4.38c-.37-.2-.82-.43-1.19-.6C60,59.69,58.46,59,57.46,58.51c-.59-.27-1.16-.46-1.16-.46s-4-.39-4.33-.37a9.12,9.12,0,0,0-1.26.44,45.65,45.65,0,0,0-4.6,1.94c-.64.46-2,11.34-2,12.1C44,73.54,44.38,83.3,44.38,83.3Z"/><path class="cls-38" d="M61.94,82.57a70.77,70.77,0,0,1-11,0v1.68s7.71,1.12,11.25-.32Z"/><path class="cls-21" d="M56.94,58.29a31.76,31.76,0,0,1,1.67,7.25c.28,1.92.79,5.16,1.16,8.46h0c.29,2.6,1,5.27,1.17,7.27s.88,8.15.88,8.15l1.6-1c.23-.22.55-.49.46-.79A86.06,86.06,0,0,1,62.09,77.4h0c0-.2,0-.39-.07-.59v0c-.09-.82-.17-1.6-.23-2.33a7.8,7.8,0,0,1,.07-1.61c.23-3.68.34-7.57.34-7.57.12-1.59.41-3.64.45-5A8.71,8.71,0,0,1,61.23,60S58.07,58.77,56.94,58.29Z"/><path class="cls-39" d="M54.89,47.72s3,.5,2.47,5.16-3.13,4.24-3.3,4.24-2.64.05-2.78-5.64C51.28,51.48,51.25,47.27,54.89,47.72Z"/><path class="cls-39" d="M56.19,55.77s0,1.91.08,2.33-2.38,1.74-4,.23a16.5,16.5,0,0,0,.22-2.83C52.41,54.76,56.19,55.77,56.19,55.77Z"/><path class="cls-39" d="M57.37,51.79s.33-.34.45,0a6.38,6.38,0,0,1-.49,2s-.06.13-.14.06A18.77,18.77,0,0,1,57.37,51.79Z"/><path class="cls-39" d="M51.32,51.43s-.32-.35-.45,0a6,6,0,0,0,.41,2s.1.16.18.09A17.35,17.35,0,0,0,51.32,51.43Z"/><path class="cls-40" d="M57.61,51.16c-.1.64-.2,1.11-.2,1.11l-.43.57a10.77,10.77,0,0,0,0-1.45,2.13,2.13,0,0,1-.09-.35c-.05-.23-.1-.5-.13-.59a6.36,6.36,0,0,0-4.77.16s0,.19,0,.4,0,.53-.15.58-.12,1.46-.12,1.46l-.35-.4s-.1-.72-.19-1.56h0l-.06-.59a3.88,3.88,0,0,1,1.12-3.25,5.32,5.32,0,0,1,3.86,0,1.39,1.39,0,0,1,.58.15C57.87,48.76,57.61,51.16,57.61,51.16Z"/><path class="cls-41" d="M52.72,56.49a1.89,1.89,0,0,0,1.57.64,2.14,2.14,0,0,0,1.58-.6,1.68,1.68,0,0,1-3.15,0Z"/><path class="cls-42" d="M56.39,59.55l-1.11.82a11.52,11.52,0,0,0,.95-2.76Z"/><polygon class="cls-43" points="56.23 57.61 56.98 58.31 57.78 60.68 56.39 59.55 56.23 57.61"/><path class="cls-39" d="M56.09,58.31a13.23,13.23,0,0,1-.81,2.06s-1.17-1-1.53-1.38S56.09,58.31,56.09,58.31Z"/><path class="cls-42" d="M54.06,59.23l1.22,1.14A5.42,5.42,0,0,1,53.57,60Z"/><path class="cls-43" d="M52.44,57.13a11.44,11.44,0,0,0,1.62,2.1L53,61l-1.73-3.15Z"/><path class="cls-21" d="M47.27,73.19c-.12,1.67.58,10.91-.12,11a16.24,16.24,0,0,1-3.3-.44s-.32-10-.22-11c.08-.76,1.29-12.17,1.93-12.63.36-.26,3.1-1.23,4.44-1.76l1.25-.51a32.42,32.42,0,0,1,3,10.68,60.43,60.43,0,0,1-.5,6.68c-.26,2.55-.56,4.53-.77,6.66-.42,4.19-.71,7.53-.71,7.53L48.1,87.57c-.68-.34-1.61-1.72-1.36-2.43,1-2.71,2.18-7.32,2.18-9.69,0,0-.47-5.8-.83-7.08A35.74,35.74,0,0,0,47.27,73.19Z"/><path class="cls-36" d="M43.84,88.54a1.79,1.79,0,0,1-.13-.53s0-.33.07-.56a1.07,1.07,0,0,0,0-.18,3,3,0,0,1,0-1c.1-.43.59-1.92.59-1.92l1.34.2,1.17-.16a20.91,20.91,0,0,1,.82,2.95s0,.08,0,.11a3.7,3.7,0,0,1-.33.75c0,.07-.28.69-.47.75a.63.63,0,0,1-.64-.09,1.51,1.51,0,0,1-.87,0,1,1,0,0,1-.86-.16S44,88.79,43.84,88.54Z"/><path class="cls-21" d="M47.38,77.86l0,7.35a12.86,12.86,0,0,1-3.49-.82L43.71,74Z"/><rect class="cls-44" x="55.01" y="82.67" width="2.76" height="2.05"/><rect class="cls-45" x="46.43" y="126.11" width="113.46" height="35.49"/><polygon class="cls-46" points="159.89 161.6 159.89 126.11 118.6 126.11 96.4 161.2 159.89 161.6"/><rect class="cls-47" x="45.39" y="117.1" width="1.38" height="62.74"/><path class="cls-48" d="M14.51,90.89H45.78A7.07,7.07,0,0,1,52.85,98v64.44a7.08,7.08,0,0,1-7.08,7.08H14.51a7.08,7.08,0,0,1-7.08-7.08V98A7.08,7.08,0,0,1,14.51,90.89Z"/><rect class="cls-11" x="8.68" y="92.16" width="42.92" height="74.25" rx="6.99"/><rect class="cls-47" x="23.38" y="90.3" width="13.53" height="3.06"/><path class="cls-21" d="M18.69,125.61Z"/><path class="cls-49" d="M29.24,119.64a10.42,10.42,0,0,1-1.11,0,11.65,11.65,0,0,1-5.95-2.34,12.68,12.68,0,0,1-1.17-1L20.8,116c-.25-.27-.5-.56-.73-.86a11.46,11.46,0,0,1-2.42-7.09,11.61,11.61,0,0,1,11.59-11.6V97a11.08,11.08,0,0,0-8.76,17.85c.22.29.46.56.7.82l.2.21a13.2,13.2,0,0,0,1.12,1A11.11,11.11,0,0,0,27,118.9a8.61,8.61,0,0,0,1.15.17,9.4,9.4,0,0,0,1.06.05h.37c.33,0,.67,0,1-.08a11,11,0,0,0,5-2l.46-.34.39-.32a12.29,12.29,0,0,0,1.24-1.26,11.09,11.09,0,0,0,2.47-8.75l.52-.07a12,12,0,0,1,.12,1.7,11.59,11.59,0,0,1-2.72,7.46,11.4,11.4,0,0,1-1.29,1.31l-.41.34-.48.36a11.61,11.61,0,0,1-5.27,2c-.34,0-.69.07-1,.08Z"/><path class="cls-21" d="M25.1,127.46Z"/><path class="cls-50" d="M2.92,144.6a2.72,2.72,0,0,1,.35.93,4.35,4.35,0,0,0,.43,1.09,10.73,10.73,0,0,1,.52,1.83A7.65,7.65,0,0,0,4,149.67c0,.26.19.78,0,.82s-.51-.4-.51-.4a.36.36,0,0,1-.18.34c-.39.18-.59,0-.59,0s-.15.27-.33.31a.77.77,0,0,1-.59-.08.79.79,0,0,1-.45.14.58.58,0,0,1-.5-.31s-.45.09-.58-.12a1.9,1.9,0,0,1-.16-.62,7.22,7.22,0,0,1,.57-3.11,2.77,2.77,0,0,0-.15-2.43Z"/><path class="cls-51" d="M3.48,149.93s0-1.52-.36-1.85-.45.23-.45.23.06-.55-.38-.62-.46.57-.46.57a.42.42,0,0,0-.53-.33c-.46.09-.35.62-.35.62s-.44-.52-.73,0a2.27,2.27,0,0,0,0,1.86s.14.23.58.12a.61.61,0,0,0,1,.17s.67.37.92-.23A.55.55,0,0,0,3.48,149.93Z"/><path class="cls-52" d="M8.1,122.59s-2.61,8.72-3.5,11.94c-.27,1-.95,10.63-1.06,11s-3.44.92-3.44.92.4-12.05.44-12.7,3.66-14.11,4.71-14.59c.79-.36,1.21-.07,2.2.67A2.32,2.32,0,0,1,8.1,122.59Z"/><rect class="cls-53" x="33.17" y="108.38" width="7.15" height="0.53" transform="translate(-53.52 37.89) rotate(-33.22)"/><path class="cls-36" d="M40.52,108.72a1.67,1.67,0,0,1-.15.47l-.33.41-.09.14a2.88,2.88,0,0,1-.5.77c-.28.29-1.39,1.21-1.39,1.21l-1-.81-1-.44a18,18,0,0,1,.79-2.71l.07-.08a3.38,3.38,0,0,1,.62-.42s.55-.41.73-.36a.61.61,0,0,1,.46.38,1.49,1.49,0,0,1,.68.43.91.91,0,0,1,.58.55S40.5,108.44,40.52,108.72Z"/><path class="cls-54" d="M6,182.11s-.24,1.65-.27,1.9-2.65-.15-2.65-.15l-.21-2A15.11,15.11,0,0,1,6,182.11Z"/><path class="cls-23" d="M5.74,183.8a7,7,0,0,0,1.63,1.43c.81.44,2.07.61,2.54,1.06S11.16,188,7.83,188s-4.95.2-5.31-.34.52-3.95.52-3.95A7.17,7.17,0,0,0,5.74,183.8Z"/><path class="cls-54" d="M24.77,182.11s-.24,1.65-.27,1.9-2.65-.15-2.65-.15l-.22-2A15.2,15.2,0,0,1,24.77,182.11Z"/><path class="cls-23" d="M24.53,183.8a7,7,0,0,0,1.63,1.43c.8.44,3.76.79,4.24,1.24s.91,1.63-3.79,1.51c-3.33-.08-4.94.2-5.3-.34s.52-3.95.52-3.95A6.47,6.47,0,0,0,24.53,183.8Z"/><path class="cls-23" d="M8.15,139.59S5.69,143.5,5.87,147s-.89,7.4-1.26,11.1c-.42,4.12-2.1,13.88-2.17,16.08s.27,9.24.27,9.24l3.38.08s2.84-17,3.57-18.8,4.38-14.14,4.5-15.53S8.15,139.59,8.15,139.59Z"/><path class="cls-23" d="M21.12,140.12s1.86,9.7,2.1,11.86.41,10.48.53,11.84,1.15,17.67,1.47,19.72H20.9S17.59,171.65,17.59,166,15,153.79,13.37,150.08s-5.44-3.8-6.46-10.69C6.91,139.39,19.74,137.93,21.12,140.12Z"/><path class="cls-50" d="M12.26,106.68s3.31-1.24,4.83,1.28,1.38,7.56-.29,8.18-4.17.29-5-1.28a12.78,12.78,0,0,1-1.59-5.38A3.31,3.31,0,0,1,12.26,106.68Z"/><path class="cls-50" d="M16.45,116.25a2.86,2.86,0,0,0,.09,1.34c.22.44-4.29.45-4.29.45a30.26,30.26,0,0,0-1.06-4.42C10.5,111.6,16.45,116.25,16.45,116.25Z"/><path class="cls-23" d="M11.19,113.62s.31.52,1.58.32,2.82-1.89,3.36-2.08.53-.5.53-.5l.33.49.57,0s-.52-1.52.26-2.13-.81-4.9-4.88-3.48c0,0-3.13.87-3,2.65A9.81,9.81,0,0,0,11.19,113.62Z"/><path class="cls-55" d="M16.8,117.53s0-.84-.39-.92a26.66,26.66,0,0,0-4.67-.26v1S12.64,117.88,16.8,117.53Z"/><path class="cls-50" d="M16.58,110.72c-.07-.3-.83-1.16-1.12-.24s.44,2.14.84,2S16.76,111.47,16.58,110.72Z"/><path class="cls-52" d="M23.13,118.81c-2.62-.35-6.33-1.28-6.33-1.28l-5.06-.2a49.19,49.19,0,0,0-6.49,1.85c-.17.08-.17,4.15-.65,5.21l1.52,3.21s.88,6.34,1.06,9.17c.08,1.29-1.81,12.14-1.81,12.14a34.72,34.72,0,0,0,5.49,1c3.46.38,12.1-.14,12.15-.54s-1.67-15.21-1.75-16c-.12-1.18.41-7.43.41-7.43.8-.62,7.81-3.87,9.72-5.57.51-.45,2.67-2.56,3.29-3.28a61,61,0,0,0,4.17-5.25c.25-.27-2.43-1.71-2.66-1.79s-3.09,3.76-4.22,5a30.15,30.15,0,0,1-2.6,2.07S24.77,118.9,23.13,118.81Z"/><path class="cls-23" d="M11.32,107s-4.22.33-.13,6.64Z"/><polygon class="cls-56" points="39.88 106.91 40.23 106.38 39.59 106.47 39.88 106.91"/><path class="cls-57" d="M146.15,85s-.23-1.07-1.78-1.06c-2.15,0-2.33,3.07-2,5,.48,2.53,1.39,3.56-.35,10.1,0,0,3.86-8.09,3.25-10.5A4.8,4.8,0,0,1,146.15,85Z"/><path class="cls-50" d="M158.26,105.41s.92-.47.91-1a4.46,4.46,0,0,1,.3-1.39c.12-.28.16-1.28.49-1.13s0,1.66,0,2,1.09-.56,1.41-.56,1.65,2.05.83,2.57a6,6,0,0,1-2.15.61l-.79.3Z"/><path class="cls-50" d="M161.15,103.42a20.7,20.7,0,0,1,2.86-1.35c.26.06.32.22.08.36l-2.48,1.45s3.36-1.12,3.58-1.12.27.3.15.39-3.39,1.4-3.39,1.4,3.14-1,3.32-1a.25.25,0,0,1,0,.45l-3.09,1.24a12.94,12.94,0,0,1,2.46-.46c.08.09.21.34-.39.48s-2,.61-2,.61Z"/><path class="cls-50" d="M150.36,107.38s4.28-.95,5.1-1.2,2.8-.77,2.8-.77l1,1.42s-5.52,2.83-6.54,3.23-3.52,1.3-3.52,1.3Z"/><path class="cls-58" d="M168.89,125.11s1.25,5.32,1.29,6.36,3.64,14.91,3.91,15.6-1.36,1.28-1.81.83-4-8.2-4.85-9.63-2.82-4.78-2.93-8.11S168.89,125.11,168.89,125.11Z"/><path class="cls-50" d="M169.8,126.71s-2,5.11-2.5,6-5.32,14.4-5.49,15.12-1.82.24-1.95-.39,1.24-9,1.36-10.63.34-5.54,2.11-8.36S169.8,126.71,169.8,126.71Z"/><path class="cls-59" d="M159.78,147.46s2.16-.51,2.23-.56.09-.19.38-.05.39.58.67.74,2,.76,3,1.28c.34.19,1.79.82,2,1.31s.08,1.18-2.45.89-5.32-.08-5.86-.39S159.6,148.18,159.78,147.46Z"/><path class="cls-59" d="M172.16,148s2-1,2.06-1,.05-.2.36-.14.51.49.81.58,2.14.31,3.17.62c.37.11,1.92.42,2.21.85s.34,1.14-2.19,1.4-5.21,1.06-5.81.88S172.14,148.7,172.16,148Z"/><path class="cls-60" d="M151.53,117.66s16.76,3.68,18.27,9a10.38,10.38,0,0,0-6,1.21s-7.82-.55-15.64-.36c-1,0-7.8-2-6.74-7.7S151.53,117.66,151.53,117.66Z"/><path class="cls-39" d="M148.69,94.37a3.56,3.56,0,0,0-.66.91,8,8,0,0,0-.48,1,12.38,12.38,0,0,0-.45,1.36s-4-2.09-3-2.88,1.39-3.89,1.39-3.89S149.49,93.6,148.69,94.37Z"/><path class="cls-50" d="M153.32,86.9s.82,1.24-.41,3.81a9.79,9.79,0,0,0-.14,2.69c.23.46-1,.26-1.23.5a5.62,5.62,0,0,1-1.86,2c-1.05.52-4.6-2.94-4.45-4.3s-1.19-7.73,3.47-6.7S153.32,86.9,153.32,86.9Z"/><path class="cls-57" d="M153.29,89.77s2.08-5.47-3.64-6-4.62,6.4-4.44,8.6c0,0,.77-3.13,3.42-2.5A7.37,7.37,0,0,0,153.29,89.77Z"/><path class="cls-50" d="M148.42,89a.78.78,0,0,0-1.49.23c-.11.9.55,2,1,1.68A1.72,1.72,0,0,0,148.42,89Z"/><path class="cls-61" d="M148,95.28a8,8,0,0,0-.48,1,7.09,7.09,0,0,1-1.73-3.27A11.55,11.55,0,0,0,148,95.28Z"/><path class="cls-62" d="M147.69,97s3.49,4,3.93,4.32,1.78,3.16,0,4.87a11.43,11.43,0,0,1-.48,2.52c-.31.7-.09,7.87.42,8.7s-6.68,3.55-10.1,2.44c0,0,1-4.6,1.28-6.94s-1.09-9.17-1.13-11,1.25-6.5,2.49-7S147.69,97,147.69,97Z"/><rect class="cls-63" x="152.77" y="119.45" width="13.36" height="0.82" transform="translate(272.8 284.01) rotate(-161.56)"/><rect class="cls-63" x="164.08" y="117.6" width="13.36" height="0.82" transform="translate(378.16 109.67) rotate(143.05)"/><path class="cls-50" d="M162.47,120.48c.1-.27.12-.72-.7-1.33s-2.62-2.3-3.29-2.43a5.93,5.93,0,0,0-1.46.13c-.27,0-.63,1.6-.63,1.6Z"/><path class="cls-50" d="M157,116.85s-3.59-1.48-4.21-1.77-3.56-1.33-3.82-1.46a59,59,0,0,1-1.69-8.85c-.1-1.79-.21-5.59-2.24-5.43s-2.51,1.5-2.26,4.12,1.76,12,2.39,12.31,8.14,1.81,11.73,2.87S157,116.85,157,116.85Z"/><path class="cls-62" d="M145.94,85.28a6,6,0,0,0-.77,2.71A2.15,2.15,0,0,1,145.94,85.28Z"/><path class="cls-64" d="M115.1,165.38c-.11.79-4.82,4.09-5.75,4.75a10.4,10.4,0,0,1-2.52,1.2h0c-2.56.67-18.63,5.46-18.63,5.46a1.69,1.69,0,0,0-.16-.48c-.6.23-1.22.39-1.61.51-.6.19-5.34.34-6.32.53s-2.91.48-3.7-.27.49-2.35,1.57-2.76,5-.53,5.76-.6a7.14,7.14,0,0,1,2.09-.19,5,5,0,0,0,1.56-.41c0-.29,0-.47,0-.47l4.22-1.22L90.81,164s1.83-6.91,9.16-1.64c0,0,1.64.48,2.2.63a.52.52,0,0,0,.19,0c1.12-.09,5.92-1.54,7.66-1.54s2.47-.11,3.14.23A6.66,6.66,0,0,1,115.1,165.38Z"/><path class="cls-64" d="M107.59,177.08c-.78.75-2.73.45-3.7.27s-5.72-.34-6.32-.53a9.63,9.63,0,0,1-2.5-1,2.92,2.92,0,0,0-.42-.18h0l-1.19.85L77,171.27a5.81,5.81,0,0,1-2.3-1.14c-.86-.75-5.65-4-5.76-4.75a6.67,6.67,0,0,1,1.95-3.73c.67-.34,1.27-.23,3.14-.23s7.29,1.68,7.85,1.53a7.17,7.17,0,0,0,1.28-.61c.6-.32,1.16-.66,1.16-.66,8-3.58,8.92,2.28,8.92,2.28l-.47,7.24,1.53.75,4,1.12-.52.38a1.09,1.09,0,0,0,.45.08,7.18,7.18,0,0,1,2.1.19c.71.07,4.67.19,5.75.6S108.38,176.34,107.59,177.08Z"/><path class="cls-65" d="M83.12,162.34a42.8,42.8,0,0,1,5.18,2.73A59.12,59.12,0,0,0,81.84,163,7.17,7.17,0,0,0,83.12,162.34Z"/><path class="cls-40" d="M102.36,163s-6.45,1.56-7.63,2.22c.06,0,3.4-2.58,5.15-2.92,0,0,1.73.54,2.29.69a.52.52,0,0,0,.19,0Z"/><path class="cls-50" d="M107.59,177.08c-.78.75-2.73.45-3.7.27s-5.72-.34-6.32-.53l-.62-.18h0a7.45,7.45,0,0,1-1.88-.79,2.92,2.92,0,0,0-.42-.18l3-2.16.08-.06a1.09,1.09,0,0,0,.45.08,7.18,7.18,0,0,1,2.1.19c.71.07,4.67.19,5.75.6S108.38,176.34,107.59,177.08Z"/><path class="cls-66" d="M107.59,177.08c-.78.75-2.73.45-3.7.27s-5.72-.34-6.32-.53l-.62-.18h0a3.19,3.19,0,0,0,.69-3.13l.08-.06a1.09,1.09,0,0,0,.45.08,7.18,7.18,0,0,1,2.1.19c.71.07,4.67.19,5.75.6S108.38,176.34,107.59,177.08Z"/><path class="cls-67" d="M84.76,164a0,0,0,0,1,0,0C84.68,164.09,84.69,164.07,84.76,164Z"/><path class="cls-67" d="M106.36,155.25a70.43,70.43,0,0,1-4.39-7.92,6.87,6.87,0,0,0-4.18-3.91l-1.74-.57L93.4,142H89s-1.51.5-3.12,1.06h0c-1.48.52-3,1.09-3.56,1.35-1.1.55-2.94,4.46-3.31,4.91s-3.25,5.78-3.67,7.83c-.32,1.59,9.12,6.25,9.38,6.84.3-.33,1.67-1.65,1.67-1.65s-.44-.27-1.06-.68c2.53.11,8.71-.1,9.6-.06a5.56,5.56,0,0,0,.57,0h0c.27.2,2,1.76,2,1.76s4.36-1.81,6.37-3.84C106.8,156.64,106.68,155.89,106.36,155.25ZM81.57,158.8c-.94-1.12-2.23-1.8-1.9-2.3s3.06-5.23,3.06-5.23A38.65,38.65,0,0,1,84.55,156a5.22,5.22,0,0,1,.2,2.87,7.71,7.71,0,0,0-.41,2.1A17.69,17.69,0,0,1,81.57,158.8Zm19.28-.54a19.19,19.19,0,0,1-3.12,2.1c-.1-.91-.25-2.33-.27-2.84a12.8,12.8,0,0,1,.7-3.84,15.36,15.36,0,0,0,.67-3.16s3.3,4.48,3.83,5S102.09,156.86,100.85,158.26Z"/><path class="cls-68" d="M86.72,169.32s-5.22-3.13-7.5-3.62a6,6,0,0,1-2.94-1.28A11.37,11.37,0,0,1,82,166C83.53,167.14,86.72,169.32,86.72,169.32Z"/><path class="cls-68" d="M91.36,171.5s9.08-4.77,12.79-5.8a8.65,8.65,0,0,0,2.94-1.28s-5.62.55-9,2.61C96.43,168,91.36,171.5,91.36,171.5Z"/><path class="cls-50" d="M88,176.31c-.6.23-1.22.39-1.61.51-.6.19-5.34.34-6.32.53s-2.91.48-3.7-.27.49-2.35,1.57-2.76,5-.53,5.76-.6a7.14,7.14,0,0,1,2.09-.19,5,5,0,0,0,1.56-.41C87.42,173.6,88,176.31,88,176.31Z"/><path class="cls-64" d="M91.36,175.85l8.93-2.64-1.77-.54S91.39,175.26,91.36,175.85Z"/><polygon class="cls-68" points="91.36 175.85 95.54 174.58 92.64 176.26 91.36 175.85"/><path class="cls-69" d="M88.49,165.18l-.19-.11A1.06,1.06,0,0,1,88.49,165.18Z"/><path class="cls-66" d="M86.43,176.82c-.6.19-5.34.34-6.32.53s-2.91.48-3.7-.27.49-2.35,1.57-2.76,5-.53,5.76-.6a7.14,7.14,0,0,1,2.09-.19A2.47,2.47,0,0,0,86.43,176.82Z"/><path class="cls-69" d="M83.48,164.42l-1.37-7.82,17.78-.41-1.14,7.7a63.77,63.77,0,0,0-7.61,3.29S86.27,165.18,83.48,164.42Z"/><path class="cls-50" d="M93.44,142h0a13.51,13.51,0,0,1-.11-2.8s-4.34-1.1-4.22-.26a14.28,14.28,0,0,1-.37,3.16l-2.23.76s2.37,6.37,5.1,5.55,3.76-5.78,3.76-5.78Z"/><path class="cls-50" d="M91,129.87s4.58-1.07,4.1,4.62-1.53,6.44-3,6.54c-1.84.13-3.72-.67-4.77-5.14C86.37,131.63,88.22,129.87,91,129.87Z"/><path class="cls-23" d="M87.7,137.1s-.22-.89.1-1.1a.45.45,0,0,1,.66.2l.44,0s-.69-1.57.71-1.71,4.33-.05,5.13-.53c0,0,.2,1.06.2,1.31s.12,0,.12,0,.76-4.07-1.61-5.76-5.32-.38-6,1.13S86.55,133.68,87.7,137.1Z"/><polygon class="cls-70" points="86.93 134.05 82.17 131.96 91.47 126.92 99.33 130.93 95.16 133.16 86.93 134.05"/><path class="cls-69" d="M87,134.43s4.53-1.43,8.15-.8l0-1a17.26,17.26,0,0,0-8.34.71Z"/><rect class="cls-70" x="85.48" y="132.42" width="0.22" height="5.54" transform="translate(-0.18 0.12) rotate(-0.08)"/><path class="cls-70" d="M85.6,137.86h0c-.52,0-.46,2.73-.46,2.73h.94S86.13,137.88,85.6,137.86Z"/><path class="cls-67" d="M88.74,142.1s.32,2.75,2.75,2.36a2,2,0,0,0,2-2.46s2.58.83,3.59,1.17c0,0-2,8.61-7.12,7.5s-3.44-7.8-3.44-7.8Z"/><path class="cls-61" d="M93,140.85a3.54,3.54,0,0,1-3.54-.65s.67,1.49,1.92,1.59A1.55,1.55,0,0,0,93,140.85Z"/><path class="cls-70" d="M94,136.85a1.2,1.2,0,1,1,1.1-1.2A1.15,1.15,0,0,1,94,136.85Zm0-2.22a1,1,0,1,0,.92,1A1,1,0,0,0,94,134.63Z"/><path class="cls-70" d="M90.89,137.11a1.2,1.2,0,1,1,1.1-1.2A1.15,1.15,0,0,1,90.89,137.11Zm0-2.21a1,1,0,1,0,.92,1A1,1,0,0,0,90.89,134.9Z"/><path class="cls-70" d="M91.91,135.86l0-.18a3.25,3.25,0,0,1,1.17-.11l0,.18A3.12,3.12,0,0,0,91.91,135.86Z"/><rect class="cls-70" x="88.63" y="134.37" width="0.19" height="2.41" transform="translate(-66.27 182.81) rotate(-73.75)"/><path class="cls-50" d="M88.15,135s-.45-.46-.58-.06a4.38,4.38,0,0,0,.83,2.33C88.64,137.34,88.69,135.58,88.15,135Z"/><rect class="cls-71" x="174.26" y="132.71" width="84.57" height="3.26"/><rect class="cls-71" x="174.26" y="137.54" width="84.57" height="3.26"/><rect class="cls-71" x="258.55" y="155.92" width="2.61" height="21.79"/><rect class="cls-71" x="246.86" y="155.92" width="2.61" height="21.79"/><rect class="cls-71" x="174.26" y="152.66" width="90.33" height="3.26"/><rect class="cls-71" x="174.26" y="147.38" width="84.57" height="3.26"/><rect class="cls-71" x="174.26" y="142.46" width="84.57" height="3.26"/><rect class="cls-71" x="176.35" y="155.92" width="2.61" height="21.79"/><rect class="cls-71" x="188.55" y="155.92" width="2.61" height="21.79"/><path class="cls-72" d="M245.8,164.73a2.65,2.65,0,1,1,2.88-2.64A2.77,2.77,0,0,1,245.8,164.73Zm0-4.71a2.07,2.07,0,1,0,2.21,2.07A2.15,2.15,0,0,0,245.8,160Z"/><rect class="cls-73" x="238.61" y="171.42" width="14.38" height="7.18"/><path class="cls-72" d="M239.27,179.94s-.06-1.61,0-10.26c.06-9,6.61-8.86,6.61-8.86s6.54-.13,6.6,8.86c.06,8.65,0,10.26,0,10.26Z"/><rect class="cls-74" x="240.76" y="171.42" width="10.23" height="7.18"/><rect class="cls-73" x="240.76" y="171.42" width="10.23" height="2"/><path class="cls-72" d="M205.45,175.93a10.59,10.59,0,0,0-1.7,2c-.81,1.21-2.95,1.27-3.05,2.92s2.92,1.71,4.5,1.17,1.81-2.15,2.77-2.56,1.45-.73,1.37-1.51a9.43,9.43,0,0,0-.6-2.07,6.53,6.53,0,0,1-.94.23A8.15,8.15,0,0,1,205.45,175.93Z"/><path class="cls-62" d="M216.27,131.14s-.6,3.59-1.09,6h0a14.78,14.78,0,0,1-.49,2A27.61,27.61,0,0,1,212,142c-2.44,2.51-5.66,5.67-5.66,5.67l-1.26-2.39s2.86-3.36,4.8-5.59c.9-1,1.6-1.84,1.73-1.95.4-.36.87-3.94,1.53-6.88a12,12,0,0,1,2-4.58Z"/><path class="cls-50" d="M212,142c-2.44,2.51-5.66,5.67-5.66,5.67l-1.26-2.39s2.86-3.36,4.8-5.59A4.05,4.05,0,0,1,212,142Z"/><path class="cls-72" d="M227.66,174.94l1.32,1.47c.49.56,2.36,1.55,2.37,3.2s-1.38,1.63-2.62,1.56a3.41,3.41,0,0,1-2.77-1.93c-.52-1-1.91-1.28-2-2.1a5.66,5.66,0,0,1,.64-2.28Z"/><path class="cls-62" d="M224.75,173.34l-.16,1.52s2.59,1.13,3.07.08l-.11-1.35Z"/><path class="cls-62" d="M205.59,174.83l-.14,1.1a5.46,5.46,0,0,0,3.29-.05l0-1Z"/><path class="cls-62" d="M227.81,147.21c.09.32-16.58,0-16.58,0s4.61-3.35,4.91-4.25-1.17-6.27-1.36-8c-.16-1.4-.54-7.67.38-8.63s4.44-2,4.44-2l5.06.18a8.11,8.11,0,0,1,1.44.46c.6.27,4,1.49,4.57,3.2s-3.41,7.19-3.41,7.19,0,.25,0,.65h0c0,.54,0,1.36-.06,2.25,0,1.15-.05,2.42-.05,3.35A33,33,0,0,0,227.81,147.21Z"/><path class="cls-23" d="M227.81,147.21s2.26,3.33,2.3,5.6-.84,8.58-.91,9.83S228,174.29,228,174.29s-.91.84-3.63-.22c0,0-.6-9.86-.67-10.92s-.06-5.92-.67-6.62-4.29-2.92-4.77-3.33-8.84,1.58-9.72,1.8c-2.27.59-1.24,4.54-.73,6.31.84,3,1.57,13.66,1.57,13.66a7.7,7.7,0,0,1-4.32.11s-5.32-19.32-5.49-21.24-.26-5.08,12.85-7.49Z"/><path class="cls-50" d="M221,113.26s-4.4-1-3.39,4.54,2.06,6,4.71,4.82,2.42-4.69,2.55-6.42S222.39,113.32,221,113.26Z"/><path class="cls-50" d="M219.83,125.69s1.94,2.06,5,.18a29.83,29.83,0,0,1-.33-6.65c.37-2.18-4,3.38-4,3.38s.1.24.1.53a5.64,5.64,0,0,1,0,.89C220.48,124.74,220.25,125.51,219.83,125.69Z"/><path class="cls-50" d="M223.35,117.07a.56.56,0,0,1,1.1.06c.08.74-.44,2-.81,1.89S223.27,117.74,223.35,117.07Z"/><path class="cls-57" d="M224.65,119s-.12-1.75-.75-1.8-.74.65-.74.65l-.64.12s.2-1.53-.43-1.8-4.12.84-4.63.39-.28-3.54.65-4,3.47-1.37,5.34-.11c0,0,1.45-.16,1.67,1A16.2,16.2,0,0,1,224.65,119Z"/><path class="cls-61" d="M220.57,124c3.17-1,3.41-2.89,3.42-2.92a4.82,4.82,0,0,1-3.38,2A5.64,5.64,0,0,1,220.57,124Z"/><path class="cls-50" d="M226.15,124.93s-2.32,4.63-6.08,4.33-.64-4.95-.47-5S223.45,123.3,226.15,124.93Z"/><path class="cls-62" d="M209.33,147s11.51,1.42,18.48.23l-13.32-1.66S214.41,145.89,209.33,147Z"/><path class="cls-50" d="M217.94,145l-.86.44a3.87,3.87,0,0,0,.66,1.77l1-.24A4.06,4.06,0,0,0,217.94,145Z"/><path class="cls-62" d="M231.25,142.23a43.23,43.23,0,0,1-5,2.1h0c-3.49,1.34-7.43,2.61-7.43,2.61l-.89-1.92s4.12-2.24,6.91-3.81c1.31-.74,2.33-1.34,2.48-1.47.44-.43.56-1.11.23-2.31s-1.09-6.68-1.17-7.32a2.11,2.11,0,0,1,1.81-2.43,4.74,4.74,0,0,1,2.42.37s.4.16.7,4S231.66,141.76,231.25,142.23Z"/><path class="cls-75" d="M227.24,136h0c0,.54,0,1.36-.06,2.25a11.16,11.16,0,0,1-.64-6.93A22.66,22.66,0,0,0,227.24,136Z"/><path class="cls-75" d="M215.18,137.11h0a14.78,14.78,0,0,1-.49,2,20.4,20.4,0,0,1-.05-5.89A32.54,32.54,0,0,0,215.18,137.11Z"/><path class="cls-50" d="M226.26,144.33h0c-3.49,1.34-7.56,2.66-7.56,2.66l-.76-2s4.12-2.24,6.91-3.81C224.85,141.21,225.86,141.7,226.26,144.33Z"/><polygon class="cls-76" points="217.69 147.1 201.33 146.86 209.59 151.05 217.69 147.1"/><polygon class="cls-77" points="209.59 151.05 217.69 147.91 217.69 147.1 208.95 150.25 209.59 151.05"/><path class="cls-50" d="M217.26,145.49s-1-.16-1.72-.33a3.62,3.62,0,0,0-2.26.4c-.34.35-1.44,2.8-1.65,2.95s.11.49.47.32c0,0,.34,1.07,1.17.67s1.39-1.28,1.82-1.43,3-.93,3-.93S217.91,145.23,217.26,145.49Z"/><path class="cls-50" d="M213.53,145.4a7.35,7.35,0,0,0-.82.46l-1,.78c-.17.13.26.47,1.5-.06S213.53,145.4,213.53,145.4Z"/><polygon class="cls-77" points="209.59 151.05 204.72 137.77 189.04 138.02 193.68 150.27 209.59 151.05"/><path class="cls-23" d="M144.37,165.54c-.12.82-5.05,4.27-6,5a10.49,10.49,0,0,1-2.64,1.25h0c-2.67.71-19.47,5.72-19.47,5.72a1.86,1.86,0,0,0-.16-.51c-.63.25-1.28.41-1.69.54-.62.19-5.58.35-6.6.54s-3.05.51-3.87-.27.51-2.46,1.64-2.89,5.28-.55,6-.63a7.79,7.79,0,0,1,2.19-.19,5.83,5.83,0,0,0,1.63-.43c0-.31,0-.5,0-.5l4.41-1.27-.81-7.81s1.91-7.23,9.58-1.71l2.3.66H131c1.17-.08,6.2-1.6,8-1.6s2.58-.12,3.29.23A7,7,0,0,1,144.37,165.54Z"/><path class="cls-23" d="M136.52,177.77c-.82.78-2.86.47-3.87.27s-6-.35-6.61-.54a10.37,10.37,0,0,1-2.62-1,2.45,2.45,0,0,0-.43-.19h0l-1.24.89-17.25-5.49a6,6,0,0,1-2.4-1.19c-.9-.78-5.9-4.14-6-5a7,7,0,0,1,2-3.91c.7-.35,1.33-.23,3.28-.23s7.62,1.75,8.21,1.6a7.9,7.9,0,0,0,1.34-.64c.63-.34,1.21-.69,1.21-.69,8.4-3.75,9.33,2.38,9.33,2.38l-.5,7.57s.7.35,1.61.78l4.16,1.18-.54.39a1.05,1.05,0,0,0,.47.09,7.82,7.82,0,0,1,2.19.19c.74.08,4.88.2,6,.63S137.34,177,136.52,177.77Z"/><path class="cls-23" d="M110.93,162.36a44.55,44.55,0,0,1,5.42,2.85,61.88,61.88,0,0,0-6.76-2.21A7.9,7.9,0,0,0,110.93,162.36Z"/><path class="cls-23" d="M131,163s-6.73,1.64-8,2.32c.06,0,3.55-2.69,5.39-3,0,0,1.8.57,2.39.73Z"/><path class="cls-50" d="M136.52,177.77c-.82.78-2.86.47-3.87.27s-6-.35-6.61-.54l-.65-.2h0a7.43,7.43,0,0,1-2-.82,2.45,2.45,0,0,0-.43-.19l3.12-2.26.09-.06a1.05,1.05,0,0,0,.47.09,7.82,7.82,0,0,1,2.19.19c.74.08,4.88.2,6,.63S137.34,177,136.52,177.77Z"/><path class="cls-78" d="M136.52,177.77c-.82.78-2.86.47-3.87.27s-6-.35-6.61-.54l-.65-.2h0a3.31,3.31,0,0,0,.72-3.27l.09-.06a1.05,1.05,0,0,0,.47.09,7.82,7.82,0,0,1,2.19.19c.74.08,4.88.2,6,.63S137.34,177,136.52,177.77Z"/><path class="cls-67" d="M112.64,164.08s0,0,0,0S112.57,164.17,112.64,164.08Z"/><path class="cls-79" d="M135.23,155a75.4,75.4,0,0,1-4.59-8.29,7.21,7.21,0,0,0-4.38-4.09l-1.82-.59-2.76-.89h-4.56l-3.26,1.11h0c-1.54.54-3.17,1.13-3.72,1.4-1.15.58-3.08,4.67-3.47,5.14s-3.39,6-3.83,8.18c-.33,1.66,9.53,6.53,9.8,7.15.32-.34,1.75-1.72,1.75-1.72l-1.1-.71c2.64.12,9.1-.11,10-.07a3.92,3.92,0,0,0,.59,0h0c.29.21,2.14,1.84,2.14,1.84s4.56-1.89,6.66-4C135.68,156.39,135.56,155.61,135.23,155Zm-25.92,3.7c-1-1.17-2.33-1.88-2-2.4s3.21-5.47,3.21-5.47a41.31,41.31,0,0,1,1.9,4.95,5.52,5.52,0,0,1,.21,3,7.63,7.63,0,0,0-.43,2.2A18,18,0,0,1,109.31,158.65Zm20.16-.56a19.59,19.59,0,0,1-3.27,2.19c-.1-.94-.26-2.43-.27-3a13.22,13.22,0,0,1,.72-4,16.33,16.33,0,0,0,.71-3.31s3.45,4.69,4,5.18S130.76,156.62,129.47,158.09Z"/><path class="cls-50" d="M119.94,128.56s3.57.56,3,6.14-3.69,5.12-3.9,5.11-3.15.1-3.38-6.71C115.68,133.1,115.58,128.07,119.94,128.56Z"/><path class="cls-50" d="M123,133.12s.39-.42.53,0a8.35,8.35,0,0,1-.55,2.39s-.07.16-.17.07A21.17,21.17,0,0,1,123,133.12Z"/><path class="cls-50" d="M115.77,133.05s-.38-.42-.53,0a8.26,8.26,0,0,0,.51,2.4s.07.16.16.08A19.61,19.61,0,0,0,115.77,133.05Z"/><path class="cls-80" d="M123,134l-.51.68a14,14,0,0,0-.07-1.73c-.08-.24-.21-1-.28-1.12a7.6,7.6,0,0,0-5.7.24s.12,1.08-.14,1.17-.13,1.76-.13,1.76l-.42-.48a36.86,36.86,0,0,1-.48-4.74c.16-.44.66-3.13,6.09-1.54,0,0,1.69-.35,2,.81S123,134,123,134Z"/><path class="cls-81" d="M114.7,169.65s-5.46-3.27-7.85-3.79a6.32,6.32,0,0,1-3.07-1.32,11.92,11.92,0,0,1,6,1.69C111.37,167.38,114.7,169.65,114.7,169.65Z"/><path class="cls-81" d="M119.55,171.93s9.49-5,13.36-6.07a9.17,9.17,0,0,0,3.08-1.32s-5.87.57-9.44,2.72C124.85,168.28,119.55,171.93,119.55,171.93Z"/><path class="cls-50" d="M116.08,177c-.63.25-1.28.41-1.69.54-.62.19-5.58.35-6.6.54s-3.05.51-3.87-.27.51-2.46,1.64-2.89,5.28-.55,6-.63a7.79,7.79,0,0,1,2.19-.19,5.83,5.83,0,0,0,1.63-.43C115.42,174.12,116.08,177,116.08,177Z"/><path class="cls-23" d="M119.55,176.48l9.33-2.76-1.85-.56S119.57,175.86,119.55,176.48Z"/><polygon class="cls-81" points="119.55 176.48 123.91 175.15 120.88 176.91 119.55 176.48"/><path class="cls-69" d="M116.55,165.32l-.2-.11Z"/><path class="cls-78" d="M114.39,177.5c-.62.19-5.58.35-6.6.54s-3.05.51-3.87-.27.51-2.46,1.64-2.89,5.28-.55,6-.63a7.79,7.79,0,0,1,2.19-.19A2.58,2.58,0,0,0,114.39,177.5Z"/><path class="cls-69" d="M111.31,164.54l-1.44-8.19,18.6-.43-1.2,8.06a66.5,66.5,0,0,0-8,3.43S114.23,165.32,111.31,164.54Z"/><path class="cls-82" d="M120.41,161.29a1.05,1.05,0,1,1-1-1.23A1.14,1.14,0,0,1,120.41,161.29Z"/><path class="cls-50" d="M121.63,140.68h0a9.55,9.55,0,0,1,0-2.51s-4.54-1.16-4.41-.27a11.74,11.74,0,0,1-.29,2.78L114.47,142s2.49,6.67,5.34,5.81,3.93-6.05,3.93-6.05Z"/><path class="cls-61" d="M117.25,138.87a2.72,2.72,0,0,0,2,.95,2.79,2.79,0,0,0,2.23-1,2.29,2.29,0,0,1-2.22,1.64A2,2,0,0,1,117.25,138.87Z"/></g></g></svg>