<svg xmlns="http://www.w3.org/2000/svg" xmlns:xlink="http://www.w3.org/1999/xlink" viewBox="0 0 175.84 95"><defs><style>.cls-1{fill:url(#linear-gradient);}.cls-2{fill:url(#linear-gradient-2);}.cls-3{fill:#fff;}.cls-4{fill:url(#linear-gradient-3);}.cls-5{fill:url(#linear-gradient-4);}.cls-6{fill:url(#linear-gradient-5);}.cls-7{fill:url(#linear-gradient-6);}.cls-8{fill:url(#linear-gradient-7);}.cls-9{fill:#f6ca69;}.cls-10{fill:#87c0f9;}.cls-11{fill:#f6c669;}.cls-12{fill:#f5bd67;}.cls-13{fill:#f2a864;}.cls-14{fill:#f7d16b;}.cls-15{fill:#d9544e;}.cls-16{fill:#bacdfa;}.cls-17{fill:#e3a98a;}.cls-18{fill:#e7e7e7;}.cls-19{fill:#303766;}.cls-20{fill:#3b3f46;}.cls-21{fill:#9f7a64;}.cls-22{fill:#afafaf;}.cls-23{fill:#454e8e;}.cls-24{fill:#5c8bf1;}.cls-25{fill:#eda358;}.cls-26{fill:#5b78ad;}.cls-27{fill:#d45d58;}.cls-28{fill:#5d7acd;}.cls-29{fill:#434343;}.cls-30{fill:#ab7640;}.cls-31{fill:#525252;}.cls-32{fill:#6e6e6e;}.cls-33{fill:#454240;}.cls-34{fill:#525887;}.cls-35{fill:#a53f3b;}.cls-36{fill:#48484d;}.cls-37{fill:#5a504a;}.cls-38{fill:#efb577;}.cls-39{fill:#f4cca7;}.cls-40{fill:#d0c2bd;}.cls-41{fill:#d39879;}.cls-42{fill:#334561;}.cls-43{fill:#e2d3cc;}.cls-44{fill:#dbd0c5;}.cls-45{fill:#b38659;}.cls-46{fill:#263448;}.cls-47{fill:#7d7067;}.cls-48{fill:#e3aa8b;}.cls-49{fill:#29435e;}.cls-50{fill:#d19d80;}</style><linearGradient id="linear-gradient" x1="91" y1="82.19" x2="90.49" y2="69.78" gradientUnits="userSpaceOnUse"><stop offset="0" stop-color="#fbebe3"/><stop offset="1" stop-color="#e9dad4"/></linearGradient><linearGradient id="linear-gradient-2" x1="37.57" y1="50" x2="53.03" y2="50" gradientUnits="userSpaceOnUse"><stop offset="0" stop-color="#6ed1e2"/><stop offset="1" stop-color="#5a7af5"/></linearGradient><linearGradient id="linear-gradient-3" x1="48.91" y1="58.63" x2="62.89" y2="58.63" xlink:href="#linear-gradient-2"/><linearGradient id="linear-gradient-4" x1="50.11" y1="60.66" x2="60.6" y2="60.66" xlink:href="#linear-gradient-2"/><linearGradient id="linear-gradient-5" x1="46.32" y1="52.22" x2="58.54" y2="52.22" xlink:href="#linear-gradient-2"/><linearGradient id="linear-gradient-6" x1="43.51" y1="69.74" x2="54.79" y2="69.74" gradientUnits="userSpaceOnUse"><stop offset="0" stop-color="#f09652"/><stop offset="1" stop-color="#f7cd60"/></linearGradient><linearGradient id="linear-gradient-7" x1="43.51" y1="69.74" x2="54.79" y2="69.74" gradientUnits="userSpaceOnUse"><stop offset="0" stop-color="#bd7640"/><stop offset="1" stop-color="#f7cd60"/></linearGradient></defs><title>discuss</title><g id="Layer_2" data-name="Layer 2"><g id="Layer_1-2" data-name="Layer 1"><path class="cls-1" d="M8,71.63H167.89S180.48,71,174,77.51s-31.56,4.95-47.09,14.26-13-4.39-33.41-5.17S10.86,84.53,10.3,78.84,1.25,71.76,8,71.63Z"/><path class="cls-2" d="M38.92,29.58c1.34-.64,2.66,3.6,2.66,3.6,2.27,3,5.43-1,5.12,3.49-.54,7.83,9,2.46,4.61,10.64s3.89,4.62,1.15,11.21S53.27,73,49.15,69.74c0,0-3.63-8-7.37-10.42s2.24-5.38,1.07-8.73c-1.7-4.85-5.8-4.66-2.84-9.88S34.39,31.74,38.92,29.58Z"/><path class="cls-3" d="M50.46,66.75c-1.79-1.26-3.88-10-4-15.23a7.32,7.32,0,0,0-1.55-4.77,4,4,0,0,1-.9-3.61c.64-3.56-1-5.09-1.06-5.11l.19-.22c.08.07,1.83,1.65,1.16,5.38a3.77,3.77,0,0,0,.85,3.39,7.69,7.69,0,0,1,1.61,4.93c.13,5.6,2.27,13.87,3.88,15Z"/><path class="cls-4" d="M51.13,67.4a3.49,3.49,0,0,1-.76-.09A1.62,1.62,0,0,1,49,66.23c-.48-1.37.63-3.61,1.54-4.69a6.93,6.93,0,0,0,1.37-4.44c0-.43-.07-.83-.11-1.18-.12-1-.2-1.75.24-2.24s1.12-.62,2.48-.62a4.92,4.92,0,0,0,4.07-1.79,4.63,4.63,0,0,1,1-.86h0c1.19-.64,2.44-.74,3-.22.26.24.48.72,0,1.62a6.21,6.21,0,0,1-1.31,1.75c-.55.56-.91.93-.72,1.67,0,.17.09.35.14.52.37,1.26.79,2.68-1.36,3.64-.45.21-.87.37-1.24.51A5,5,0,0,0,54.74,63c-.2.42-.37.81-.54,1.19C53.4,66,52.79,67.4,51.13,67.4Zm8.63-16.73a3.94,3.94,0,0,0-.92.8,5.19,5.19,0,0,1-4.29,1.88c-1.25,0-1.94.17-2.26.53s-.28,1.07-.17,2c0,.35.08.76.11,1.19a7,7,0,0,1-1.44,4.65c-.89,1.07-1.91,3.19-1.48,4.41a1.37,1.37,0,0,0,1.12.89c2,.4,2.58-.86,3.5-3,.17-.38.35-.78.55-1.2a5.27,5.27,0,0,1,3.58-3.24c.36-.15.77-.31,1.22-.51,1.91-.86,1.57-2,1.2-3.29l-.15-.53c-.23-.9.23-1.36.8-1.95a5.85,5.85,0,0,0,1.25-1.67c.2-.4.36-1,0-1.28s-1.59-.3-2.64.27Z"/><path class="cls-5" d="M50.4,69.1h-.29c0-.28.38-6.81,3-8.73a10.54,10.54,0,0,0,4.22-5.86c.5-1.79,3.1-2.26,3.21-2.28l.05.29s-2.52.46-3,2.07a10.78,10.78,0,0,1-4.33,6C50.78,62.43,50.4,69,50.4,69.1Z"/><path class="cls-6" d="M56.4,36.17c-1.86-.64-1.48,3-2.26,5.61s-8.77,1.16-5.42,7.82-4.24,2.23-2,8,.19,12,2.66,10.45,1.38-8.9,3.94-9.77,3-1.88.44-4.25,6.65-4.71,4.38-9.48S58.56,36.91,56.4,36.17Z"/><path class="cls-3" d="M50.55,67.81c-.23-1-2.24-9.75-.37-10.81,1.65-.93,1.61-4.56,1.35-8-.23-3,3.67-4.45,3.83-4.51l.1.28s-3.85,1.4-3.63,4.2c.26,3.52.29,7.25-1.5,8.27-1.42.8-.12,7.84.51,10.48Z"/><polygon class="cls-7" points="54.79 64.69 52.13 74.79 46.18 74.79 43.51 64.69 54.79 64.69"/><path class="cls-8" d="M54.79,64.69s-5.86,1.1-5.86,10.1H46.18l-2.67-10.1Z"/><polygon class="cls-9" points="89.45 33.33 76.82 33.39 76.86 42.54 76.87 44.47 78.79 42.53 89.49 42.48 89.45 33.33"/><path class="cls-3" d="M84.12,38.3a1,1,0,1,1-1-1A1,1,0,0,1,84.12,38.3Z"/><path class="cls-3" d="M87.29,38.29a1,1,0,0,1-1,1,1,1,0,0,1,0-1.93A1,1,0,0,1,87.29,38.29Z"/><path class="cls-3" d="M81,38.31a1,1,0,1,1-1-1A1,1,0,0,1,81,38.31Z"/><polygon class="cls-10" points="85.7 8.3 98.33 8.36 98.29 17.52 98.28 19.45 96.36 17.51 85.66 17.46 85.7 8.3"/><path class="cls-3" d="M91,13.27a1,1,0,0,0,1,1,1,1,0,1,0,0-1.93A1,1,0,0,0,91,13.27Z"/><path class="cls-3" d="M87.86,13.26a1,1,0,1,0,1-1A1,1,0,0,0,87.86,13.26Z"/><path class="cls-3" d="M94.12,13.28a1,1,0,1,0,1-1A1,1,0,0,0,94.12,13.28Z"/><polygon class="cls-9" points="145.29 5.79 127.33 5.88 127.39 18.89 127.41 21.63 130.14 18.88 145.35 18.81 145.29 5.79"/><path class="cls-3" d="M137.72,12.86a1.38,1.38,0,1,1-1.38-1.37A1.38,1.38,0,0,1,137.72,12.86Z"/><path class="cls-3" d="M142.22,12.84a1.37,1.37,0,1,1-1.37-1.36A1.37,1.37,0,0,1,142.22,12.84Z"/><path class="cls-3" d="M133.32,12.87a1.38,1.38,0,1,1-1.38-1.36A1.37,1.37,0,0,1,133.32,12.87Z"/><polygon class="cls-10" points="174.31 15.4 158.5 15.47 158.56 26.93 158.57 29.34 160.97 26.91 174.36 26.85 174.31 15.4"/><path class="cls-3" d="M167.64,21.62a1.21,1.21,0,1,1-1.21-1.21A1.21,1.21,0,0,1,167.64,21.62Z"/><path class="cls-3" d="M171.6,21.61a1.21,1.21,0,1,1-1.21-1.21A1.21,1.21,0,0,1,171.6,21.61Z"/><path class="cls-3" d="M163.77,21.63a1.21,1.21,0,1,1-1.21-1.2A1.21,1.21,0,0,1,163.77,21.63Z"/><polygon class="cls-10" points="0.06 15.36 19.02 15.45 18.96 29.19 18.95 32.08 16.07 29.18 0 29.1 0.06 15.36"/><path class="cls-3" d="M8.06,22.82a1.45,1.45,0,1,0,1.46-1.45A1.47,1.47,0,0,0,8.06,22.82Z"/><path class="cls-3" d="M3.31,22.8a1.45,1.45,0,1,0,2.89,0,1.45,1.45,0,1,0-2.89,0Z"/><path class="cls-3" d="M12.71,22.83a1.45,1.45,0,1,0,1.45-1.44A1.44,1.44,0,0,0,12.71,22.83Z"/><path class="cls-9" d="M68,34.28a2,2,0,0,0-3.78-1.39,1.25,1.25,0,0,0-.08.28l0,.2a13.2,13.2,0,0,0,.47,4.37,13.14,13.14,0,0,0,3.19-3,1.74,1.74,0,0,0,.11-.18A1.17,1.17,0,0,0,68,34.28Zm-2.32.48A1.25,1.25,0,1,1,67.27,34,1.25,1.25,0,0,1,65.66,34.76Z"/><path class="cls-9" d="M154.4,6.29l-2.28-1a.37.37,0,1,1,.3-.68l1.61.7,1.16-2.58a.37.37,0,0,1,.49-.18.37.37,0,0,1,.18.49Z"/><path class="cls-9" d="M157,8.46A4.66,4.66,0,1,1,158.12,2,4.66,4.66,0,0,1,157,8.46Zm-5-7.07a4,4,0,1,0,5.56,1A4,4,0,0,0,152,1.39Z"/><rect class="cls-11" x="54.68" y="22.52" width="6.18" height="4.23" transform="translate(6.1 -11.06) rotate(11.54)"/><polygon class="cls-12" points="54.32 26.09 57.83 24.39 60.38 27.33 54.32 26.09"/><polygon class="cls-13" points="61.23 23.18 57.67 25.15 55.17 21.95 61.23 23.18"/><path class="cls-9" d="M144.92,24.91a2.31,2.31,0,0,0-2.13,1.41,2.31,2.31,0,0,0-2.55.24c-1.22,1-.59,2-.59,2,.86,2.11,5,3.18,5,3.18s2.59-3.45,1.94-5.64C146.63,26.09,146.51,24.93,144.92,24.91Z"/><path class="cls-14" d="M37,24.15a1.44,1.44,0,0,1-.87,0,1,1,0,0,1-.66-.59,6.1,6.1,0,0,0-1-1.37A2.81,2.81,0,1,1,38,18.63,2.79,2.79,0,0,1,37.68,21a6.32,6.32,0,0,0,.24,1.57,1.22,1.22,0,0,1-.79,1.53ZM34.52,17a2.58,2.58,0,0,0,.1,4.94h0l0,0a6.78,6.78,0,0,1,1,1.45h0a.83.83,0,0,0,.52.46,1.19,1.19,0,0,0,.81,0,1,1,0,0,0,.67-1.24h0A6.24,6.24,0,0,1,37.45,21v0l0,0A2.58,2.58,0,0,0,34.52,17Z"/><polygon class="cls-14" points="36.18 23.46 34.69 20.76 35.48 21.01 35.67 20.45 36.15 20.7 36.51 20.01 37.33 22.99 37.11 23.05 36.44 20.64 36.24 21.02 35.8 20.78 35.62 21.3 35.16 21.15 36.38 23.34 36.18 23.46"/><rect class="cls-14" x="36.18" y="23.82" width="1.99" height="0.8" transform="translate(-6.35 15.59) rotate(-21.87)"/><rect class="cls-14" x="35.64" y="23.04" width="2.63" height="1.29" transform="translate(-6.16 15.47) rotate(-21.87)"/><path class="cls-15" d="M173.19,50.21c0,15.85-.45,19-4.43,22.51-1.56,1.39-4.43,4.28-12.7,5.72a62.41,62.41,0,0,1-9,.82,28.55,28.55,0,0,1-4-.15,21.85,21.85,0,0,1-2.83-.49c-9.1-2.28-9.78-10.07-5.8-16.62a37.51,37.51,0,0,1,3.52-4.82c2-2.3,4-4.34,5.92-6.24a42.36,42.36,0,0,0,4.47-5,12.76,12.76,0,0,0,1.2-2l.22-.48c.25-.51.5-1,.75-1.48.48-.89,1-1.71,1.43-2.43s.74-1.11,1.08-1.58a26.3,26.3,0,0,1,2-2.5,3.18,3.18,0,0,1,.31-.14l.39-.15.2-.08.22-.08.22-.07.27-.1.17,0,.11,0,0,0a18.46,18.46,0,0,1,4.56-.8C166.71,33.71,173.19,36.28,173.19,50.21Z"/><path class="cls-16" d="M152,74.08a10,10,0,0,0,.3,1.53c.17.47,1.11,1.55.71,2.59s-2.3,0-3.07-.3-.59-1-.67-1.74-.45-.78-.31-1.32a6.29,6.29,0,0,1,1-1.57Z"/><path class="cls-17" d="M150.33,72.72s-.48.67-.47.69,2.06,1.26,2.2.86a4.42,4.42,0,0,0,.16-.79Z"/><path class="cls-16" d="M143.41,74.83a7.41,7.41,0,0,0-1.19,1.38c-.55.84-2,.89-2.1,2s2,1.18,3.11.81,1.26-1.49,1.92-1.77,1-.51.95-1a6.77,6.77,0,0,0-.41-1.44A3.61,3.61,0,0,1,145,75,5.23,5.23,0,0,1,143.41,74.83Z"/><path class="cls-18" d="M150.9,43.79s-.42,2.49-.75,4.14h0a9.27,9.27,0,0,1-.34,1.36A18.59,18.59,0,0,1,148,51.34c-1.69,1.74-3.92,3.93-3.92,3.93l-.87-1.66s2-2.32,3.33-3.88c.62-.71,1.1-1.26,1.19-1.34.28-.26.61-2.73,1.07-4.77a8.33,8.33,0,0,1,1.37-3.17Z"/><path class="cls-17" d="M148,51.34c-1.69,1.74-3.92,3.93-3.92,3.93l-.87-1.66s2-2.32,3.33-3.88A2.86,2.86,0,0,1,148,51.34Z"/><path class="cls-17" d="M143.51,74.06l-.1.77a3.76,3.76,0,0,0,2.28,0l0-.67Z"/><path class="cls-18" d="M158.9,54.93c.06.22-11.49,0-11.49,0s3.2-2.33,3.4-3-.81-4.34-.94-5.56c-.11-1-.38-5.31.26-6A10.71,10.71,0,0,1,153.21,39l3.51.13a5.47,5.47,0,0,1,1,.31c.42.19,2.79,1,3.17,2.22s-2.36,5-2.36,5l0,.45h0c0,.37,0,.94,0,1.56,0,.79,0,1.67,0,2.31A23.16,23.16,0,0,0,158.9,54.93Z"/><path class="cls-19" d="M158.9,54.93s1.57,2.31,1.59,3.88-2.79,6.85-3.21,7.61c-1.28,2.26-4.78,7.16-4.78,7.16a9.6,9.6,0,0,1-2.49-.75s2.33-6.46,2.62-7.13c1.26-2.85,2-4.87,1.53-5.36a14.78,14.78,0,0,0-1.9-1.26c-.33-.29-6.13,1.09-6.73,1.25-1.58.41-.86,3.14-.51,4.37.58,2,1.09,9.47,1.09,9.47a5.42,5.42,0,0,1-3,.07s-3.68-13.38-3.8-14.71-.18-3.53,8.9-5.2Z"/><path class="cls-17" d="M154.17,31.4s-3-.68-2.35,3.15,1.43,4.14,3.27,3.34,1.67-3.25,1.76-4.45S155.15,31.45,154.17,31.4Z"/><path class="cls-17" d="M153.37,40a2.72,2.72,0,0,0,3.48.13,20.63,20.63,0,0,1-.23-4.61c.25-1.51-2.78,2.34-2.78,2.34s.07.17.07.37a3.42,3.42,0,0,1,0,.62C153.82,39.36,153.66,39.89,153.37,40Z"/><path class="cls-20" d="M156.71,35.41s-.08-1.21-.52-1.25-.51.45-.51.45l-.45.08s.14-1.06-.3-1.24-2.85.58-3.21.27-.18-2.46.46-2.75,2.4-.95,3.7-.08c0,0,1-.11,1.15.7A11.32,11.32,0,0,1,156.71,35.41Z"/><path class="cls-21" d="M153.88,38.86c2.2-.68,2.37-2,2.37-2a3.31,3.31,0,0,1-2.34,1.41A3.42,3.42,0,0,1,153.88,38.86Z"/><path class="cls-17" d="M157.75,39.49s-1.61,3.21-4.21,3-.45-3.43-.33-3.46A6.66,6.66,0,0,1,157.75,39.49Z"/><path class="cls-18" d="M146.09,54.77s8,1,12.81.16l-9.23-1.15S149.61,54,146.09,54.77Z"/><path class="cls-17" d="M152.06,53.41l-.6.3a2.76,2.76,0,0,0,.46,1.23l.67-.17A2.81,2.81,0,0,0,152.06,53.41Z"/><path class="cls-18" d="M161.28,51.48a28.25,28.25,0,0,1-3.45,1.45h0c-2.42.93-5.15,1.81-5.15,1.81l-.62-1.33s2.85-1.55,4.79-2.64a18.6,18.6,0,0,0,1.71-1c.31-.3.39-.77.17-1.6s-.76-4.63-.82-5.07.15-1.63,1.26-1.69a3.38,3.38,0,0,1,1.67.26s.28.11.49,2.81S161.57,51.16,161.28,51.48Z"/><path class="cls-22" d="M158.5,47.13h0c0,.37,0,.94,0,1.56a7.78,7.78,0,0,1-.44-4.81A15.48,15.48,0,0,0,158.5,47.13Z"/><path class="cls-22" d="M150.15,47.93h0a9.27,9.27,0,0,1-.34,1.36,14.12,14.12,0,0,1,0-4.08A22.31,22.31,0,0,0,150.15,47.93Z"/><path class="cls-17" d="M157.83,52.93h0c-2.42.93-5.24,1.84-5.24,1.84l-.53-1.36s2.85-1.55,4.79-2.64C156.85,50.77,157.55,51.11,157.83,52.93Z"/><polygon class="cls-23" points="151.88 54.85 140.55 54.69 146.27 57.59 151.88 54.85"/><polygon class="cls-19" points="146.27 57.59 151.88 55.42 151.88 54.85 145.83 57.04 146.27 57.59"/><path class="cls-17" d="M151.59,53.73s-.71-.11-1.2-.22a2.39,2.39,0,0,0-1.56.28c-.24.24-1,1.93-1.14,2s.07.34.32.22c0,0,.24.74.81.46s1-.88,1.26-1l2.06-.64S152,53.55,151.59,53.73Z"/><path class="cls-17" d="M149,53.68a6.14,6.14,0,0,0-.58.31l-.71.55c-.12.08.17.32,1,0S149,53.68,149,53.68Z"/><polygon class="cls-19" points="146.27 57.59 142.9 48.39 132.03 48.56 135.25 57.05 146.27 57.59"/><path class="cls-24" d="M139.42,52.46c.33.66.23,1.38-.22,1.61s-1.09-.12-1.43-.79-.23-1.38.23-1.61S139.09,51.8,139.42,52.46Z"/><path class="cls-17" d="M155.69,34.1c0-.34.71-.47.76,0s-.3,1.4-.56,1.31S155.63,34.56,155.69,34.1Z"/><path class="cls-25" d="M88.66,70.77c-.08.54-3.32,2.81-4,3.26a6.82,6.82,0,0,1-1.73.82h0c-1.76.46-12.79,3.75-12.79,3.75a1.22,1.22,0,0,0-.1-.33c-.42.16-.84.27-1.11.35s-3.67.24-4.34.36-2,.34-2.54-.18.34-1.61,1.08-1.9a27.2,27.2,0,0,1,4-.41,4.8,4.8,0,0,1,1.44-.12,3.79,3.79,0,0,0,1.07-.29c0-.2,0-.32,0-.32l2.9-.84L72,69.8s1.26-4.75,6.3-1.13c0,0,1.12.33,1.51.43h.12c.77-.06,4.07-1.06,5.27-1.06s1.69-.08,2.15.15A4.68,4.68,0,0,1,88.66,70.77Z"/><path class="cls-25" d="M83.5,78.8c-.54.52-1.87.31-2.54.18s-3.93-.23-4.34-.36A6.36,6.36,0,0,1,74.9,78a1.18,1.18,0,0,0-.29-.13h0l-.81.59L62.46,74.81A4,4,0,0,1,60.89,74c-.59-.51-3.88-2.72-4-3.26a4.68,4.68,0,0,1,1.34-2.57c.46-.23.87-.15,2.16-.15s5,1.16,5.39,1a5.32,5.32,0,0,0,.88-.42c.41-.22.79-.45.79-.45,5.51-2.46,6.13,1.57,6.13,1.57l-.33,5,1.06.51,2.73.77-.36.26a.84.84,0,0,0,.31.06,4.8,4.8,0,0,1,1.44.12,27.2,27.2,0,0,1,4,.41C83.17,77.19,84,78.29,83.5,78.8Z"/><path class="cls-26" d="M66.7,68.68a30.4,30.4,0,0,1,3.55,1.87,41.48,41.48,0,0,0-4.43-1.45A5.32,5.32,0,0,0,66.7,68.68Z"/><path class="cls-26" d="M79.9,69.11a47.28,47.28,0,0,0-5.23,1.52,13.23,13.23,0,0,1,3.54-2s1.18.37,1.57.47Z"/><path class="cls-17" d="M83.5,78.8c-.54.52-1.87.31-2.54.18s-3.93-.23-4.34-.36l-.43-.12h0A5.13,5.13,0,0,1,74.9,78a1.18,1.18,0,0,0-.29-.13l2-1.48.06,0a.84.84,0,0,0,.31.06,4.8,4.8,0,0,1,1.44.12,27.2,27.2,0,0,1,4,.41C83.17,77.19,84,78.29,83.5,78.8Z"/><path class="cls-3" d="M83.5,78.8c-.54.52-1.87.31-2.54.18s-3.93-.23-4.34-.36l-.43-.12h0a2.16,2.16,0,0,0,.47-2.15l.06,0a.84.84,0,0,0,.31.06,4.8,4.8,0,0,1,1.44.12,27.2,27.2,0,0,1,4,.41C83.17,77.19,84,78.29,83.5,78.8Z"/><path class="cls-27" d="M67.82,69.82a0,0,0,0,1,0,0S67.77,69.87,67.82,69.82Z"/><path class="cls-28" d="M82.65,63.82a49.19,49.19,0,0,1-3-5.45,4.75,4.75,0,0,0-2.87-2.68l-1.2-.39-1.82-.59h-3l-2.14.74h0c-1,.35-2.08.74-2.45.92-.75.38-2,3.06-2.27,3.37a26.42,26.42,0,0,0-2.52,5.38c-.22,1.09,6.26,4.29,6.44,4.7C68,69.59,69,68.68,69,68.68l-.73-.47c1.74.08,6-.07,6.59,0a2.54,2.54,0,0,0,.39,0h0c.19.13,1.4,1.21,1.4,1.21A16.92,16.92,0,0,0,81,66.74C83,64.76,82.87,64.25,82.65,63.82Zm-17,2.43c-.64-.77-1.53-1.24-1.3-1.58s2.1-3.59,2.1-3.59a26,26,0,0,1,1.25,3.25,3.72,3.72,0,0,1,.14,2,4.81,4.81,0,0,0-.28,1.44A11.89,11.89,0,0,1,65.63,66.25Zm13.24-.37a12.87,12.87,0,0,1-2.14,1.44c-.07-.62-.18-1.6-.19-1.95A9,9,0,0,1,77,62.74a10.29,10.29,0,0,0,.46-2.18s2.27,3.08,2.63,3.41S79.72,64.92,78.87,65.88Z"/><path class="cls-17" d="M72.61,46.48s2.35.37,2,4S72.18,53.88,72,53.87s-2.08.07-2.23-4.4C69.81,49.47,69.75,46.16,72.61,46.48Z"/><path class="cls-17" d="M74.64,49.48s.25-.27.35,0a5.57,5.57,0,0,1-.37,1.58s-.05.1-.11,0A13.63,13.63,0,0,1,74.64,49.48Z"/><path class="cls-17" d="M69.87,49.43s-.25-.28-.35,0A5.64,5.64,0,0,0,69.86,51s0,.11.11.05A14,14,0,0,0,69.87,49.43Z"/><path class="cls-29" d="M74.63,50l-.33.45a8.12,8.12,0,0,0,0-1.14c0-.15-.13-.62-.18-.73a5,5,0,0,0-3.74.16s.07.71-.09.77-.09,1.15-.09,1.15l-.27-.31a23.35,23.35,0,0,1-.32-3.11c.1-.3.43-2.06,4-1,0,0,1.11-.23,1.33.54A12.26,12.26,0,0,1,74.63,50Z"/><path class="cls-30" d="M69.17,73.47A28.11,28.11,0,0,0,64,71a4.2,4.2,0,0,1-2-.87,7.83,7.83,0,0,1,3.92,1.11C67,72,69.17,73.47,69.17,73.47Z"/><path class="cls-30" d="M72.35,75s6.24-3.28,8.78-4a5.73,5.73,0,0,0,2-.87A18,18,0,0,0,77,71.9C75.84,72.57,72.35,75,72.35,75Z"/><path class="cls-17" d="M70.08,78.27c-.42.16-.84.27-1.11.35s-3.67.24-4.34.36-2,.34-2.54-.18.34-1.61,1.08-1.9a27.2,27.2,0,0,1,4-.41,4.8,4.8,0,0,1,1.44-.12,3.79,3.79,0,0,0,1.07-.29C69.65,76.41,70.08,78.27,70.08,78.27Z"/><path class="cls-25" d="M72.35,78l6.13-1.81-1.21-.37S72.37,77.55,72.35,78Z"/><polygon class="cls-30" points="72.35 77.96 75.22 77.08 73.23 78.24 72.35 77.96"/><path class="cls-31" d="M70.38,70.63l-.13-.08Z"/><path class="cls-3" d="M69,78.62c-.41.13-3.67.24-4.34.36s-2,.34-2.54-.18.34-1.61,1.08-1.9a27.2,27.2,0,0,1,4-.41,4.8,4.8,0,0,1,1.44-.12A1.68,1.68,0,0,0,69,78.62Z"/><path class="cls-31" d="M66.94,70.11,66,64.74l12.21-.28-.78,5.28A44.3,44.3,0,0,0,72.2,72S68.86,70.63,66.94,70.11Z"/><path class="cls-32" d="M72.92,68a.75.75,0,0,1-.68.8.81.81,0,0,1,0-1.6A.75.75,0,0,1,72.92,68Z"/><path class="cls-17" d="M73.79,54.72h0a9.37,9.37,0,0,1-.07-1.91s-3-.76-2.9-.18a10.23,10.23,0,0,1-.26,2.16L69,55.31s1.63,4.37,3.51,3.81,2.58-4,2.58-4Z"/><path class="cls-21" d="M70.87,53.28a1.72,1.72,0,0,0,1.3.6,1.85,1.85,0,0,0,1.47-.67,1.53,1.53,0,0,1-1.47,1.09S71.28,54.43,70.87,53.28Z"/><path class="cls-33" d="M122.22,20.25a2.3,2.3,0,0,1,2.36,1.49c.63,1.67,1.21,2.22,1.29,3.1.29,3.56,2,2.75,1.49,4.8a6.15,6.15,0,0,1-.79,2.36l-4-.78-4,0a2.32,2.32,0,0,0,1.23-2.46c-.35-1.68-1.23-4.42-.73-6.29S121.19,20.39,122.22,20.25Z"/><path class="cls-15" d="M121.13,75.2s-1.25,1.71-1.07,2,1.53.31,2.36,0,.85-2.36,1.22-3.23c.16-.37-.18-1.45-.65-1.53a2.07,2.07,0,0,0-1,.17A2.56,2.56,0,0,1,121.13,75.2Z"/><path class="cls-17" d="M122,72.6a11.46,11.46,0,0,1-.26,1.38c-.16.57-1,1.87-1,2a1.52,1.52,0,0,0,1.53-.11,4.2,4.2,0,0,0,.81-2.29,3.78,3.78,0,0,0-.1-1.18A1,1,0,0,0,122,72.6Z"/><polygon class="cls-15" points="123.64 73.96 123.64 75.78 123.41 75.78 123.41 74.37 123.64 73.96"/><path class="cls-15" d="M124.38,75.2s-1.24,1.71-1.06,2,1.53.31,2.36,0,.84-2.36,1.22-3.23c.16-.37-.18-1.45-.65-1.53a2.07,2.07,0,0,0-1,.17A2.55,2.55,0,0,1,124.38,75.2Z"/><path class="cls-17" d="M125.23,72.6A11.46,11.46,0,0,1,125,74c-.16.57-1,1.87-1,2a1.52,1.52,0,0,0,1.53-.11,4.28,4.28,0,0,0,.81-2.29,3.78,3.78,0,0,0-.1-1.18A1,1,0,0,0,125.23,72.6Z"/><polygon class="cls-15" points="126.9 73.96 126.9 75.78 126.66 75.78 126.66 74.37 126.9 73.96"/><path class="cls-17" d="M118.84,44.26s-.94,5.19-1.2,6.49-1,7.58-1,8.65,2.32,6.21,2.47,6.57a58.58,58.58,0,0,1,2.8,7.28s.82.51,1.2-.1c.12-.19-1.54-7-1.81-8.89s-.92-4.47-.74-5.08,1.81-9.11,2.11-9.47.76.2.94,1,.56,7.61.79,8.48,0,3.79.18,5.27.66,8.36.66,8.36,1,.19,1.12,0,1-7.65,1-9.41,0-4.17.1-4.93c.47-7.28,1.36-8.23-.19-13.47C123.44,32.2,118.84,44.26,118.84,44.26Z"/><path class="cls-25" d="M118.84,44.26s-.94,5.19-1.2,6.49-1,7.58-1,8.65,2.24,6.21,2.29,6.59,2,5.85,2,5.85,1.92,0,2.45-.53c.1-.1-1.77-5.16-2-7s-.92-4.47-.74-5.08,1.81-9.11,2.11-9.47.76.2.94,1,.56,7.61.79,8.48,0,3.79.18,5.27-.14,6.72-.14,6.72a14.42,14.42,0,0,0,2.62,0c.11-.17.29-6,.32-7.72s0-4.17.1-4.93c.47-7.28,1.36-8.23-.19-13.47C123.44,32.2,118.84,44.26,118.84,44.26Z"/><path class="cls-15" d="M127.62,46c.15-.06-1-4-1.26-5.12s-.93-2-.23-3.8a6.81,6.81,0,0,0,.38-2.24,25.81,25.81,0,0,1,1.17,3c.1.61-3.71-.5-3.76-.42a6.45,6.45,0,0,0-.21,1.55c0,.29,5.53,1.6,6.18.44.19-.33-1-6.61-1.79-7.45-1.27-1.37-4.61-2.54-4.61-2.54a3.48,3.48,0,0,0-2.53,0,15,15,0,0,0-4.26,2.48c-.39.41-2,6.55-2.09,7.34s-.07,2.32,1.63,2.12l4.61-1.06-.29-1.4-3.45.27c-.71.12-.37-.49-.28-.84s1-3.46,1-3.46a21.19,21.19,0,0,0,.94,4.69c.34,1-.41,6.25-.46,6.83C118.27,46.39,121,48.67,127.62,46Z"/><path class="cls-17" d="M124.24,29.7a11.07,11.07,0,0,1-2.09,3s-1.7-2.56-1.62-3.15A4.61,4.61,0,0,1,124.24,29.7Z"/><path class="cls-17" d="M124.28,37.6a2.14,2.14,0,0,1-.67-.4,1,1,0,0,0-1-.2c-.34.1-.15,1.58-.15,1.58l1.82.24Z"/><path class="cls-17" d="M121,38.74a6.2,6.2,0,0,0,.13-1.14c0-.18.32-.35.36.08l.08.72Z"/><path class="cls-34" d="M121.74,39.4l1.33,0a.32.32,0,0,0,.3-.32l0-2.9a.33.33,0,0,0-.33-.33l-1.59.06a.32.32,0,0,0-.31.34l.23,2.91A.31.31,0,0,0,121.74,39.4Z"/><path class="cls-17" d="M121,38.81s0-.27.5-.52a4.75,4.75,0,0,1,1.78-.58c.23.13.11.3-.33.44l-.58.2a3.41,3.41,0,0,1,1.05,0c.19.1.2.34.06.38s-.47.06-.47.06.36,0,.4.16,0,.26-.3.33a.25.25,0,0,1-.12.42,5.77,5.77,0,0,1-1.31.37,14.64,14.64,0,0,1-2.16,0l.62-1a1.73,1.73,0,0,0,.58,0C121,38.92,121,38.81,121,38.81Z"/><polygon class="cls-15" points="120.56 38.9 120.85 40.3 117.91 40.98 117.8 39.12 120.56 38.9"/><path class="cls-15" d="M123.92,37.41a3.75,3.75,0,0,0-.21,1.55,17.41,17.41,0,0,0,3.23.82V38Z"/><path class="cls-35" d="M120.85,40.3l-2.06,1.15c0-.24,0-.47,0-.68Z"/><path class="cls-35" d="M126.26,40.46a7.4,7.4,0,0,1-2.5-1.44l-.05-.06,2.34.68h0C126.11,39.93,126.19,40.19,126.26,40.46Z"/><path class="cls-17" d="M122.45,21.22s2.3.34,2,3.72-2.36,3.12-2.5,3.12-2,.07-2.19-4.06C119.72,24,119.64,20.94,122.45,21.22Z"/><path class="cls-17" d="M123.47,27.46a5.88,5.88,0,0,0,.2,2.29c.34.53-.29,1.25-1.59,1s-1.22-1-1.22-1a5.52,5.52,0,0,0,.26-2C121,26.94,123.47,27.46,123.47,27.46Z"/><path class="cls-33" d="M122.19,22.45s1.07,1.13,1.57,1.7a3.31,3.31,0,0,1,.56,1.68,2.67,2.67,0,0,0,.48-2.22c-.35-1.2-1.18-3.52-3.28-2.81s-2.18,3.86-1.93,5.41C119.59,26.21,120.53,22.78,122.19,22.45Z"/><path class="cls-21" d="M121.28,27.91a2,2,0,0,0,1.93-.22,1.24,1.24,0,0,1-1,.62A1,1,0,0,1,121.28,27.91Z"/><path class="cls-33" d="M121,28.52s-3.16,2.81-2.34,4.57a1.5,1.5,0,0,0,2.77-1A17.56,17.56,0,0,1,121,28.52Z"/><path class="cls-36" d="M121.81,36.42a.2.2,0,0,1-.2.19.19.19,0,0,1-.19-.19.19.19,0,0,1,.19-.2A.2.2,0,0,1,121.81,36.42Z"/><polygon class="cls-37" points="36.4 75.45 34.09 60.12 34.53 60.05 36.84 75.38 36.4 75.45"/><polygon class="cls-37" points="33.58 75.45 31.28 60.12 31.72 60.05 34.02 75.38 33.58 75.45"/><polygon class="cls-37" points="19.72 75.45 19.28 75.38 21.58 60.05 22.02 60.12 19.72 75.45"/><path class="cls-38" d="M34.81,60.28l1.81-19A36.66,36.66,0,0,0,31.55,41L28.68,60.28Z"/><rect class="cls-38" x="28.68" y="59.31" width="6.13" height="0.97"/><path class="cls-38" d="M24.68,59.5l-1-18.1s8-.86,12.9-.12Z"/><path class="cls-39" d="M31.06,35.54s1.23-3.61-1.12-4.74a3.65,3.65,0,0,0-4.74,1.38,6.37,6.37,0,0,0,.05,3.59c.32,1.11.27,2.8-.43,3.37a3.94,3.94,0,0,0-1.52,3.42c0,1.19,4.67-3,4.67-3Z"/><path class="cls-40" d="M27.91,74.48s-.07,2.56.3,2.71,1.74-.74,2.35-1.61-.76-2.93-1-4.06c-.09-.47-1.16-1.32-1.69-1.08a2.52,2.52,0,0,0-.9.87A3.08,3.08,0,0,1,27.91,74.48Z"/><path class="cls-41" d="M27,71.31a13.75,13.75,0,0,1,.68,1.55c.24.68.28,2.55.43,2.68s1.3-.45,1.46-1.15a5.13,5.13,0,0,0-.77-2.84,4.42,4.42,0,0,0-.9-1.11A1.14,1.14,0,0,0,27,71.31Z"/><polygon class="cls-40" points="29.57 71.52 30.82 73.34 30.58 73.5 29.62 72.09 29.57 71.52"/><path class="cls-41" d="M25.09,51.44a1.7,1.7,0,0,1,0,1.78c-.6.74-4.7,2.8-4.67,4a10.25,10.25,0,0,0,1,3.51c.27.47,1.27,2.43,1.78,3.57s3.5,6.62,4.09,7.86.22-4.94.22-4.94l-3-8.75,7-6.8S30.71,49.78,25.09,51.44Z"/><path class="cls-42" d="M27.75,39.85a13.52,13.52,0,0,0-2.71.88c-.76.44-2.47,2.51-2.47,3.4S30,45.84,30,45.84L31.44,51s3.78-.92,4.22-1.69S34.18,43.13,33.91,42s-1.68-1.91-3.25-2.13A10.79,10.79,0,0,0,27.75,39.85Z"/><path class="cls-17" d="M32.32,51.61s-.13.88.23,1.26,2,2.55,1.13,4.69a2.68,2.68,0,0,1-2.36,1.93H28.91a25.65,25.65,0,0,1,.47,5.88c-.23,2.33-1.29,7.67-1.31,7.93s-1,1.12-1.32.69c0,0,0-3.21-.18-4.42s-.83-6.06-1-6.78-1.39-2.9-1.39-3.12S23,55.93,25.52,55,29,51.63,32.32,51.61Z"/><path class="cls-43" d="M25.55,76.46s-1.66,2-1.48,2.3,1.83.52,2.85.22,1.25-2.75,1.78-3.77c.23-.43-.07-1.77-.63-1.91a2.53,2.53,0,0,0-1.25.11A3.08,3.08,0,0,1,25.55,76.46Z"/><path class="cls-17" d="M26.82,73.41a15.56,15.56,0,0,1-.44,1.64C26.13,75.72,25,77.2,25,77.4a1.84,1.84,0,0,0,1.86,0,5.09,5.09,0,0,0,1.19-2.69,4.58,4.58,0,0,0,0-1.43A1.17,1.17,0,0,0,26.82,73.41Z"/><polygon class="cls-43" points="28.7 75.21 28.53 77.4 28.24 77.38 28.38 75.68 28.7 75.21"/><path class="cls-42" d="M33.68,57.56a2.59,2.59,0,0,1-2.36,1.93H28.91a4.81,4.81,0,0,0-3.48-1.87,7.41,7.41,0,0,0-1.86.05h0c-3.28.49-2.65,1.69-2.64,1.72a6.06,6.06,0,0,1-.49-2.29c.32-2.59,4.07-3.14,4.67-3.88a1.7,1.7,0,0,0,0-1.78c5.62-1.66,6.46.22,6.46.22.25,0,.88-.39,1.15-.4,0,0,.28.62.47,1.17S34.51,55.4,33.68,57.56Z"/><polygon class="cls-44" points="31.36 43.29 32.19 51.01 21.25 51.01 20.43 43.29 31.36 43.29"/><rect class="cls-44" x="31.23" y="50.31" width="1.83" height="0.69"/><rect class="cls-45" x="13.72" y="51.01" width="30.11" height="1.05"/><path class="cls-17" d="M29,31.42s2.45.73,2.1,4.12-1.95,3.23-2.1,3.25-2.05.15-2.65-4S29,31.42,29,31.42Z"/><path class="cls-17" d="M30.12,38.17A5.82,5.82,0,0,0,30.21,40c.22.7-2.85.72-2.85.15a6,6,0,0,0,0-2.32C27.09,36.7,30.12,38.17,30.12,38.17Z"/><path class="cls-39" d="M28.33,32.94s1.33,2.11,2.73,2.6c0,0,.76-3.55-2.4-4.29S26,34.84,26.24,36A9.2,9.2,0,0,1,28.33,32.94Z"/><path class="cls-21" d="M27.74,38.31a1.66,1.66,0,0,0,2.21.11s-.1.64-1,.72A1.24,1.24,0,0,1,27.74,38.31Z"/><path class="cls-46" d="M26.54,32.62s.7-1.36,1.88-1.42a2.33,2.33,0,0,1,1.89,1A2,2,0,0,0,28.43,31C27,31,26.54,32.62,26.54,32.62Z"/><path class="cls-17" d="M30.52,39.83s0,2.35-1.9,2.42S27.14,40,27.14,40A6.39,6.39,0,0,1,30.52,39.83Z"/><rect class="cls-47" x="43.06" y="52.06" width="0.77" height="24.14"/><rect class="cls-47" x="13.72" y="52.06" width="0.77" height="24.14"/><path class="cls-17" d="M105,30.72s2.4.71,2.25,4S105,30.72,105,30.72Z"/><path class="cls-17" d="M104.8,30.72s.19.25,0,1.88a7.7,7.7,0,0,0,.25,3c.06.67.85,5,.87,5.22a14.89,14.89,0,0,0,.43,3.12c.31.62,2.58,4.1,2.61,4.28s1.1-.61,1.1-.61-2-4.23-2.17-4.65a13.15,13.15,0,0,1-.69-2.48c-.08-1.64.07-5.45,0-6.29C107.07,32.61,105.84,31,104.8,30.72Z"/><path class="cls-48" d="M107.85,44.63s.36.78.57.83.46.31.64.39.75.12.91.27a5.48,5.48,0,0,0,.44.69c.14.11.45.3.35.42s-.42,0-.42,0a.22.22,0,0,1,.07.24c-.1.26-.27.27-.27.27s.06.19,0,.28a.43.43,0,0,1-.32.21.44.44,0,0,1-.14.27.41.41,0,0,1-.38.06s-.17.23-.33.19a1.52,1.52,0,0,1-.35-.23,5.32,5.32,0,0,1-1.18-1.8,6.44,6.44,0,0,0-.79-1.52Z"/><rect class="cls-49" x="104.54" y="38.86" width="6.75" height="11.26" transform="translate(74.5 -67.35) rotate(50.96)"/><path class="cls-50" d="M110.3,47.15s-.68-.75-1-.74-.1.3-.1.3-.23-.28-.47-.13.05.47.05.47a.28.28,0,0,0-.4.06c-.18.24.11.45.11.45s-.44-.06-.35.3a1.62,1.62,0,0,0,.83.92s.19,0,.34-.19a.4.4,0,0,0,.54-.32s.48-.12.33-.51A.35.35,0,0,0,110.3,47.15Z"/><path class="cls-39" d="M102.83,21.21a3,3,0,0,0-3.37,3.36c.1,3.64.68,4.19,0,6.76s3.38-1.46,3.38-1.46Z"/><path class="cls-48" d="M99.06,43.73a15.64,15.64,0,0,0-1.73,2.7,13.9,13.9,0,0,0-1.1,5.26c.1,1.82.7,5.25.53,6s-.35,2.38-.54,2.93a12.51,12.51,0,0,0-1,3.8c-.08,1.65,1.05,8.91,1,9.58s1.27.28,1.27.28.45-6.56.7-7.68.55-5,.78-5.23a12.72,12.72,0,0,0,.74-3.58c-.09-.45,2.46-7.2,2.61-8.55s3.91-5.53,3.91-5.53A11.65,11.65,0,0,0,99.06,43.73Z"/><path class="cls-48" d="M105.15,43.73a6.75,6.75,0,0,0,.14.93,75.72,75.72,0,0,1,2,9.08c.18,2.45.63,4.53.7,5a10.65,10.65,0,0,1-.22,2.73c-.15.45.75,11.08.82,11.33s-.6.32-1.07.25-2.88-7.81-2.73-9.11a15.82,15.82,0,0,0-.12-5.2c-.43-1.13-4.26-9.28-4.28-9.78S98.7,39.9,105.15,43.73Z"/><path class="cls-48" d="M97.46,73.5a5.11,5.11,0,0,0,.26,1.1c.13.23.5,1.43.67,1.66s.54,1.9,0,2.11-1.81.53-2.23-.14a2.78,2.78,0,0,1-.42-1.86c.07-.52.58-2.88.58-3.12S97.46,73.5,97.46,73.5Z"/><path class="cls-3" d="M98.18,75.79s0,1.31-.93,1.31-1.43-1.19-1.43-1.19a2.6,2.6,0,0,0,0,1.83c.34,1.24,1.74,1,2.05.94S99.68,78.24,98.18,75.79Z"/><path class="cls-3" d="M108.46,72.33a6.17,6.17,0,0,0,1.11,1.5c.51.31,1.52,1.32,1.87,1.37s1.6.27,1.36,1-3.2.5-3.54.21-1.35-1.34-1.76-1.32-.25,1.51-.25,1.51h-.45s-.15-1.45-.17-1.7c0-.73.47-1.27.49-1.69s0-.74,0-.74Z"/><path class="cls-48" d="M111.34,75.16a2.36,2.36,0,0,1-1.75-.09A9.64,9.64,0,0,0,106.85,74s.28-.86.28-1,0-.55,0-.55l1.28-.2a11,11,0,0,0,1.19,1.5C110,74,110.94,74.75,111.34,75.16Z"/><path class="cls-28" d="M106.24,43.62s.36,1.48.49,1.91,1,7.12,1.18,11.31a32.78,32.78,0,0,1-12,1.59s-.17-7.69.46-9.86,1.8-4.21,2.67-4.84S106.24,43.62,106.24,43.62Z"/><path class="cls-18" d="M107.11,34.85a6.64,6.64,0,0,1-.49,1.77c-.08.32,0,1.05-.1,1.78a46.88,46.88,0,0,0-.28,5.22c.1,1-6.82.54-7.35.24a10.91,10.91,0,0,0,1.2-3,2.81,2.81,0,0,0-.3-1.89c-.26-.36-.74-1.49-1.21-2.32h0l-.52-.88h0a3.57,3.57,0,0,1-.27-.68s-.31-3.83.54-4.26a4.33,4.33,0,0,1,2.12-.55,5.82,5.82,0,0,0,1.37-.2l1.93.2a4.33,4.33,0,0,0,1.17.36c.48,0,1.08,1.1,1.38,1.87A5.43,5.43,0,0,1,107.11,34.85Z"/><path class="cls-17" d="M99.38,30.48A2.65,2.65,0,0,0,97.27,32a13.68,13.68,0,0,0-.65,3.35c-.12.52-.31,3.53-.44,4a25.39,25.39,0,0,0-.68,4.17c-.1,1.67.15,5.18.15,5.18l.85-.41s.75-5.21,1.08-6.31c.28-.94.28-2.54.43-3.12s1.12-4.06,1.27-4.41C99.52,33.89,100.69,30.46,99.38,30.48Z"/><path class="cls-17" d="M102.49,21.58a2.94,2.94,0,0,1,3.38,2.33,7.7,7.7,0,0,1-.09,1.13c-.09.5.5,1.88.4,2a3.7,3.7,0,0,1-.56.23s-.33,1.62-.88,1.67a4.61,4.61,0,0,1-3.87-2C99.67,25.09,99,22.15,102.49,21.58Z"/><path class="cls-17" d="M103.92,28.27s0,.22-.08.56c0,.17,0,.37,0,.58a3.77,3.77,0,0,0,.18,1.68s-1.08.65-2.23-.95a6.49,6.49,0,0,0-.55-3.05C100.53,26,103.92,28.27,103.92,28.27Z"/><path class="cls-39" d="M105.87,23.91a7.74,7.74,0,0,1-2.66,1.47,3.72,3.72,0,0,0-2.09,1.89s-2.42-2.42-1-4.76S105.87,21.21,105.87,23.91Z"/><path class="cls-21" d="M103.84,28.83c0,.17,0,.37,0,.58A6.16,6.16,0,0,1,101.91,28,6.82,6.82,0,0,0,103.84,28.83Z"/><path class="cls-39" d="M103,25.46s-1.4,3.76-1.23,4.67a4.92,4.92,0,0,0-2.06.27S100.31,23.69,103,25.46Z"/><path class="cls-17" d="M101.26,30.25s.46,2.82,2.17,2.5.41-2.38.41-2.38S103.08,29.73,101.26,30.25Z"/><path class="cls-17" d="M96.52,48.13a7.22,7.22,0,0,0,.34.89,12.74,12.74,0,0,1,.26,1.9c0,.16-.11.07-.17,0s-.17-.57-.28-.83-.18-.3-.21-.23a4.77,4.77,0,0,0,.08,1.44c.12.4.1,1.34-.13,1.22a5.84,5.84,0,0,1-.86-2.42,13,13,0,0,1,.1-1.41Z"/></g></g></svg>