<svg xmlns="http://www.w3.org/2000/svg" xmlns:xlink="http://www.w3.org/1999/xlink" viewBox="0 0 144.22 86.18"><defs><style>.cls-1{fill:url(#linear-gradient);}.cls-2{fill:#f0f0f0;}.cls-3{fill:#4c76be;}.cls-4{fill:#fff;}.cls-5{fill:#ececec;}.cls-6{fill:#fafafa;}.cls-7{fill:#f5f5f5;}.cls-8{fill:#e1e1e1;}.cls-9{fill:#1e2e34;}.cls-10{fill:#3f5963;}.cls-11{fill:#e7e7e7;}.cls-12{fill:#f75e61;}.cls-13{fill:#ecbdaf;}.cls-14{fill:#e28d7b;}.cls-15{fill:#bf8c79;}.cls-16{fill:#ac6d5a;}.cls-17{opacity:0.2;}</style><linearGradient id="linear-gradient" y1="76.56" x2="144.22" y2="76.56" gradientUnits="userSpaceOnUse"><stop offset="0" stop-color="#fbebe3"/><stop offset="1" stop-color="#e9dad4"/></linearGradient></defs><title>facebook</title><g id="Layer_2" data-name="Layer 2"><g id="Layer_1-2" data-name="Layer 1"><path class="cls-1" d="M2.22,66.94h142s-33,6-45,13-24.5,8.5-33.5,2.5-58.5-5.5-63.5-10.5S2.22,66.94,2.22,66.94Z"/><rect class="cls-2" x="50.04" y="4.93" width="66.59" height="44.6"/><rect class="cls-3" x="50.04" y="4.93" width="66.59" height="4.45"/><path class="cls-4" d="M52.92,7.16a.54.54,0,1,1-.53-.5A.51.51,0,0,1,52.92,7.16Z"/><path class="cls-4" d="M54.66,7.16a.54.54,0,0,1-1.07,0,.54.54,0,0,1,1.07,0Z"/><path class="cls-4" d="M56.4,7.16a.54.54,0,0,1-1.08,0,.54.54,0,0,1,1.08,0Z"/><rect class="cls-5" x="11.56" width="34.38" height="13.91" rx="6.01" transform="translate(57.51 13.91) rotate(180)"/><circle class="cls-6" cx="20.14" cy="6.95" r="5.45"/><path class="cls-7" d="M22.7,5.28a2,2,0,0,1-1-.45,1.34,1.34,0,0,1-1.09.84,1.36,1.36,0,0,1-1.24-.58A5.25,5.25,0,0,1,19,6.5a2.26,2.26,0,0,1-.69.84c0,.5,0,1.3,0,1.32a.41.41,0,0,1-.2.05l.09,1.1a.54.54,0,0,1-.16-.1L18,12a5.48,5.48,0,0,0,2.11.42,5.3,5.3,0,0,0,1.26-.15c0-.36.05-.89.07-1.24h0a1.71,1.71,0,0,1-1.75-1,3.26,3.26,0,0,0,1.77.63v0A1.68,1.68,0,0,0,23,9.17c.07-1,.07-2.93.07-3.94A.47.47,0,0,1,22.7,5.28ZM20.78,7a.21.21,0,0,1-.28,0,.19.19,0,0,1-.05-.28.2.2,0,1,1,.33.23Zm.07-.27s-.15-.09-.34-.1a1.41,1.41,0,0,0-.35.05s0-.06.07-.1a.5.5,0,0,1,.29-.07.48.48,0,0,1,.27.11C20.85,6.64,20.86,6.69,20.85,6.7ZM21.17,9c-.4-.18-.28-.5-.28-.5a3.75,3.75,0,0,0,.91.33A.52.52,0,0,1,21.17,9ZM22,8.27a.15.15,0,0,1-.09.07h-.09l-.31,0s.12,0,.31-.05.09,0,.1,0a.29.29,0,0,0,0-.14l-.13-.4a5.29,5.29,0,0,1-.26-1,6.25,6.25,0,0,1,.37,1l.11.4A.3.3,0,0,1,22,8.27ZM22.86,7a.22.22,0,0,1-.29,0,.2.2,0,0,1,0-.28.19.19,0,0,1,.28,0A.21.21,0,0,1,22.86,7Zm.07-.3s-.15-.09-.34-.1a1.66,1.66,0,0,0-.36.05s0-.06.08-.1a.48.48,0,0,1,.29-.07.51.51,0,0,1,.27.11C22.92,6.6,22.94,6.65,22.93,6.66Z"/><path class="cls-8" d="M22.58,6.67a.2.2,0,0,0,0,.28.22.22,0,0,0,.29,0,.21.21,0,0,0,0-.29A.19.19,0,0,0,22.58,6.67Z"/><path class="cls-8" d="M22.31,6.51c-.06,0-.09.09-.08.1a1.66,1.66,0,0,1,.36-.05c.19,0,.32.12.34.1s0-.06-.06-.11a.51.51,0,0,0-.27-.11A.48.48,0,0,0,22.31,6.51Z"/><path class="cls-8" d="M20.45,6.74A.19.19,0,0,0,20.5,7a.2.2,0,1,0-.05-.28Z"/><path class="cls-8" d="M20.52,6.48a.5.5,0,0,0-.29.07c-.06,0-.08.09-.07.1a1.41,1.41,0,0,1,.35-.05c.19,0,.32.12.34.1s0-.06-.06-.11A.48.48,0,0,0,20.52,6.48Z"/><path class="cls-8" d="M21.88,7.66a6.25,6.25,0,0,0-.37-1,5.29,5.29,0,0,0,.26,1l.13.4a.29.29,0,0,1,0,.14s-.05,0-.1,0-.31,0-.31.05l.31,0h.09A.15.15,0,0,0,22,8.27a.3.3,0,0,0,0-.21Z"/><path class="cls-4" d="M20.89,8.49s-.12.32.28.5a.52.52,0,0,0,.63-.17A3.75,3.75,0,0,1,20.89,8.49Z"/><path class="cls-8" d="M19.72,10a1.71,1.71,0,0,0,1.75,1h0l0-.33v0A3.26,3.26,0,0,1,19.72,10Z"/><path class="cls-8" d="M22.49,3.75c-.08,0-.19-.46-.73-.59a1.11,1.11,0,0,0-.91.25,2.29,2.29,0,0,0-1.32-.26A2.45,2.45,0,0,0,18.37,4,3.62,3.62,0,0,1,18,4.4a3.48,3.48,0,0,1-.38.23,1.42,1.42,0,0,0-.58,1.12A2.55,2.55,0,0,0,17.39,7l.06.11a.86.86,0,0,1,.85-.17v.4A2.26,2.26,0,0,0,19,6.5a5.25,5.25,0,0,0,.38-1.41,1.36,1.36,0,0,0,1.24.58,1.34,1.34,0,0,0,1.09-.84,2,2,0,0,0,1,.45.47.47,0,0,0,.35,0h0c.12-.1.08-.29.12-.45C23.3,4.35,23.25,3.81,22.49,3.75Z"/><path class="cls-8" d="M18.08,8.71a.85.85,0,0,1-.82-.36l0,.09a.52.52,0,0,0,.06.47.3.3,0,0,0,.44.05.77.77,0,0,0,.28.75.54.54,0,0,0,.16.1Z"/><path class="cls-7" d="M18.08,8.71a.41.41,0,0,0,.2-.05s0-.82,0-1.32v-.4a.86.86,0,0,0-.85.17,1.17,1.17,0,0,0-.27.67,1.06,1.06,0,0,0,.08.57A.85.85,0,0,0,18.08,8.71Zm-.47-1.29a.29.29,0,0,1,.23-.16.21.21,0,0,1,.11,0l0,.08s0,.07,0,.07a.07.07,0,0,0,0-.06.09.09,0,0,0-.11-.07c-.06,0-.12,0-.17.14a.66.66,0,0,0-.09.28.5.5,0,0,0,.18.48.21.21,0,0,0,.15,0l.06,0s0,0,0,.06a.21.21,0,0,1-.19,0,.51.51,0,0,1-.24-.54A.61.61,0,0,1,17.61,7.42Z"/><path class="cls-8" d="M17.74,8.27a.21.21,0,0,0,.19,0s.05,0,0-.06l-.06,0a.21.21,0,0,1-.15,0,.5.5,0,0,1-.18-.48.66.66,0,0,1,.09-.28c0-.09.11-.14.17-.14a.09.09,0,0,1,.11.07.07.07,0,0,1,0,.06s0,0,0-.07l0-.08a.21.21,0,0,0-.11,0,.29.29,0,0,0-.23.16.61.61,0,0,0-.11.31A.51.51,0,0,0,17.74,8.27Z"/><rect class="cls-8" x="27.86" y="4.89" width="14.63" height="0.96"/><rect class="cls-8" x="27.86" y="7.37" width="14.63" height="0.96"/><path class="cls-3" d="M18.8,22a1.22,1.22,0,0,0-1.71-.08,2.08,2.08,0,0,0-.78,1.58,2.1,2.1,0,0,0-1-1.46,1.24,1.24,0,0,0-1.7.3,1.66,1.66,0,0,0-.17,1.18,2.29,2.29,0,0,0,.49,1.11,8.77,8.77,0,0,0,2.64,1.86,8,8,0,0,0,2.23-2.19,2.13,2.13,0,0,0,.34-1.15A1.64,1.64,0,0,0,18.8,22Z"/><path class="cls-9" d="M131.72,67.61s-27.09,0-60.49,0-60.51,0-60.51,0,27.09,0,60.51,0S131.72,67.58,131.72,67.61Z"/><path class="cls-9" d="M104.51,8.38h-67a2.09,2.09,0,0,0-2.09,2.09V57.81a2.08,2.08,0,0,0,2.09,2.09H63.2a6.46,6.46,0,0,1-3.43,7.68h24s-5.73-2-4.25-7.68h24.94a2.09,2.09,0,0,0,2.09-2.09V10.47A2.1,2.1,0,0,0,104.51,8.38Z"/><path class="cls-10" d="M71.89,54.93a1.29,1.29,0,0,1-1.82,1.81L70,56.63a1.29,1.29,0,0,1,1.82-1.82A.43.43,0,0,1,71.89,54.93Z"/><rect class="cls-11" x="36.9" y="11.22" width="68.05" height="40.36" rx="3.27"/><rect class="cls-4" x="36.84" y="14.19" width="68.05" height="37.4"/><path class="cls-10" d="M42.48,12.78a.54.54,0,0,1-.54.54.55.55,0,1,1,0-1.09A.54.54,0,0,1,42.48,12.78Z"/><path class="cls-10" d="M39.19,12.78a.55.55,0,0,1-.55.54.55.55,0,0,1,0-1.09A.55.55,0,0,1,39.19,12.78Z"/><path class="cls-10" d="M40.77,12.78a.54.54,0,0,1-.54.54.55.55,0,1,1,0-1.09A.54.54,0,0,1,40.77,12.78Z"/><rect class="cls-8" x="62.95" y="27.77" width="5.29" height="0.67"/><rect class="cls-7" x="62.95" y="29.93" width="25" height="11.26"/><polygon class="cls-8" points="63.85 40.23 70.92 33.1 77.05 38.52 80.37 35.56 86.75 40.23 63.85 40.23"/><path class="cls-8" d="M77.41,34.14a.83.83,0,0,1-.83.84.84.84,0,1,1,0-1.67A.83.83,0,0,1,77.41,34.14Z"/><path class="cls-8" d="M86.69,40.26v-.18c0-.12,0-.29,0-.51,0-.44,0-1.09,0-1.91,0-1.64,0-4-.06-6.8l.11.05H63.94l.13-.05h0v4.94c0,1.57,0,3.06,0,4.44l-.11,0,16.45,0h.07l-16.52,0h-.11v0c0-1.38,0-2.87,0-4.44,0-.79,0-1.6,0-2.43V30.88h0c-.11,0,.16-.07.13-.06H86.8v0c0,2.83,0,5.18,0,6.83,0,.82,0,1.46,0,1.9,0,.22,0,.38,0,.5v.13A.1.1,0,0,1,86.69,40.26Z"/><path class="cls-12" d="M65.41,44.6a1,1,0,1,1-1-1A1,1,0,0,1,65.41,44.6Z"/><path class="cls-12" d="M81.74,44.07s-3.48,0-7.77,0-7.77,0-7.77,0,3.48,0,7.77,0S81.74,44,81.74,44.07Z"/><path class="cls-12" d="M81.74,44.78s-3.48,0-7.77,0-7.77,0-7.77,0,3.48-.05,7.77-.05S81.74,44.75,81.74,44.78Z"/><path class="cls-12" d="M74.51,45.6l-.33,0h-.89l-2.94,0-2.93,0h-.89l-.33,0a1.25,1.25,0,0,1,.33,0l.89,0h5.87l.89,0A1.25,1.25,0,0,1,74.51,45.6Z"/><circle class="cls-12" cx="64.42" cy="48.37" r="0.99"/><path class="cls-12" d="M81.74,47.83s-3.48.06-7.77.06-7.77,0-7.77-.06,3.48,0,7.77,0S81.74,47.81,81.74,47.83Z"/><path class="cls-12" d="M81.74,48.54s-3.48.05-7.77.05-7.77,0-7.77-.05,3.48,0,7.77,0S81.74,48.51,81.74,48.54Z"/><path class="cls-12" d="M74.51,49.36a1.25,1.25,0,0,1-.33,0l-.89,0H67.42l-.89,0a1.25,1.25,0,0,1-.33,0l.33,0h.89l2.93,0,2.94,0h.89Z"/><rect class="cls-3" x="36.9" y="14.14" width="68.05" height="11.17"/><rect class="cls-6" x="67.05" y="18" width="15.83" height="1.16"/><path class="cls-6" d="M90,21.25H85.46l-10.95,0-11,0H59s0,0,.08,0h1.13l3.32,0H85.46l3.32,0h1.13C90,21.24,90,21.24,90,21.25Z"/><path class="cls-6" d="M83.33,22.46h-.65l-1.8,0H69.05l-1.8,0h1.8l5.92,0,5.91,0h2.45Z"/><path class="cls-6" d="M53.24,25.31a5.71,5.71,0,1,1-5.7-5.7A5.7,5.7,0,0,1,53.24,25.31Z"/><path class="cls-9" d="M54.37,37.75s-2.93.06-6.54.06-6.55,0-6.55-.06,2.93-.06,6.55-.06S54.37,37.72,54.37,37.75Z"/><path class="cls-9" d="M54.37,39.2s-2.93,0-6.54,0-6.55,0-6.55,0,2.93-.06,6.55-.06S54.37,39.17,54.37,39.2Z"/><path class="cls-9" d="M54.37,40.65s-2.93.05-6.54.05-6.55,0-6.55-.05,2.93-.06,6.55-.06S54.37,40.61,54.37,40.65Z"/><path class="cls-9" d="M48.8,42.12s-1.69.06-3.79.06-3.8,0-3.8-.06,1.7,0,3.8,0S48.8,42.09,48.8,42.12Z"/><rect class="cls-9" x="41.28" y="34.8" width="9.02" height="0.66" transform="translate(91.59 70.25) rotate(180)"/><path class="cls-12" d="M44,29.67a5.53,5.53,0,0,0,7.24,0,3.34,3.34,0,0,0-2.83-2.53,2.25,2.25,0,0,0,1.34-2.07,2.11,2.11,0,1,0-4.21,0,2.24,2.24,0,0,0,1.34,2.09A3.4,3.4,0,0,0,44,29.67Z"/><rect class="cls-9" x="41.28" y="44.38" width="5.06" height="0.62"/><path class="cls-9" d="M114.92,13.68h.13l.37,0a3.88,3.88,0,0,1,.59.08,2.79,2.79,0,0,1,.38.07l.42.11a7,7,0,0,1,2,1,7.35,7.35,0,0,1,2.66,3.76,7.78,7.78,0,0,1,.3,1.84,8.06,8.06,0,0,1,0,1c0,.17,0,.33-.07.5a2.75,2.75,0,0,1-.09.5,7.16,7.16,0,0,1-4.06,5,6.6,6.6,0,0,1-2.33.53,6.29,6.29,0,0,1-2.43-.35l-.24-.09h-.06l-3.42,1.74.1.09c.36-1.14.72-2.24,1.06-3.29v0l0,0a7.37,7.37,0,0,1-1.8-3,7.56,7.56,0,0,1-.26-3.18,7.29,7.29,0,0,1,2.45-4.58,7.11,7.11,0,0,1,1.68-1.07,7.3,7.3,0,0,1,1.42-.45l.53-.09.39,0,.24,0h-.24l-.4,0-.53.08a7.22,7.22,0,0,0-1.44.43,7.6,7.6,0,0,0-1.71,1.06,7.42,7.42,0,0,0-1.58,1.91,7.35,7.35,0,0,0-.92,2.73,7.49,7.49,0,0,0,.25,3.23,7.36,7.36,0,0,0,1.82,3.05l0-.07c-.34,1.05-.69,2.15-1.06,3.28l-.05.17.15-.08,3.42-1.74h-.06l.25.09a6.38,6.38,0,0,0,2.48.35,6.56,6.56,0,0,0,2.38-.53A7.16,7.16,0,0,0,121,24.6a7,7,0,0,0,.76-2,3.06,3.06,0,0,0,.1-.51,4.43,4.43,0,0,0,.06-.51,6.57,6.57,0,0,0,0-1,7.94,7.94,0,0,0-.32-1.87,7.74,7.74,0,0,0-.7-1.6,6.92,6.92,0,0,0-4-3.18l-.43-.11a2.79,2.79,0,0,0-.38-.07,5.48,5.48,0,0,0-.6-.06h-.5Z"/><path class="cls-3" d="M113.38,20h.5L115,18.48v-1s.78,0,.68,1.27,0,1,0,1a8.27,8.27,0,0,1,1.78.15,17,17,0,0,1,.17,2.63,1,1,0,0,1-.68,1,.57.57,0,0,1-.18,0c-.41,0-2.51-.34-2.51-.34h-.86Z"/><polygon class="cls-3" points="111.94 19.73 112.25 23.16 113.11 23.16 113.11 19.8 111.94 19.73"/><path class="cls-12" d="M121.75,32.49H91.44a1.18,1.18,0,0,0-1.18,1.18v9.61a1.18,1.18,0,0,0,1.18,1.19h.7V48l3.43-3.49h26.18a1.19,1.19,0,0,0,1.19-1.19V33.67A1.18,1.18,0,0,0,121.75,32.49Z"/><path class="cls-6" d="M113.74,40.15c0-.55,0-1.36,0-2.08h0a2.25,2.25,0,0,1,.55-2.45,2.38,2.38,0,0,1,2.33-.9,3.6,3.6,0,0,1,3,2.9c0,.1,0,.29.06.47h0c0,.12,0,.23,0,.32h0a2.52,2.52,0,0,0,1.32,2.08A5,5,0,1,0,114,42.78,7.18,7.18,0,0,1,113.74,40.15Z"/><path class="cls-9" d="M113.74,40.27v-.12a7.18,7.18,0,0,0,.21,2.63,5,5,0,0,0,1,.47c0-.7-.08-1.69-.08-1.69A1.36,1.36,0,0,1,113.74,40.27Z"/><path class="cls-13" d="M117.94,38.15a2.52,2.52,0,0,1-2.15-1.95h0a2.22,2.22,0,0,0-.19,1.28l-1.65.41-.18.17c0,.72,0,1.53,0,2.08v.12a1.36,1.36,0,0,0,1.18,1.29,2.78,2.78,0,0,0,1.5-.49,1.46,1.46,0,0,1-1.48.78l0-.29s.06,1,.08,1.69a4.91,4.91,0,0,0,1.5.23,5.24,5.24,0,0,0,1.26-.16Zm-2.27.28a.14.14,0,0,1,.14-.15.15.15,0,0,1,.15.15.16.16,0,0,1-.15.15A.15.15,0,0,1,115.67,38.43Zm0-.25a.37.37,0,0,1,.23-.09.39.39,0,0,1,.23.07s.07.07.06.08-.13-.06-.29-.05-.26.09-.28.07S115.59,38.22,115.63,38.18Zm-1.71,0a.44.44,0,0,1,.22-.09.37.37,0,0,1,.23.07s.07.07.06.08-.13-.06-.28-.05-.27.09-.28.07S113.87,38.19,113.92,38.15Zm.08.25a.15.15,0,0,1,.15-.15.15.15,0,0,1,.14.15.15.15,0,0,1-.15.15A.15.15,0,0,1,114,38.4Zm.68,1.2a.11.11,0,0,1-.07-.06.25.25,0,0,1,0-.17l.11-.33a5.11,5.11,0,0,1,.31-.83,6.06,6.06,0,0,1-.25.85l-.11.33a.24.24,0,0,0,0,.13s0,0,.09,0a.73.73,0,0,1,.25,0h-.32Zm.59.56a.41.41,0,0,1-.51-.15,2.83,2.83,0,0,0,.75-.26A.33.33,0,0,1,115.27,40.16Z"/><path class="cls-9" d="M114.29,38.4a.15.15,0,0,0-.14-.15.15.15,0,0,0-.15.15.15.15,0,0,0,.14.15A.15.15,0,0,0,114.29,38.4Z"/><path class="cls-9" d="M114.15,38.16c.15,0,.27.07.28.05s0-.05-.06-.08a.37.37,0,0,0-.23-.07.44.44,0,0,0-.22.09s-.06.08,0,.08S114,38.16,114.15,38.16Z"/><path class="cls-9" d="M116,38.43a.15.15,0,0,0-.15-.15.14.14,0,0,0-.14.15.15.15,0,0,0,.14.15A.16.16,0,0,0,116,38.43Z"/><path class="cls-9" d="M115.86,38.19c.16,0,.27.07.29.05s0-.05-.06-.08a.39.39,0,0,0-.23-.07.37.37,0,0,0-.23.09s-.06.08,0,.08S115.71,38.19,115.86,38.19Z"/><path class="cls-9" d="M115,39.6a.73.73,0,0,0-.25,0s-.08,0-.09,0a.24.24,0,0,1,0-.13l.11-.33a6.06,6.06,0,0,0,.25-.85,5.11,5.11,0,0,0-.31.83l-.11.33a.25.25,0,0,0,0,.17.11.11,0,0,0,.07.06H115Z"/><path class="cls-4" d="M114.76,40a.41.41,0,0,0,.51.15.33.33,0,0,0,.24-.41A2.83,2.83,0,0,1,114.76,40Z"/><path class="cls-14" d="M116.42,41.07a2.78,2.78,0,0,1-1.5.49l0,.29A1.46,1.46,0,0,0,116.42,41.07Z"/><path class="cls-9" d="M119.75,38.41h0c0-.09,0-.2,0-.32h0c0-.18,0-.37-.06-.47a3.6,3.6,0,0,0-3-2.9,2.38,2.38,0,0,0-2.33.9,2.25,2.25,0,0,0-.55,2.45h0l.18-.17,1.65-.41a2.22,2.22,0,0,1,.19-1.28h0a2.52,2.52,0,0,0,2.15,1.95l-.18,5.17.21-.06a5,5,0,0,0,3.1-2.77A2.52,2.52,0,0,1,119.75,38.41Z"/><rect class="cls-6" x="93.96" y="36.02" width="15.72" height="0.87"/><rect class="cls-6" x="93.96" y="38.24" width="15.72" height="0.87"/><rect class="cls-6" x="93.96" y="40.41" width="7.79" height="0.87"/><path class="cls-12" d="M120.29,66l-.37-1.86-3.5.66.51,2.74.22,0a41.76,41.76,0,0,0,5.56-1C123.38,66.09,120.29,66,120.29,66Z"/><path class="cls-2" d="M118.19,67.25a1.25,1.25,0,0,0-.58-.66,1.2,1.2,0,0,0-.87-.1l.18,1Z"/><path class="cls-2" d="M121.81,66.09s1.1.1,1,.3a34.85,34.85,0,0,1-5.88,1.13v-.08l4.67-.84S121.61,66.13,121.81,66.09Z"/><path class="cls-9" d="M116.87,67.45h.06l.17,0,.64-.09c.54-.09,1.29-.21,2.11-.36s1.56-.31,2.09-.44l.63-.14.17,0,.06,0h-.06l-.17,0-.64.14c-.53.11-1.27.26-2.09.41s-1.56.29-2.1.38l-.64.1-.17,0S116.87,67.44,116.87,67.45Z"/><path class="cls-9" d="M121.6,66.65a1.16,1.16,0,0,1,.06-.33,1.31,1.31,0,0,1,.17-.28.44.44,0,0,0-.21.27A.48.48,0,0,0,121.6,66.65Z"/><path class="cls-9" d="M120.46,66.32s.05-.06.09-.15.06-.17,0-.17,0,.06-.08.15A.39.39,0,0,0,120.46,66.32Z"/><path class="cls-9" d="M120.15,66.23a.33.33,0,0,0,.11-.11c0-.06.08-.12.07-.13s0,0-.1.1S120.14,66.22,120.15,66.23Z"/><path class="cls-9" d="M119.91,65.93a.42.42,0,0,0,.19,0l.18,0s-.09,0-.19,0A.38.38,0,0,0,119.91,65.93Z"/><path class="cls-9" d="M119.81,65.71a.52.52,0,0,0,.42,0,.84.84,0,0,0-.21,0Z"/><path class="cls-9" d="M120.53,66l.22,0a.89.89,0,0,0,.23-.1l.13-.08s0,0,0-.08a.08.08,0,0,0-.05-.08.43.43,0,0,0-.49.21,1,1,0,0,0,0,.17.15.15,0,0,0,0,.06.69.69,0,0,1,.07-.21.38.38,0,0,1,.17-.16.32.32,0,0,1,.27,0s0,.06,0,.09l-.12.08-.22.1C120.61,66,120.52,66,120.53,66Z"/><path class="cls-9" d="M120.59,66a.33.33,0,0,0,0-.17.35.35,0,0,0-.09-.15.24.24,0,0,0-.21-.08.1.1,0,0,0,0,.12.2.2,0,0,0,.06.09.71.71,0,0,0,.13.12.5.5,0,0,0,.15.07s-.06,0-.13-.1a.6.6,0,0,1-.12-.11s-.08-.13,0-.15a.21.21,0,0,1,.16.07.26.26,0,0,1,.09.13A.8.8,0,0,1,120.59,66Z"/><path class="cls-9" d="M116.76,66.48a1.11,1.11,0,0,1,.26,0,1.07,1.07,0,0,1,.6.12,1.17,1.17,0,0,1,.45.43,1.28,1.28,0,0,1,.11.24s0,0,0-.07a.6.6,0,0,0-.07-.18,1.12,1.12,0,0,0-.46-.46,1.07,1.07,0,0,0-.63-.11l-.19,0S116.76,66.47,116.76,66.48Z"/><path class="cls-9" d="M116.84,65s0,.33.11.73a6.69,6.69,0,0,0,.15.71s0-.32-.11-.72A4.61,4.61,0,0,0,116.84,65Z"/><path class="cls-9" d="M118.57,66.82a1.58,1.58,0,0,0,.52,0,1.88,1.88,0,0,0,.5-.14s-.23,0-.51.1Z"/><path class="cls-9" d="M117.88,67l.06.1s.06.09.07.09,0-.06,0-.12S117.89,66.94,117.88,67Z"/><path class="cls-9" d="M117.56,66.68l.07.07s.08,0,.09,0,0,0-.07-.07S117.57,66.67,117.56,66.68Z"/><path class="cls-9" d="M117.17,66.6s0,0,.1,0,.1,0,.11,0,0,0-.1-.06S117.16,66.59,117.17,66.6Z"/><path class="cls-9" d="M116.89,66.58s0,0,0,0,.06,0,.06,0,0,0,0,0S116.89,66.57,116.89,66.58Z"/><path class="cls-9" d="M105.15,62.49s4.84-10.84,9.39-10.92c0,0,2.63-.59,3.65,4.76.52,2.68,2.25,9.12,2.25,9.12l-4.6.8-1.71-8-2.18,5Z"/><polygon class="cls-10" points="115.53 65.85 115.67 66.43 120.66 65.49 120.55 64.87 115.53 65.85"/><path class="cls-10" d="M112.47,56s-.07.08-.17.11-.21,0-.21,0,.08-.06.18-.09S112.47,56,112.47,56Z"/><path class="cls-10" d="M114,55.72a1.53,1.53,0,0,1-.39.05,1.46,1.46,0,0,1-.39,0s.16-.1.38-.12S114,55.69,114,55.72Z"/><path class="cls-10" d="M114.86,56.89a.91.91,0,0,1-.17-.35c-.07-.21-.11-.38-.08-.39s.1.14.18.35S114.89,56.88,114.86,56.89Z"/><path class="cls-10" d="M115.28,58.4s-.09-.15-.15-.36-.08-.39,0-.4.09.16.15.37S115.31,58.4,115.28,58.4Z"/><path class="cls-10" d="M115.66,59.93a1,1,0,0,1-.14-.37c0-.21-.07-.39,0-.39a.81.81,0,0,1,.14.36C115.67,59.75,115.69,59.92,115.66,59.93Z"/><path class="cls-10" d="M116,61.45s-.09-.15-.14-.37-.07-.38,0-.39.09.16.14.37S116.06,61.45,116,61.45Z"/><path class="cls-10" d="M116.39,63s-.09-.16-.14-.38-.07-.38,0-.39.09.16.14.37A.94.94,0,0,1,116.39,63Z"/><path class="cls-10" d="M116.74,64.52s-.09-.16-.14-.37-.07-.39,0-.4.09.16.14.37A.94.94,0,0,1,116.74,64.52Z"/><path class="cls-10" d="M117,65.67s-.07-.08-.09-.18,0-.2,0-.21.07.08.09.19S117,65.66,117,65.67Z"/><path class="cls-12" d="M97.59,47.54h0l-.61.05L95.3,51.4l1,4.17c.56,1.94-1,4.41-1.26,6.13l9,.23.44-5.89.3,2.61,3.87.49-2.08-7.36a5.14,5.14,0,0,0-4.76-4.2"/><path class="cls-15" d="M101.57,47.54a10.32,10.32,0,0,1,.07-1.54A1.5,1.5,0,0,0,103,44.61c.08-1.25,0-4.15,0-4.15l-2.3-1.13-2.18,2,0,6.25Z"/><path class="cls-9" d="M101.83,43.28a8.42,8.42,0,0,1-.27-.93,6.28,6.28,0,0,1,.34.91l.11.36a.36.36,0,0,1,0,.18.13.13,0,0,1-.08.07h-.36a.93.93,0,0,1,.29,0s.08,0,.09,0"/><path class="cls-16" d="M101.64,46a3.11,3.11,0,0,1-1.66-.56,1.61,1.61,0,0,0,1.63.87Z"/><path class="cls-9" d="M96.43,42.56c0-.06,0-.15,0-.26a.68.68,0,0,1,0-.12h0c0-.24.06-.52.08-.64.53-3.3,3.32-3.11,3.32-3.11a3.41,3.41,0,0,1,2.13.69,2.92,2.92,0,0,1,.86.83,3,3,0,0,1,.54,1.63,2.54,2.54,0,0,1,0,.53.5.5,0,0,1-.05.19s0-.28,0-.71a3.2,3.2,0,0,0-.22-1,2.4,2.4,0,0,1-.09,1.58l-2.24-.35a4.31,4.31,0,0,0,0-1.65,4.39,4.39,0,0,1-2,2.71l-.19,0v2.78c-1.91-.4-2.14-2.3-2.14-3.12Z"/><path class="cls-9" d="M96.54,41.66a1.58,1.58,0,0,0-1.07-.53,1.6,1.6,0,0,0-1.13.36.78.78,0,0,0-.29.38.44.44,0,0,0,.08.44.31.31,0,0,0,.43,0,.38.38,0,0,0-.15.58.38.38,0,0,0,.6-.08.76.76,0,0,0-.06.36.34.34,0,0,0,.19.29.37.37,0,0,0,.4-.13,2,2,0,0,0,.24-.37,1.21,1.21,0,0,1,1-.5"/><path class="cls-9" d="M94.61,40.71a.64.64,0,0,1,.33-.06,1.55,1.55,0,0,1,.79.17,1.67,1.67,0,0,1,.62.53.59.59,0,0,1,.14.3,3.25,3.25,0,0,1-.2-.26,2.06,2.06,0,0,0-.6-.48,1.84,1.84,0,0,0-.75-.19A1.88,1.88,0,0,1,94.61,40.71Z"/><path class="cls-10" d="M96.56,41.57a2.37,2.37,0,0,1,0,.57,2.48,2.48,0,0,1-.07.58,1.25,1.25,0,0,1,0-.58A1.19,1.19,0,0,1,96.56,41.57Z"/><path class="cls-15" d="M98.66,43.54a.52.52,0,0,1-.64-.09.76.76,0,0,1-.17-.67.56.56,0,0,1,.21-.36.59.59,0,0,1,.55,0Z"/><path class="cls-16" d="M98.38,43.34s-.06,0-.13-.08a.34.34,0,0,1-.14-.3.31.31,0,0,1,.19-.26c.08,0,.14,0,.14-.05s-.06,0-.17,0A.38.38,0,0,0,98,43a.38.38,0,0,0,.21.37C98.31,43.37,98.38,43.35,98.38,43.34Z"/><path class="cls-5" d="M97.91,43.35a.32.32,0,0,0-.23.14.31.31,0,0,0-.06.27.34.34,0,0,0,.25.24.32.32,0,0,0,.31-.11.31.31,0,0,0,.07-.28.72.72,0,0,0-.1-.25l0,0a.42.42,0,0,1,.08.2.35.35,0,0,1-.07.3.36.36,0,0,1-.35.13.37.37,0,0,1-.27-.27.31.31,0,0,1,.07-.3C97.78,43.33,97.92,43.34,97.91,43.35Z"/><path class="cls-12" d="M97.14,47.58s-1.89,0-2.85,2.52a5.3,5.3,0,0,0,0,3.66l.34,1,3.82-1.1Z"/><path class="cls-9" d="M104.3,57.57a.81.81,0,0,1,0-.26c0-.17,0-.42,0-.72a8.58,8.58,0,0,1,.18-1.05c.09-.39.24-.8.35-1.24a2.28,2.28,0,0,0-.06-1.25,6,6,0,0,0-.41-1l-.32-.64a1,1,0,0,1-.11-.23,1,1,0,0,1,.14.21c.09.15.22.36.36.63a6.47,6.47,0,0,1,.43,1,3.05,3.05,0,0,1,.13.62,2,2,0,0,1-.06.68c-.11.45-.26.86-.36,1.25a6.71,6.71,0,0,0-.19,1c0,.3-.06.54-.07.71S104.3,57.57,104.3,57.57Z"/><rect class="cls-12" x="98.44" y="46.82" width="3.21" height="0.76"/><path class="cls-9" d="M102.29,61.7s0-.05,0-.14l0-.42-.1-1.52c-.08-1.29-.2-3.06-.39-5s-.41-3.72-.6-5l-.23-1.5-.06-.41c0-.1,0-.15,0-.15l0,.14.08.41c.07.35.16.87.26,1.5.21,1.28.44,3,.63,5s.3,3.74.36,5c0,.64.06,1.16.07,1.52v.56Z"/><path class="cls-9" d="M100.78,46.83s0,.05,0,.13a2,2,0,0,1,0,.38.85.85,0,0,1-.18.53.63.63,0,0,1-.28.2,1.09,1.09,0,0,1-.36.06,3,3,0,0,1-1.19-.31,1.58,1.58,0,0,1-.42-.29,4.07,4.07,0,0,1,.45.22A3.18,3.18,0,0,0,100,48a.72.72,0,0,0,.57-.22.87.87,0,0,0,.18-.48C100.79,47,100.76,46.83,100.78,46.83Z"/><path class="cls-9" d="M101.67,47.47s0,.13-.1.28a.51.51,0,0,1-.27.19.38.38,0,0,1-.21,0,.46.46,0,0,1-.33-.49,1.18,1.18,0,0,1,0-.32.79.79,0,0,1,0-.29s0,.11,0,.29a1.89,1.89,0,0,0,0,.31.5.5,0,0,0,.13.32.29.29,0,0,0,.14.08.32.32,0,0,0,.16,0,.49.49,0,0,0,.24-.15A.77.77,0,0,0,101.67,47.47Z"/><path class="cls-4" d="M95.92,49.56s-.13-.18-.33-.36-.38-.28-.37-.29a1.14,1.14,0,0,1,.4.26A1.4,1.4,0,0,1,95.92,49.56Z"/><path class="cls-4" d="M95.69,49.27a.63.63,0,0,1-.06-.28.92.92,0,0,1,0-.29s0,.13,0,.29A2.38,2.38,0,0,1,95.69,49.27Z"/><path class="cls-4" d="M95.76,49.35s-.08,0-.19.06l-.2,0a.56.56,0,0,1,.19-.06Z"/><path class="cls-4" d="M103.72,54.29s-.13-.18-.32-.35a2.78,2.78,0,0,0-.38-.3,1.08,1.08,0,0,1,.41.27A1.1,1.1,0,0,1,103.72,54.29Z"/><path class="cls-4" d="M103.5,54a.56.56,0,0,1-.07-.28,1,1,0,0,1,0-.28,1.28,1.28,0,0,1,0,.28C103.48,53.88,103.51,54,103.5,54Z"/><path class="cls-4" d="M103.57,54.08a.56.56,0,0,1-.19.06.59.59,0,0,1-.2,0s.08,0,.19-.06Z"/><path class="cls-4" d="M97,61a4.05,4.05,0,0,0-.32-.36c-.19-.18-.38-.28-.37-.29a1.25,1.25,0,0,1,.4.26A1.18,1.18,0,0,1,97,61Z"/><path class="cls-4" d="M96.74,60.7a.63.63,0,0,1-.06-.28.84.84,0,0,1,0-.28,1.17,1.17,0,0,1,0,.28A2.51,2.51,0,0,1,96.74,60.7Z"/><path class="cls-4" d="M96.81,60.78a.47.47,0,0,1-.19.06l-.2,0a.47.47,0,0,1,.19-.06Z"/><path class="cls-4" d="M99.52,52.59s.16-.14.33-.35.24-.41.26-.41a1.22,1.22,0,0,1-.23.43A1.2,1.2,0,0,1,99.52,52.59Z"/><path class="cls-4" d="M99.79,52.34a.51.51,0,0,1,.27-.09,1,1,0,0,1,.29,0l-.28,0Z"/><path class="cls-4" d="M99.71,52.42a.6.6,0,0,1-.07-.19.57.57,0,0,1,0-.2.5.5,0,0,1,.08.19A.47.47,0,0,1,99.71,52.42Z"/><path class="cls-4" d="M105.78,51.18a4.21,4.21,0,0,0-.46-.14,3.74,3.74,0,0,0-.48-.06,1.14,1.14,0,0,1,.49,0A1.13,1.13,0,0,1,105.78,51.18Z"/><path class="cls-4" d="M105.44,51s-.11-.07-.2-.2a1.39,1.39,0,0,1-.14-.26,1.41,1.41,0,0,1,.18.23C105.36,50.94,105.45,51,105.44,51Z"/><path class="cls-4" d="M105.54,51.08a.67.67,0,0,1-.13.15c-.09.07-.16.12-.17.11l.14-.14C105.46,51.12,105.53,51.07,105.54,51.08Z"/><path class="cls-4" d="M98.77,49.73s.16-.14.32-.35a4.36,4.36,0,0,0,.26-.4,1.54,1.54,0,0,1-.58.75Z"/><path class="cls-4" d="M99,49.48a.7.7,0,0,1,.28-.08.76.76,0,0,1,.28,0l-.28.06A2.31,2.31,0,0,1,99,49.48Z"/><path class="cls-4" d="M99,49.56a.5.5,0,0,1-.08-.19.44.44,0,0,1,0-.19s0,.08.07.18A.65.65,0,0,1,99,49.56Z"/><path class="cls-4" d="M105.93,55s.16-.14.32-.35.25-.41.26-.4a1.54,1.54,0,0,1-.58.75Z"/><path class="cls-4" d="M106.19,54.73a.7.7,0,0,1,.28-.08.76.76,0,0,1,.28,0l-.28.06A2.31,2.31,0,0,1,106.19,54.73Z"/><path class="cls-4" d="M106.12,54.81a.5.5,0,0,1-.08-.19.44.44,0,0,1,0-.19s0,.08.07.18A.65.65,0,0,1,106.12,54.81Z"/><path class="cls-4" d="M102.59,49.69s.17-.15.33-.36a3.83,3.83,0,0,0,.26-.4,1.19,1.19,0,0,1-.23.43A1.44,1.44,0,0,1,102.59,49.69Z"/><path class="cls-4" d="M102.86,49.44a.51.51,0,0,1,.27-.09,1,1,0,0,1,.29,0l-.28,0C103,49.41,102.86,49.45,102.86,49.44Z"/><path class="cls-4" d="M102.78,49.52a.6.6,0,0,1-.07-.19.65.65,0,0,1,0-.2.5.5,0,0,1,.08.19C102.78,49.42,102.8,49.51,102.78,49.52Z"/><path class="cls-4" d="M100.71,55.25s-.21,0-.47,0a3.56,3.56,0,0,0-.48,0,1,1,0,0,1,.48-.09A1.32,1.32,0,0,1,100.71,55.25Z"/><path class="cls-4" d="M100.35,55.2a.61.61,0,0,1-.23-.16c-.12-.12-.2-.21-.19-.22a1.23,1.23,0,0,1,.22.19C100.26,55.12,100.36,55.19,100.35,55.2Z"/><path class="cls-4" d="M100.46,55.21a.45.45,0,0,1-.1.17c-.06.09-.12.16-.13.15s0-.08.1-.17S100.45,55.2,100.46,55.21Z"/><path class="cls-9" d="M101.94,52s0,0,.09,0a.11.11,0,0,1,.06.1.13.13,0,0,1-.11.11.11.11,0,0,1-.13-.08.12.12,0,0,1,0-.12l0,0h0s.06,0,.06,0a.1.1,0,0,1-.07,0h0s0,.06,0,.05,0,0,0-.05A.23.23,0,0,0,101.94,52Z"/><path class="cls-9" d="M102.16,54.61s0,0,.09,0a.09.09,0,0,1,0,.1.12.12,0,0,1-.1.11.12.12,0,0,1-.13-.09.09.09,0,0,1,0-.11l0,0h0s.06,0,.05,0,0,0-.07,0h0s0,.07,0,.06,0,0,0-.06Z"/><path class="cls-9" d="M102.34,57s0-.05.09,0a.1.1,0,0,1,0,.1.14.14,0,0,1-.1.11.13.13,0,0,1-.14-.09.11.11,0,0,1,0-.11l0,0h0s0,0,0,0,0,0-.07,0h0s0,.07,0,.06,0,0,0-.06S102.34,57,102.34,57Z"/><path class="cls-9" d="M101.55,49.49s0-.05.09,0a.13.13,0,0,1,0,.11.14.14,0,0,1-.1.11.13.13,0,0,1-.14-.09.1.1,0,0,1,0-.11l0,0h0s0,0,0,0,0,0-.07,0h0s0,.07,0,.06,0,0,0-.06Z"/><path class="cls-9" d="M95,61.52s-2,5.48,2.84,5.7c4.31.21,10,.18,12.25.18a6.12,6.12,0,0,0,2.8-.26,3.17,3.17,0,0,0,2.15-2.41c.11-1.55-.92-3-4.51-3.21S95,61.52,95,61.52Z"/><path class="cls-10" d="M95.9,61.87s0-.1,0-.2.08-.18.11-.17,0,.1,0,.2S95.93,61.88,95.9,61.87Z"/><path class="cls-10" d="M95.65,63.43s-.07-.17-.05-.4.07-.4.1-.39,0,.18,0,.4S95.68,63.43,95.65,63.43Z"/><path class="cls-10" d="M96.3,64.84s-.17-.08-.31-.26-.18-.37-.15-.38.11.14.24.32S96.32,64.82,96.3,64.84Z"/><path class="cls-10" d="M97.77,65.41s-.19,0-.4,0a.74.74,0,0,1-.38-.16s.19,0,.4.06S97.77,65.38,97.77,65.41Z"/><path class="cls-10" d="M99.35,65.52s-.18,0-.4,0-.39,0-.39-.07.18,0,.4,0S99.35,65.49,99.35,65.52Z"/><path class="cls-10" d="M101,65.54s-.18,0-.4,0-.4,0-.4-.06.18,0,.4,0S101,65.51,101,65.54Z"/><path class="cls-10" d="M102.54,65.55s-.18,0-.4,0-.4,0-.4-.06a.89.89,0,0,1,.4,0C102.36,65.5,102.54,65.52,102.54,65.55Z"/><path class="cls-10" d="M104.13,65.55s-.18,0-.4,0-.39,0-.39,0,.17,0,.39,0S104.13,65.52,104.13,65.55Z"/><path class="cls-10" d="M105.72,65.54s-.17,0-.39,0-.4,0-.4,0a1,1,0,0,1,.4-.05C105.55,65.49,105.72,65.51,105.72,65.54Z"/><path class="cls-10" d="M107.32,65.53s-.18,0-.4,0-.4,0-.4,0a1,1,0,0,1,.4,0C107.14,65.48,107.32,65.5,107.32,65.53Z"/><path class="cls-10" d="M108.91,65.51s-.18,0-.4.06-.4,0-.4,0,.18,0,.4-.06S108.91,65.48,108.91,65.51Z"/><path class="cls-10" d="M110.5,65.49s-.18.06-.4.06-.4,0-.4,0,.18,0,.4,0A.89.89,0,0,1,110.5,65.49Z"/><path class="cls-10" d="M112.09,65.48s-.18,0-.4,0a.89.89,0,0,1-.4,0s.18-.06.4-.06S112.09,65.45,112.09,65.48Z"/><path class="cls-10" d="M113.68,65.47s-.18,0-.4,0-.39,0-.39,0,.17,0,.39,0S113.68,65.44,113.68,65.47Z"/><path class="cls-10" d="M114.87,65.46s-.09.05-.2.05-.19,0-.19-.05.08,0,.19,0S114.87,65.43,114.87,65.46Z"/><path class="cls-10" d="M114.62,65.85h-.9l-2.45,0c-2.06,0-4.92,0-8.07,0-1.58,0-3.08,0-4.45-.06a9.22,9.22,0,0,1-1.93-.15,2.08,2.08,0,0,1-.82-.35,2.41,2.41,0,0,1-.54-.62,1.61,1.61,0,0,1-.19-.72c0-.23,0-.46,0-.66a5.91,5.91,0,0,1,.19-1c.08-.28.15-.49.2-.64l0-.16s0-.06,0-.06a.39.39,0,0,1,0,.06l0,.17c0,.15-.11.36-.18.64a6.13,6.13,0,0,0-.17,1,4.75,4.75,0,0,0,0,.65,1.62,1.62,0,0,0,.18.7,2.65,2.65,0,0,0,.53.59,2,2,0,0,0,.78.33,9.85,9.85,0,0,0,1.93.14c1.36,0,2.86,0,4.44,0,3.15,0,6,0,8.07,0h3.35Z"/><path class="cls-12" d="M105.06,60.48s-10,.91-10.64-3.7c-.64-4.88-.31-5.5-.31-5.5l3.86,0s.21,4.68.64,4.94a14.87,14.87,0,0,0,6.24,1.47Z"/><path class="cls-9" d="M105.06,60.48s0-.06,0-.19l0-.55c0-.49-.1-1.17-.17-2l0,0a31.12,31.12,0,0,1-4.47-.69A3.43,3.43,0,0,1,99,56.54a2.22,2.22,0,0,1-.74-1.17,5.46,5.46,0,0,1-.18-1.22L98,53.07c-.05-.66-.07-1.19-.08-1.56,0-.18,0-.32,0-.42a.85.85,0,0,1,0-.15s0,.05,0,.15v.42c0,.37,0,.9.11,1.56l.09,1.07a5.24,5.24,0,0,0,.19,1.21,2.29,2.29,0,0,0,.71,1.11,3.46,3.46,0,0,0,1.33.52,34.66,34.66,0,0,0,4.45.71h0v0l.13,2,0,.55Z"/><path class="cls-9" d="M105.2,60.47l-.13,0a2.31,2.31,0,0,1-.39.06,10.16,10.16,0,0,1-1.42.08,23,23,0,0,1-4.65-.57,8.83,8.83,0,0,1-2.45-.83,4.32,4.32,0,0,1-.91-.68,3.06,3.06,0,0,1-.6-.79,2.71,2.71,0,0,1-.38-1.36,1.57,1.57,0,0,1,.07-.52,3.52,3.52,0,0,0,0,.52,2.75,2.75,0,0,0,.4,1.33,3.71,3.71,0,0,0,.59.76,4.07,4.07,0,0,0,.9.65,8.46,8.46,0,0,0,2.43.82,24.86,24.86,0,0,0,4.63.6,11.1,11.1,0,0,0,1.42,0l.38,0Z"/><path class="cls-4" d="M97.19,52.12s-.13-.18-.32-.36a3.23,3.23,0,0,0-.38-.29,1.13,1.13,0,0,1,.41.26A1.18,1.18,0,0,1,97.19,52.12Z"/><path class="cls-4" d="M97,51.83a.56.56,0,0,1-.07-.28,1,1,0,0,1,0-.28,1.28,1.28,0,0,1,0,.28C97,51.71,97,51.83,97,51.83Z"/><path class="cls-4" d="M97,51.91a.56.56,0,0,1-.19.06l-.2,0s.08,0,.19-.06Z"/><path class="cls-15" d="M104.93,58.38s1.68,0,1.94.45a8.36,8.36,0,0,1,.5,1.57l-2.29-.09Z"/><path class="cls-4" d="M102.76,59.39a4.76,4.76,0,0,0,.33-.35,4.66,4.66,0,0,0,.26-.41,1,1,0,0,1-.23.43A1.08,1.08,0,0,1,102.76,59.39Z"/><path class="cls-4" d="M103,59.14a.51.51,0,0,1,.27-.09,1,1,0,0,1,.29,0l-.28.05Z"/><path class="cls-4" d="M103,59.22s0-.08-.08-.19a.57.57,0,0,1,0-.2.5.5,0,0,1,.08.19A.65.65,0,0,1,103,59.22Z"/><path class="cls-4" d="M96.06,58.12s.16-.14.33-.35.24-.41.26-.4a1.19,1.19,0,0,1-.23.43A1.12,1.12,0,0,1,96.06,58.12Z"/><path class="cls-4" d="M96.33,57.87a.56.56,0,0,1,.27-.08.81.81,0,0,1,.29,0,1.08,1.08,0,0,1-.28.06C96.45,57.85,96.33,57.88,96.33,57.87Z"/><path class="cls-4" d="M96.25,58s0-.08-.07-.18a.65.65,0,0,1,0-.2s0,.08.08.18A.49.49,0,0,1,96.25,58Z"/><path class="cls-4" d="M100.39,58.38s-.11-.18-.29-.38-.37-.31-.36-.32a1.08,1.08,0,0,1,.39.29A1.23,1.23,0,0,1,100.39,58.38Z"/><path class="cls-4" d="M100.19,58.08a.59.59,0,0,1,0-.29.81.81,0,0,1,0-.28,1.44,1.44,0,0,1,0,.28C100.18,58,100.2,58.08,100.19,58.08Z"/><path class="cls-4" d="M100.25,58.16s-.08,0-.19.05h-.2a.46.46,0,0,1,.19,0A.46.46,0,0,1,100.25,58.16Z"/><path class="cls-4" d="M95.78,54.8s-.11-.18-.3-.38-.36-.31-.35-.32a1.22,1.22,0,0,1,.38.3A1.09,1.09,0,0,1,95.78,54.8Z"/><path class="cls-4" d="M95.58,54.5a.56.56,0,0,1,0-.28.9.9,0,0,1,0-.29,1.51,1.51,0,0,1,0,.29C95.57,54.37,95.59,54.5,95.58,54.5Z"/><path class="cls-4" d="M95.64,54.58s-.08,0-.19.05h-.2s.08,0,.19,0A.46.46,0,0,1,95.64,54.58Z"/><path class="cls-9" d="M95.21,50.84s.08-.1.17-.24a2.07,2.07,0,0,1,.16-.24.7.7,0,0,1-.12.27C95.32,50.76,95.22,50.85,95.21,50.84Z"/><path class="cls-9" d="M97.39,49.44a1.56,1.56,0,0,1-.16-.28,1.65,1.65,0,0,1-.13-.29,1,1,0,0,1,.16.27A1.31,1.31,0,0,1,97.39,49.44Z"/><path class="cls-9" d="M99.54,51.23a3.81,3.81,0,0,1,.27-.32,1.91,1.91,0,0,1,.3-.29,2.35,2.35,0,0,1-.27.32A1.52,1.52,0,0,1,99.54,51.23Z"/><path class="cls-9" d="M99.83,53.85a.48.48,0,0,1-.26-.13.49.49,0,0,1-.18-.24s.08.1.21.21S99.84,53.84,99.83,53.85Z"/><path class="cls-9" d="M101,54a.87.87,0,0,1,0-.23.7.7,0,0,1,.08-.23.86.86,0,0,1,0,.24A.51.51,0,0,1,101,54Z"/><path class="cls-9" d="M99.59,56.27a.85.85,0,0,1-.24-.18,1.05,1.05,0,0,1-.22-.21.85.85,0,0,1,.24.18A1.46,1.46,0,0,1,99.59,56.27Z"/><path class="cls-9" d="M101.13,56.8a.44.44,0,0,1,0-.18.47.47,0,0,1,0-.19.47.47,0,0,1,0,.19A.44.44,0,0,1,101.13,56.8Z"/><path class="cls-9" d="M103.71,55.91a1.36,1.36,0,0,1-.33.17l-.35.12a1.51,1.51,0,0,1,.33-.16A1.8,1.8,0,0,1,103.71,55.91Z"/><path class="cls-9" d="M104.4,53.92a1.3,1.3,0,0,1,0-.27,1.28,1.28,0,0,1,0-.28.84.84,0,0,1,0,.28A.78.78,0,0,1,104.4,53.92Z"/><path class="cls-9" d="M103.26,52.36a.57.57,0,0,1-.29-.1.76.76,0,0,1-.24-.21s.11.09.26.17S103.27,52.35,103.26,52.36Z"/><path class="cls-9" d="M103.46,50.16a1.48,1.48,0,0,1,.23-.25,1.84,1.84,0,0,1,.25-.21,1,1,0,0,1-.22.24A1.4,1.4,0,0,1,103.46,50.16Z"/><path class="cls-9" d="M102.56,48.34a.57.57,0,0,1-.24,0,.72.72,0,0,1-.22-.07s.11,0,.23,0A1.15,1.15,0,0,1,102.56,48.34Z"/><path class="cls-9" d="M99.66,47.59s0-.09.12-.19.14-.17.15-.16-.05.09-.12.19S99.67,47.6,99.66,47.59Z"/><path class="cls-9" d="M100.54,49a1,1,0,0,1-.18-.23,1.4,1.4,0,0,1-.13-.25s.08.09.17.23A1.17,1.17,0,0,1,100.54,49Z"/><path class="cls-9" d="M98.56,51.9a1,1,0,0,1,0-.33,1.52,1.52,0,0,1,0-.33,1.43,1.43,0,0,1,0,.33A1.52,1.52,0,0,1,98.56,51.9Z"/><path class="cls-9" d="M106.15,53.11a1,1,0,0,1-.22-.13c-.12-.08-.21-.15-.2-.16L106,53A.87.87,0,0,1,106.15,53.11Z"/><path class="cls-9" d="M105.15,56a1.3,1.3,0,0,1,.06-.28,1,1,0,0,1,.1-.27,1.3,1.3,0,0,1-.06.28A1,1,0,0,1,105.15,56Z"/><path class="cls-9" d="M106.25,56.85a1.18,1.18,0,0,1-.28-.13,1.32,1.32,0,0,1-.27-.18,1.83,1.83,0,0,1,.29.14A1.28,1.28,0,0,1,106.25,56.85Z"/><path class="cls-9" d="M98.27,60.56a2.3,2.3,0,0,1-.53.42,1.81,1.81,0,0,1,.25-.22A1.35,1.35,0,0,1,98.27,60.56Z"/><path class="cls-9" d="M100.16,61.11a.92.92,0,0,1-.18-.17c-.1-.11-.17-.2-.16-.21s.09.07.19.18S100.17,61.1,100.16,61.11Z"/><path class="cls-9" d="M96,59.68a.52.52,0,0,1-.19.18.45.45,0,0,1-.25.07s.11,0,.23-.11S96,59.67,96,59.68Z"/><path class="cls-9" d="M95.61,52.63a1.38,1.38,0,0,1-.29-.22l-.26-.24a1.76,1.76,0,0,1,.29.21A2.09,2.09,0,0,1,95.61,52.63Z"/><path class="cls-9" d="M97.3,53.61a2,2,0,0,1-.27.29,2.5,2.5,0,0,1-.31.26,2.57,2.57,0,0,1,.28-.29A1.93,1.93,0,0,1,97.3,53.61Z"/><path class="cls-9" d="M95.87,56.41a1.45,1.45,0,0,1-.34-.2,1,1,0,0,1-.29-.27l.31.24A2,2,0,0,1,95.87,56.41Z"/><path class="cls-9" d="M97.94,57.11a1.83,1.83,0,0,1-.09-.44,2.41,2.41,0,0,1,0-.44,3,3,0,0,1,.09.44A2.41,2.41,0,0,1,97.94,57.11Z"/><path class="cls-9" d="M98.92,59a1.37,1.37,0,0,1-.36.13,1.26,1.26,0,0,1-.38,0l.37-.09A3.06,3.06,0,0,1,98.92,59Z"/><path class="cls-9" d="M101.72,58.45a2.21,2.21,0,0,1-.18.41,2.26,2.26,0,0,1-.22.38,2.74,2.74,0,0,1,.18-.4C101.62,58.62,101.71,58.45,101.72,58.45Z"/><path class="cls-9" d="M104.3,59.81,104,60a1.2,1.2,0,0,1-.28.14A1.09,1.09,0,0,1,104,60,1.23,1.23,0,0,1,104.3,59.81Z"/><path class="cls-9" d="M102.73,51.83l.27,0c.17,0,.43-.08.74-.12h0v0l.15,1.14v0h0l-.09.09-.36.34,0,0h0l-.58-.31h0v0c0-.35,0-.64-.06-.84s0-.3,0-.3a2.15,2.15,0,0,1,.06.33c0,.19.07.47.11.8l0,0,.59.3h-.06l.36-.34.09-.09,0,0-.14-1.13,0,0-.72.08A1.72,1.72,0,0,1,102.73,51.83Z"/><path class="cls-9" d="M103.73,52.2a2.18,2.18,0,0,1-.49.06,1.35,1.35,0,0,1-.47,0,1.28,1.28,0,0,1,.48-.08A1.17,1.17,0,0,1,103.73,52.2Z"/><polygon class="cls-11" points="101.43 61.39 101.44 61.04 105.51 60.47 107.53 55.37 115.26 55.37 112.5 61.39 101.43 61.39"/><path class="cls-4" d="M110.8,58.47a.41.41,0,0,1-.55.12.4.4,0,0,1-.12-.54.39.39,0,0,1,.54-.13A.4.4,0,0,1,110.8,58.47Z"/><path class="cls-12" d="M17.76,69.94l1-1.12-2.08-2-1.53,1.62.12.13a34.62,34.62,0,0,0,3.29,3.12C19.15,72,17.76,69.94,17.76,69.94Z"/><path class="cls-2" d="M16,69.17a1,1,0,0,0,.16-.69,1,1,0,0,0-.35-.61l-.54.58Z"/><path class="cls-2" d="M18.41,71s.45.76.27.79a27,27,0,0,1-3.49-3.29l0,0L18,71.07S18.28,70.87,18.41,71Z"/><path class="cls-9" d="M15.2,68.4l0,0,.1.1.36.38c.31.31.74.73,1.23,1.19s.93.87,1.26,1.16l.39.34.11.09,0,0,0,0-.1-.1-.38-.35c-.33-.29-.78-.7-1.26-1.16s-.92-.88-1.23-1.19l-.37-.37-.1-.1Z"/><path class="cls-9" d="M17.94,71.1a1.12,1.12,0,0,1,.24-.11c.14,0,.26,0,.27,0a.48.48,0,0,0-.28,0A.4.4,0,0,0,17.94,71.1Z"/><path class="cls-9" d="M17.62,70.21a.28.28,0,0,0,.14,0,.36.36,0,0,0,.14,0,.33.33,0,0,0-.15,0Z"/><path class="cls-9" d="M17.54,70s.05,0,.12,0,.12,0,.12,0-.06,0-.12,0Z"/><path class="cls-9" d="M17.62,69.67s0,.06.09.11a.89.89,0,0,0,.12.1s0-.06-.09-.12S17.62,69.66,17.62,69.67Z"/><path class="cls-9" d="M17.71,69.5s0,.07.09.14a.29.29,0,0,0,.14.11s-.05-.06-.12-.13S17.72,69.49,17.71,69.5Z"/><path class="cls-9" d="M17.86,70.1l.14.12a.83.83,0,0,0,.17.11l.11,0h.07a.06.06,0,0,0,0-.07.33.33,0,0,0-.36-.22.27.27,0,0,0-.13.05l0,0A.69.69,0,0,1,18,70.1a.3.3,0,0,1,.18,0,.29.29,0,0,1,.15.16s0,0-.06,0l-.11,0L18,70.2C17.92,70.14,17.87,70.09,17.86,70.1Z"/><path class="cls-9" d="M17.89,70.14a.37.37,0,0,0,.11-.08.39.39,0,0,0,.05-.13.19.19,0,0,0-.05-.18.07.07,0,0,0-.09,0,.2.2,0,0,0,0,.08.71.71,0,0,0,0,.14.29.29,0,0,0,0,.12s0-.05,0-.12a.59.59,0,0,1,0-.13c0-.05.05-.11.09-.09a.22.22,0,0,1,0,.14A.34.34,0,0,1,18,70C17.93,70.11,17.89,70.13,17.89,70.14Z"/><path class="cls-9" d="M15.78,67.87l.15.15a1,1,0,0,1,.2.46.93.93,0,0,1-.07.49,1.81,1.81,0,0,1-.1.19l0,0a.6.6,0,0,0,.08-.13,1,1,0,0,0,.09-.51A.9.9,0,0,0,16,68l-.12-.11Z"/><path class="cls-9" d="M16.81,67.21l-.42.41c-.23.24-.4.43-.4.44a5.41,5.41,0,0,0,.42-.41A3.32,3.32,0,0,0,16.81,67.21Z"/><path class="cls-9" d="M16.41,69.22a1.5,1.5,0,0,0,.27.31,1.42,1.42,0,0,0,.33.26l-.31-.28C16.54,69.35,16.41,69.21,16.41,69.22Z"/><path class="cls-9" d="M16,68.83s0,0,0,.08,0,.08,0,.09,0,0,.06-.07S16,68.83,16,68.83Z"/><path class="cls-9" d="M16,68.5s0,0,0,.07,0,.08,0,.08,0,0,0-.08S16,68.5,16,68.5Z"/><path class="cls-9" d="M15.89,68.2s0,0,0,.08,0,.07,0,.07,0,0,0-.09S15.89,68.19,15.89,68.2Z"/><path class="cls-9" d="M15.77,68s0,0,0,0,0,0,0,0a0,0,0,0,0,0,0S15.78,68,15.77,68Z"/><path class="cls-12" d="M37,72.12l-.05-1.53-2.85.09.05,2.23h.18a34.7,34.7,0,0,0,4.53-.12C39.39,72.59,37,72.12,37,72.12Z"/><path class="cls-12" d="M35.13,72.85a.93.93,0,0,0-.38-.59.9.9,0,0,0-.67-.19l0,.79Z"/><path class="cls-2" d="M38.15,72.39s.85.22.75.37a28.15,28.15,0,0,1-4.8.15v-.07l3.8-.07S38,72.4,38.15,72.39Z"/><path class="cls-9" d="M34.06,72.84h.71c.44,0,1,0,1.71,0s1.28,0,1.71-.08l.52,0h0l-.52,0c-.44,0-1,.05-1.71.06l-1.71,0h-.71Z"/><path class="cls-9" d="M37.9,72.81s0-.12.09-.25a1,1,0,0,1,.18-.2.37.37,0,0,0-.21.18A.45.45,0,0,0,37.9,72.81Z"/><path class="cls-9" d="M37.05,72.41a.4.4,0,0,0,.09-.11c0-.07.06-.13,0-.13s0,0-.08.11S37,72.4,37.05,72.41Z"/><path class="cls-9" d="M36.82,72.29s0,0,.1-.07.08-.09.07-.09-.05,0-.1.07S36.81,72.29,36.82,72.29Z"/><path class="cls-9" d="M36.66,72a.42.42,0,0,0,.15,0A.32.32,0,0,0,37,72h-.15A.32.32,0,0,0,36.66,72Z"/><path class="cls-9" d="M36.61,71.84s.07,0,.16,0a.27.27,0,0,0,.18,0h-.17A.55.55,0,0,0,36.61,71.84Z"/><path class="cls-9" d="M37.14,72.16a.62.62,0,0,0,.18,0,.84.84,0,0,0,.2-.05.34.34,0,0,0,.11,0,.07.07,0,0,0,0-.06s0,0,0-.07a.34.34,0,0,0-.41.11.3.3,0,0,0-.06.13v0a.5.5,0,0,1,.08-.16.25.25,0,0,1,.15-.11.28.28,0,0,1,.22,0s0,0,0,.07a.24.24,0,0,1-.1,0l-.19.06Z"/><path class="cls-9" d="M37.19,72.16s0,0,0-.12a.53.53,0,0,0-.06-.14.18.18,0,0,0-.15-.09.08.08,0,0,0-.06.09A.2.2,0,0,0,37,72a.33.33,0,0,0,.09.11s.1.08.1.07l-.09-.09L37,72s0-.11,0-.12.1,0,.13.07a.31.31,0,0,1,0,.12C37.2,72.11,37.18,72.16,37.19,72.16Z"/><path class="cls-9" d="M34.1,72.06a1.16,1.16,0,0,1,.21,0,.92.92,0,0,1,.76.57c0,.13,0,.21.06.21v-.06s0-.09,0-.15a.81.81,0,0,0-.3-.42.85.85,0,0,0-.48-.17.84.84,0,0,0-.16,0Z"/><path class="cls-9" d="M34.36,70.86a3.82,3.82,0,0,0,0,.59,3.71,3.71,0,0,0,0,.59s0-.27,0-.59A4.66,4.66,0,0,0,34.36,70.86Z"/><path class="cls-9" d="M35.49,72.56a1.23,1.23,0,0,0,.41,0,1.5,1.5,0,0,0,.42,0H35.9C35.67,72.56,35.49,72.55,35.49,72.56Z"/><path class="cls-9" d="M34.93,72.58s0,0,0,.08,0,.08,0,.08,0,0,0-.09S34.93,72.57,34.93,72.58Z"/><path class="cls-9" d="M34.71,72.32s0,0,0,.07.06,0,.07,0,0,0,0-.07A.13.13,0,0,0,34.71,72.32Z"/><path class="cls-9" d="M34.4,72.21l.09,0s.07,0,.08,0a.14.14,0,0,0-.07-.06C34.44,72.18,34.4,72.2,34.4,72.21Z"/><path class="cls-9" d="M34.19,72.16s0,0,0,0,.05,0,.05,0,0,0,0,0Z"/><path class="cls-9" d="M30.06,49.78,29,56.57a13.46,13.46,0,0,1-1.44,4.12l-8.42,10-3.8-3.89L23.71,56l2.05-11.1Z"/><path class="cls-9" d="M24.94,47.75l4.79,10.43,3.39,13.34,5.45.07L35,57.13,30.4,42.52l-7.1-1.28-.09.75a7.57,7.57,0,0,0,1.09,4.89A8,8,0,0,0,24.94,47.75Z"/><path class="cls-10" d="M26.59,47.49s-.11-.1-.18-.24-.12-.27-.09-.29.1.1.18.24S26.61,47.48,26.59,47.49Z"/><path class="cls-10" d="M27.12,48.54s-.1-.09-.17-.24-.12-.27-.09-.29.1.1.18.24S27.15,48.53,27.12,48.54Z"/><path class="cls-10" d="M27.64,49.6s-.1-.09-.17-.24-.11-.28-.08-.29.1.1.17.24S27.67,49.59,27.64,49.6Z"/><path class="cls-10" d="M28.15,50.67s-.1-.1-.17-.25-.11-.27-.08-.29.1.1.17.25S28.18,50.66,28.15,50.67Z"/><path class="cls-10" d="M28.64,51.74s-.1-.1-.17-.24-.1-.28-.07-.29.1.09.17.24S28.67,51.73,28.64,51.74Z"/><path class="cls-10" d="M29.12,52.83s-.1-.1-.17-.25a.58.58,0,0,1-.07-.3s.1.11.17.25A.58.58,0,0,1,29.12,52.83Z"/><path class="cls-10" d="M29.58,53.91s-.1-.1-.16-.25-.1-.28-.07-.29.1.1.16.25S29.6,53.9,29.58,53.91Z"/><path class="cls-10" d="M30,55s-.09-.11-.16-.26-.08-.28-.06-.29.1.1.16.26S30.05,55,30,55Z"/><path class="cls-10" d="M30.45,56.11s-.09-.11-.15-.26-.09-.28-.06-.29.09.1.15.26S30.48,56.1,30.45,56.11Z"/><path class="cls-10" d="M30.86,57.22s-.09-.11-.15-.26-.08-.29-.05-.3.09.11.15.26S30.89,57.21,30.86,57.22Z"/><path class="cls-10" d="M31.26,58.33s-.09-.11-.15-.26a.6.6,0,0,1-.05-.3s.1.11.15.26S31.29,58.32,31.26,58.33Z"/><path class="cls-10" d="M31.64,59.45s-.09-.11-.14-.27-.08-.28-.05-.29.09.11.14.26S31.67,59.44,31.64,59.45Z"/><path class="cls-10" d="M32,60.57s-.09-.11-.14-.26a.53.53,0,0,1,0-.3s.09.11.14.26S32,60.56,32,60.57Z"/><path class="cls-10" d="M32.35,61.7s-.09-.11-.14-.27-.06-.29,0-.29.09.11.13.26S32.38,61.69,32.35,61.7Z"/><path class="cls-10" d="M32.68,62.83s-.09-.11-.13-.27-.06-.29,0-.29.08.11.13.27S32.71,62.83,32.68,62.83Z"/><path class="cls-10" d="M33,64s-.08-.11-.12-.27-.06-.29,0-.3.08.12.13.27S33,64,33,64Z"/><path class="cls-10" d="M33.29,65.12s-.08-.12-.12-.28-.05-.29,0-.3a.6.6,0,0,1,.12.28C33.31,65,33.32,65.11,33.29,65.12Z"/><path class="cls-10" d="M33.57,66.26s-.08-.11-.12-.27a.66.66,0,0,1,0-.3s.09.12.12.27S33.6,66.26,33.57,66.26Z"/><path class="cls-10" d="M33.84,67.41s-.08-.11-.12-.27,0-.3,0-.3.08.12.11.28S33.87,67.41,33.84,67.41Z"/><path class="cls-10" d="M34.09,68.57s-.08-.12-.11-.28,0-.29,0-.3a.65.65,0,0,1,.11.28C34.11,68.43,34.12,68.56,34.09,68.57Z"/><path class="cls-10" d="M34.32,69.73s-.07-.12-.11-.28,0-.3,0-.3.07.12.1.28S34.35,69.72,34.32,69.73Z"/><path class="cls-10" d="M34.49,70.59s-.07,0-.08-.13,0-.15,0-.15.06,0,.08.13S34.51,70.59,34.49,70.59Z"/><polygon class="cls-10" points="32.84 70.59 33.12 71.52 38.57 71.59 38.35 70.69 32.84 70.59"/><path class="cls-10" d="M34.05,70.68s0,0,0-.07L34,70.43l-.18-.71c-.16-.63-.39-1.53-.68-2.63s-.64-2.43-1-3.89-.82-3.07-1.34-4.74c-.26-.83-.55-1.63-.86-2.4s-.62-1.49-.92-2.19c-.6-1.39-1.17-2.62-1.66-3.66s-.88-1.87-1.16-2.45l-.31-.67-.08-.18a.28.28,0,0,1,0-.06l0,.06.09.17.33.66c.29.57.7,1.4,1.19,2.44s1.07,2.27,1.68,3.65c.3.7.62,1.43.92,2.2s.61,1.56.87,2.4c.52,1.67.94,3.28,1.33,4.74s.72,2.79,1,3.9l.65,2.64.16.71,0,.19A.24.24,0,0,0,34.05,70.68Z"/><path class="cls-10" d="M17.05,66.16s-.05.13-.16.26-.21.21-.23.19.05-.14.15-.26S17,66.14,17.05,66.16Z"/><path class="cls-10" d="M17.8,65.25s0,.14-.15.26-.2.21-.22.2,0-.14.14-.26S17.78,65.23,17.8,65.25Z"/><path class="cls-10" d="M18.55,64.33s-.05.14-.15.27-.2.21-.23.19,0-.13.15-.26S18.52,64.32,18.55,64.33Z"/><path class="cls-10" d="M19.28,63.41s0,.13-.14.26-.2.22-.23.2.05-.13.15-.26S19.26,63.39,19.28,63.41Z"/><path class="cls-10" d="M20,62.48s-.05.14-.15.27-.2.21-.22.2,0-.14.14-.27S20,62.47,20,62.48Z"/><path class="cls-10" d="M20.75,61.56s0,.13-.14.26-.21.22-.23.2,0-.14.15-.26S20.73,61.54,20.75,61.56Z"/><path class="cls-10" d="M21.49,60.64s0,.13-.15.26-.2.21-.22.2,0-.14.14-.26S21.47,60.62,21.49,60.64Z"/><path class="cls-10" d="M22.24,59.73s0,.13-.15.26-.2.21-.23.19.05-.13.15-.26S22.22,59.71,22.24,59.73Z"/><path class="cls-10" d="M23,58.83s-.05.13-.16.25-.21.21-.23.19.05-.13.16-.25S23,58.81,23,58.83Z"/><path class="cls-10" d="M23.77,57.93s0,.13-.15.26-.21.21-.23.19.05-.14.15-.26S23.75,57.91,23.77,57.93Z"/><path class="cls-10" d="M24.52,57s0,.13-.15.26-.2.22-.22.2,0-.13.14-.26S24.49,57,24.52,57Z"/><path class="cls-10" d="M25,56s0,.14,0,.3a.77.77,0,0,1-.07.2s-.05.08-.06.07,0,0,0-.09a1,1,0,0,1,.05-.21A.6.6,0,0,1,25,56Z"/><path class="cls-10" d="M25.3,54.81s0,.14,0,.29-.09.29-.12.28,0-.14,0-.3S25.27,54.8,25.3,54.81Z"/><path class="cls-10" d="M25.53,53.65s0,.14,0,.3-.08.28-.11.28,0-.14,0-.3S25.51,53.64,25.53,53.65Z"/><path class="cls-10" d="M25.74,52.49s0,.14,0,.3-.07.28-.1.28,0-.14,0-.3S25.71,52.48,25.74,52.49Z"/><path class="cls-10" d="M25.93,51.32s0,.14,0,.3-.07.29-.1.28,0-.13,0-.3A.57.57,0,0,1,25.93,51.32Z"/><path class="cls-10" d="M26.1,50.34s0,.1,0,.21-.05.19-.08.19,0-.1,0-.21S26.07,50.33,26.1,50.34Z"/><polygon class="cls-10" points="15.29 66.81 16.05 65.81 19.79 69.88 19.09 70.7 15.29 66.81"/><path class="cls-17" d="M25.15,48.2S28.24,59.15,28.28,59s.67-2.46.67-2.46Z"/><path class="cls-13" d="M29,33.52l3.31-.5s1.55,3.37,2,3.49a15.3,15.3,0,0,0,5.89.13c.11-.08.23-.19.37-.31a1.45,1.45,0,0,0,.3-.39,2.55,2.55,0,0,0,.23-.56.19.19,0,0,1,.34-.09,1.52,1.52,0,0,1-.31,1.16c-.33.5.57.22.9.12a5.44,5.44,0,0,1,1.47-.28c.16.11.07.31-.26.4s-1.31.43-1.24.6,1.72-.36,1.72-.36.34-.17.41,0-1.67.78-1.84.82-.06.21.06.18,1.65-.57,1.8-.21-1.49.37-1.74.65,1.2-.19,1.29.07c0,.1.05.18-.82.33a17.27,17.27,0,0,1-1.92.15h0s-8.16,1.94-10-1.62A27.75,27.75,0,0,1,29,33.52Z"/><path class="cls-10" d="M29.34,26a.85.85,0,0,1,1,.08,4.09,4.09,0,0,1,.72.83,1.34,1.34,0,0,0,.89.57.94.94,0,0,1-.64.64,1,1,0,0,1-.89-.2.81.81,0,0,1,.26.26.26.26,0,0,1,0,.33.34.34,0,0,1-.28.06,1.79,1.79,0,0,1-1.18-.66,1.77,1.77,0,0,1-.35-1.3,1.22,1.22,0,0,1,.25-.61.73.73,0,0,1,.6-.26"/><path class="cls-13" d="M29.08,29.12a11.8,11.8,0,0,1,0-1.35,1.41,1.41,0,0,0,1.26-1.3c.08-1.18,0-3.9,0-3.9l-2.16-1.05L26,23.33,26,29.09l-1.19,0,3.78,5.21a30.63,30.63,0,0,0,1.24-5.12Z"/><path class="cls-4" d="M28.5,25.91a2.84,2.84,0,0,0,.79.27.46.46,0,0,1-.54.16A.35.35,0,0,1,28.5,25.91Z"/><path class="cls-14" d="M29.08,27.77a3,3,0,0,1-1.56-.52,1.53,1.53,0,0,0,1.54.81Z"/><path class="cls-10" d="M24.19,23.66a3.85,3.85,0,0,1,3.23-2.91,2.54,2.54,0,0,1,2.43,1,2.59,2.59,0,0,1,.44.61,2.68,2.68,0,0,1,.52,1.11,1.45,1.45,0,0,1,0,.58s0-.22-.12-.56a3.05,3.05,0,0,0-.22-.58,2.26,2.26,0,0,1-.12,1.36L30,24.11l-1.5-.51a2.24,2.24,0,0,0-.18-1.31h0A2.64,2.64,0,0,1,26,24.23l.1,3.34c-2-.42-2-2.6-2-3.14A6.2,6.2,0,0,1,24.19,23.66Z"/><path class="cls-9" d="M29,25.76a1,1,0,0,1,.27,0s.08,0,.09,0a.24.24,0,0,0,0-.13c0-.11-.07-.22-.11-.34s-.14-.46-.19-.61a1.29,1.29,0,0,1-.06-.27,1.38,1.38,0,0,1,.11.25c.05.16.13.37.2.61l.11.34a.32.32,0,0,1,0,.17.19.19,0,0,1-.07.06H29Z"/><path class="cls-9" d="M26.3,24.8l.78-.13a1.23,1.23,0,0,1,0-.19.9.9,0,0,1,.19-.56.91.91,0,0,1,.44-.34,1,1,0,0,1,.5,0,1,1,0,0,1,.4.18.94.94,0,0,1,.33.52.59.59,0,0,1,0,.17v.06s0-.08,0-.22a1,1,0,0,0-.34-.5.88.88,0,0,0-.38-.16,1,1,0,0,0-.47,0,.9.9,0,0,0-.41.31.87.87,0,0,0,0,1.06.9.9,0,0,0,.41.31,1,1,0,0,0,.47,0,1,1,0,0,0,.38-.16,1,1,0,0,0,.34-.5.67.67,0,0,0,0-.17s-.05,0-.05,0,0,0,.06,0h.25a1,1,0,0,1,.18-.56,1,1,0,0,1,.45-.34,1,1,0,0,1,.5,0,1,1,0,0,1,.4.18.94.94,0,0,1,.33.52.59.59,0,0,1,0,.17v.06s0-.08,0-.22a1,1,0,0,0-.34-.5.88.88,0,0,0-.38-.16,1,1,0,0,0-.47,0,.9.9,0,0,0-.41.31,1,1,0,0,0-.18.53.91.91,0,0,0,.18.53.9.9,0,0,0,.41.31,1,1,0,0,0,.47,0,1,1,0,0,0,.38-.16,1,1,0,0,0,.34-.5c0-.14,0-.22,0-.22v.06a.59.59,0,0,1,0,.17.94.94,0,0,1-.33.52,1,1,0,0,1-.4.18,1,1,0,0,1-.5,0,1,1,0,0,1-.63-.85h-.25a.59.59,0,0,1,0,.17.94.94,0,0,1-.33.52,1,1,0,0,1-.4.18,1,1,0,0,1-.5,0,.91.91,0,0,1-.44-.34.86.86,0,0,1-.16-.35l-.78.18a6.72,6.72,0,0,1-.82.13A4.54,4.54,0,0,1,26.3,24.8Z"/><path class="cls-10" d="M24.74,26.42a.85.85,0,0,0-1,.08,4.65,4.65,0,0,0-.71.82,1.36,1.36,0,0,1-.89.58.92.92,0,0,0,.64.64,1,1,0,0,0,.89-.2.81.81,0,0,0-.27.25.3.3,0,0,0,0,.34.37.37,0,0,0,.29.06,1.74,1.74,0,0,0,1.52-2,1.14,1.14,0,0,0-.25-.61.71.71,0,0,0-.59-.26"/><path class="cls-9" d="M25.25,27.33s0-.09,0-.22a1,1,0,0,0-.2-.47.91.91,0,0,0-.41-.28c-.12-.05-.21-.05-.21-.07a.36.36,0,0,1,.23,0,.76.76,0,0,1,.47.29.8.8,0,0,1,.19.52C25.29,27.25,25.26,27.33,25.25,27.33Z"/><path class="cls-10" d="M31.88,26.55s0,0,.1,0a.28.28,0,0,1,.23.18.36.36,0,0,1-.11.41.55.55,0,0,1-.51.11,1.27,1.27,0,0,1-.46-.25,2,2,0,0,1-.29-.29.79.79,0,0,1-.19-.34s.08.12.24.29a2.8,2.8,0,0,0,.3.27,1.4,1.4,0,0,0,.42.22.48.48,0,0,0,.43-.08.3.3,0,0,0,.11-.32.27.27,0,0,0-.18-.16Z"/><path class="cls-10" d="M24.17,26.6s-.12,0-.3.15-.41.3-.68.5a2.12,2.12,0,0,1-.42.22.93.93,0,0,1-.39.05c-.23,0-.34-.12-.33-.13a1.17,1.17,0,0,0,.33.06,1.3,1.3,0,0,0,.75-.29,5.7,5.7,0,0,1,.7-.47A.6.6,0,0,1,24.17,26.6Z"/><path class="cls-9" d="M25.17,24.1s.21,0,.56,0A2.72,2.72,0,0,0,28,22.85c.19-.28.26-.49.28-.48s0,.05,0,.15a2,2,0,0,1-.18.37,2.54,2.54,0,0,1-1,1,2.4,2.4,0,0,1-1.73.29Z"/><path class="cls-12" d="M31.22,36.85l3-2.16L30.86,30h0a2,2,0,0,0-1.7-.88s.45,2.83-1.34,2.86-2-2.85-2-2.85v-.05h-.28l-.35,0-.55,0,0,.06a3.29,3.29,0,0,0-1.17.38c-.63.44-3.9,4.2-3.9,4.2l3.41,2.51.72-1L24,36.69c.29,1.16-1.11,3.91-1.07,5.19l8.61.95-.3-4.36Z"/><path class="cls-17" d="M31.22,36.85l3-2.16L30.86,30h0a2,2,0,0,0-1.7-.88s.45,2.83-1.34,2.86-2-2.85-2-2.85v-.05h-.28l-.35,0-.55,0,0,.06a3.29,3.29,0,0,0-1.17.38c-.63.44-3.9,4.2-3.9,4.2l3.41,2.51.72-1L24,36.69c.29,1.16-1.11,3.91-1.07,5.19l8.61.95-.3-4.36Z"/><path class="cls-4" d="M32.72,32.77s0,0-.14,0a.84.84,0,0,0-.4.12,2.23,2.23,0,0,0-.47.46,2.56,2.56,0,0,1-.64.63,2.14,2.14,0,0,1-1,.34A2.06,2.06,0,0,1,28.83,34a12.24,12.24,0,0,0-1.12-.76,1.63,1.63,0,0,0-1.37.15c-.45.23-.83.55-1.26.77a2.22,2.22,0,0,1-.67.23,1.94,1.94,0,0,1-.68,0,2,2,0,0,1-1.1-.58,4,4,0,0,0-.78-.72,1.7,1.7,0,0,0-.84-.19,1.61,1.61,0,0,0-1,.39l-.11.1.1-.11a1.3,1.3,0,0,1,.34-.25,1.67,1.67,0,0,1,.65-.18,1.61,1.61,0,0,1,.88.18,3.85,3.85,0,0,1,.81.72,2,2,0,0,0,1.06.55A2,2,0,0,0,25,34.11c.41-.22.79-.54,1.25-.77A2.65,2.65,0,0,1,27,33.1a1.29,1.29,0,0,1,.73.09,8.39,8.39,0,0,1,1.14.77,2,2,0,0,0,1.15.28,2.23,2.23,0,0,0,1-.32,2.3,2.3,0,0,0,.63-.61,2,2,0,0,1,.5-.45.78.78,0,0,1,.41-.11A.44.44,0,0,1,32.72,32.77Z"/><path class="cls-4" d="M31.38,30.74a2,2,0,0,0-.38.11,2,2,0,0,0-.41.23,4.86,4.86,0,0,0-.48.39,5.09,5.09,0,0,1-.59.48,2.78,2.78,0,0,1-.79.39,3,3,0,0,1-1,.15,3.12,3.12,0,0,1-1-.19,11.08,11.08,0,0,1-1.75-1,6.2,6.2,0,0,0-.77-.39,3.61,3.61,0,0,0-.72-.21,2.38,2.38,0,0,0-1.07.05c-.25.07-.37.15-.38.14l.09-.06a1.87,1.87,0,0,1,.27-.12,2.45,2.45,0,0,1,1.1-.08,3.28,3.28,0,0,1,.74.2,6.41,6.41,0,0,1,.79.39,11.39,11.39,0,0,0,1.74.94,2.9,2.9,0,0,0,1,.19,3.07,3.07,0,0,0,.93-.14,2.9,2.9,0,0,0,.77-.37,5.07,5.07,0,0,0,.59-.47,4.74,4.74,0,0,1,.5-.38,2.51,2.51,0,0,1,.43-.22,1.67,1.67,0,0,1,.29-.07Z"/><path class="cls-4" d="M26,29.91s-.14-.05-.36-.12a3.65,3.65,0,0,0-.86-.2,3.59,3.59,0,0,0-.88,0,2.4,2.4,0,0,1-.37,0,1,1,0,0,1,.36-.11,2.83,2.83,0,0,1,.9,0,3.17,3.17,0,0,1,.88.23l.25.13C25.93,29.88,26,29.9,26,29.91Z"/><path class="cls-4" d="M30.54,29.64s-.05.08-.15.16a1.43,1.43,0,0,1-.48.25,1.59,1.59,0,0,1-.53.08.44.44,0,0,1-.22-.05,4.85,4.85,0,0,0,.72-.13A5.68,5.68,0,0,0,30.54,29.64Z"/><path class="cls-4" d="M33.48,35.19s0,0-.07.08a1.37,1.37,0,0,1-.25.16,1.88,1.88,0,0,1-1.06.11c-.23,0-.47-.08-.73-.13a3.72,3.72,0,0,0-.83-.07,7.37,7.37,0,0,0-1.88.35,17.92,17.92,0,0,1-1.88.52,4.22,4.22,0,0,1-1.58,0,2.66,2.66,0,0,1-1-.39,1.86,1.86,0,0,1-.23-.18l-.07-.07.08.06.24.16a2.73,2.73,0,0,0,1,.35,4.37,4.37,0,0,0,1.56,0c.58-.12,1.2-.33,1.86-.52a6.66,6.66,0,0,1,1.91-.35,3.84,3.84,0,0,1,.85.08c.26.05.5.11.72.14a2,2,0,0,0,1-.08A1.63,1.63,0,0,0,33.48,35.19Z"/><path class="cls-9" d="M25.6,33a3,3,0,0,1-.39.48c-.25.29-.59.69-1,1.15l-.94,1.16a3.21,3.21,0,0,1-.39.48,2.77,2.77,0,0,1,.34-.52c.22-.31.54-.74.91-1.19s.72-.85,1-1.13A3,3,0,0,1,25.6,33Z"/><path class="cls-9" d="M30.69,36.78s.17-.22.42-.59a2.46,2.46,0,0,0,.33-.69,1.33,1.33,0,0,0,0-.45,1.57,1.57,0,0,0-.12-.46,3.9,3.9,0,0,0-.5-.8,4.71,4.71,0,0,1-.44-.66,1.85,1.85,0,0,1-.18-.51c0-.13,0-.2,0-.2a.67.67,0,0,1,0,.19,2.36,2.36,0,0,0,.2.48,5.93,5.93,0,0,0,.45.64,3.49,3.49,0,0,1,.52.82,1.48,1.48,0,0,1,.13.5,1.24,1.24,0,0,1-.06.47,2.25,2.25,0,0,1-.36.71,3.49,3.49,0,0,1-.34.41Z"/><path class="cls-9" d="M29.25,29.14s0,.11,0,.3,0,.46,0,.8A2.67,2.67,0,0,1,29,31.4a1.25,1.25,0,0,1-.5.52,1.41,1.41,0,0,1-.76.15,1.67,1.67,0,0,1-.73-.25,1.87,1.87,0,0,1-.51-.5A2.82,2.82,0,0,1,26,30.23a5.75,5.75,0,0,1-.13-.79,1.34,1.34,0,0,1,0-.3,1.38,1.38,0,0,1,.06.29,6.37,6.37,0,0,0,.16.78,3.22,3.22,0,0,0,.49,1.06,1.7,1.7,0,0,0,1.18.7,1.26,1.26,0,0,0,.7-.14,1.18,1.18,0,0,0,.47-.47,2.6,2.6,0,0,0,.26-1.13c0-.33,0-.61.05-.8a2,2,0,0,1,0-.21A.73.73,0,0,1,29.25,29.14Z"/><path class="cls-12" d="M37.44,46.17l.39-8.09a1.19,1.19,0,0,0-1.13-1.24L13.24,35.73A1.18,1.18,0,0,0,12,36.85l-.38,8.09a1.17,1.17,0,0,0,1.12,1.23l20.25,1,2.09,2.24.16-2.13,1,0A1.17,1.17,0,0,0,37.44,46.17Z"/><rect class="cls-6" x="22.54" y="39.82" width="12.45" height="0.69" transform="translate(1.94 -1.32) rotate(2.73)"/><rect class="cls-6" x="22.46" y="41.58" width="12.45" height="0.69" transform="matrix(1, 0.05, -0.05, 1, 2.03, -1.32)"/><rect class="cls-6" x="22.38" y="43.14" width="6.17" height="0.69" transform="translate(2.1 -1.16) rotate(2.73)"/><circle class="cls-7" cx="16.87" cy="41.14" r="4.1"/><path class="cls-15" d="M18.91,40.2l0,0a1.28,1.28,0,0,1-.52.12c-1.1.11-1.83-.56-2.39-.64s-.54.57-.54.57l0,1.55h-.27c-.06-.38-.13-.92-.13-.92a.45.45,0,0,0-.23,0c-.22,0-.53.18-.51.75a.56.56,0,0,0,.76.59l-.1,2.52a4,4,0,0,0,2.53.45c0-.24.05-.51.07-.71a1.27,1.27,0,0,1-1.27-.8,2.32,2.32,0,0,0,1.3.53v0a1.24,1.24,0,0,0,1.17-1.08C18.81,42.41,18.88,41,18.91,40.2Zm-4,1.71a.2.2,0,0,1-.14,0,.41.41,0,0,1-.24-.38.51.51,0,0,1,0-.25.22.22,0,0,1,.16-.14.15.15,0,0,1,.09,0,.09.09,0,0,1,0,.06.05.05,0,0,1,0,0,.18.18,0,0,0,0,0,.09.09,0,0,0-.09,0,.17.17,0,0,0-.11.13.4.4,0,0,0,0,.22.36.36,0,0,0,.19.33.14.14,0,0,0,.11,0,.07.07,0,0,0,0,0S14.89,41.89,14.87,41.91Zm1.83-.75s0,0,.06-.07a.32.32,0,0,1,.21,0,.34.34,0,0,1,.2.09.19.19,0,0,1,0,.08s-.12-.07-.26-.08S16.71,41.18,16.7,41.16Zm.45.26a.15.15,0,1,1,0-.21A.15.15,0,0,1,17.15,41.42Zm1.17-.28a.31.31,0,0,1,.21,0,.34.34,0,0,1,.2.1s.05.07,0,.08a1.28,1.28,0,0,0-.25-.09c-.14,0-.25,0-.27,0S18.27,41.17,18.32,41.14ZM18,42l.07.3a.29.29,0,0,1,0,.16.1.1,0,0,1-.07.05h-.07l-.23,0a.65.65,0,0,1,.23,0s.07,0,.08,0a.89.89,0,0,0,0-.11l-.08-.3a4.11,4.11,0,0,1-.16-.79A4.32,4.32,0,0,1,18,42Zm-.58,1c-.29-.15-.19-.38-.19-.38s.38.26.67.28A.39.39,0,0,1,17.37,43Zm1.34-1.46a.14.14,0,0,1-.21,0,.16.16,0,0,1,0-.22.15.15,0,0,1,.2.23Z"/><path class="cls-9" d="M18.72,41.28a.15.15,0,0,0-.21,0,.16.16,0,0,0,0,.22.15.15,0,0,0,.22-.2Z"/><path class="cls-9" d="M18.52,41.18a1.28,1.28,0,0,1,.25.09s0,0,0-.08a.34.34,0,0,0-.2-.1.31.31,0,0,0-.21,0c-.05,0-.07.06-.07.07S18.38,41.16,18.52,41.18Z"/><path class="cls-9" d="M17.12,41.21a.15.15,0,1,0,0,.21A.15.15,0,0,0,17.12,41.21Z"/><path class="cls-9" d="M17.22,41.22a.19.19,0,0,0,0-.08.34.34,0,0,0-.2-.09.32.32,0,0,0-.21,0c-.05,0-.07.06-.06.07s.12,0,.26,0S17.2,41.24,17.22,41.22Z"/><path class="cls-9" d="M18,42.3a.89.89,0,0,1,0,.11s0,0-.08,0a.65.65,0,0,0-.23,0l.23,0H18a.1.1,0,0,0,.07-.05.29.29,0,0,0,0-.16L18,42a4.32,4.32,0,0,0-.24-.77,4.11,4.11,0,0,0,.16.79Z"/><path class="cls-4" d="M17.18,42.57s-.1.23.19.38a.39.39,0,0,0,.48-.1C17.56,42.83,17,42.46,17.18,42.57Z"/><path class="cls-16" d="M16.25,43.68a1.27,1.27,0,0,0,1.27.8h0l0-.25v0A2.32,2.32,0,0,1,16.25,43.68Z"/><path class="cls-9" d="M15.13,41.81h.27l0-1.55s0-.66.54-.57,1.29.75,2.39.64a1.28,1.28,0,0,0,.52-.12l0,0a.49.49,0,0,0,.24-.42.34.34,0,0,0-.36-.32.4.4,0,0,0,.38-.48.39.39,0,0,0-.56-.25,1.17,1.17,0,0,0,.31-.36.39.39,0,0,0-.05-.45.45.45,0,0,0-.45-.05c-.22.09-.4.26-.63.33a2.47,2.47,0,0,1-.72,0,1.26,1.26,0,0,0-.76.22.86.86,0,0,0-.37.68,1.3,1.3,0,0,0-1,.12,1,1,0,0,0-.36.75,3,3,0,0,0,.16.84h0l0,.05a.45.45,0,0,1,.23,0S15.07,41.43,15.13,41.81Z"/><path class="cls-16" d="M14.85,41.89a.14.14,0,0,1-.11,0,.36.36,0,0,1-.19-.33.4.4,0,0,1,0-.22.17.17,0,0,1,.11-.13.09.09,0,0,1,.09,0,.18.18,0,0,1,0,0,.05.05,0,0,0,0,0,.09.09,0,0,0,0-.06.15.15,0,0,0-.09,0,.22.22,0,0,0-.16.14.51.51,0,0,0,0,.25.41.41,0,0,0,.24.38.2.2,0,0,0,.14,0s0,0,0,0A.07.07,0,0,1,14.85,41.89Z"/><path class="cls-13" d="M22.34,45.35c-.39-.24-.87-.57-.92-.79h0l-.06-.35a31.79,31.79,0,0,1-.12-6.4,8.3,8.3,0,0,1,1.42-1.74l-2.47-1.82c-.13.15-.26.32-.39.49-2.1,2.62-1.36,7.85-.95,9.94h0l.22,1.15s.19,1.25.35,1.33.26-.11.26-.11.18.21.32.2.27-.36.27-.36.16.27.32.27.24-.32.24-.32a.52.52,0,0,0,.45.26.31.31,0,0,0,.27-.23s-.27-1.18-.12-1.3.41.1.51.14.7.3,1,.13S22.73,45.59,22.34,45.35Z"/><polygon class="cls-13" points="114.22 39.76 114.98 40.52 116.5 39.92 116.5 38.55 116.35 38.1 114.53 37.95 114.38 37.95 114.07 37.95 113.77 38.1 113.77 38.4 114.22 39.76"/></g></g></svg>