<svg xmlns="http://www.w3.org/2000/svg" viewBox="0 0 119.97 123.19"><defs><style>.cls-1{fill:#22b573;}</style></defs><title>logo</title><g id="Layer_2" data-name="Layer 2"><g id="Layer_1-2" data-name="Layer 1"><path class="cls-1" d="M117.61,43.33a60,60,0,0,1-78.88,72.8,6.55,6.55,0,0,1,.69-12.44h0a10,10,0,0,0,6.92-12.9A10.21,10.21,0,0,0,34,84.43L16.63,89A10.25,10.25,0,0,1,4.56,83,60.09,60.09,0,0,1,42,2.76,59.89,59.89,0,0,1,97.09,12.87a5.72,5.72,0,0,1-2.11,10l-36.07,9.5A10,10,0,0,0,52,45.28,10.2,10.2,0,0,0,64.3,51.64L111,39.33a5.32,5.32,0,0,1,6.45,3.58Z"/><circle class="cls-1" cx="12.89" cy="110.56" r="12.63"/></g></g></svg>