<svg xmlns="http://www.w3.org/2000/svg" xmlns:xlink="http://www.w3.org/1999/xlink" viewBox="0 0 144.22 106.08"><defs><style>.cls-1{fill:url(#linear-gradient);}.cls-2{fill:#fff;}.cls-3{fill:#555794;}.cls-4{fill:#6d70bb;}.cls-5{fill:#7477c8;}.cls-6{fill:#8a8eef;}.cls-7{fill:#cba95d;}.cls-8{fill:#353d40;}.cls-9{fill:#dda389;}.cls-10{fill:#022536;}.cls-11{fill:#0b415e;}.cls-12{fill:#526aa8;}.cls-13{fill:#a9cdeb;}.cls-14{fill:#d6ecfd;}.cls-15{fill:#ffd5be;}.cls-16{fill:#7092ba;}.cls-17{fill:#f47d79;}.cls-18{fill:#d9544e;}.cls-19{fill:#5a514e;}.cls-20{fill:#1f2931;}.cls-21{fill:#aca294;}.cls-22{fill:#d4cbbc;}.cls-23{fill:#919191;}.cls-24{fill:#ddd;}.cls-25{fill:#94bfe7;}.cls-26{fill:#afdafc;}.cls-27{fill:#dcf6ac;}.cls-28{fill:#87c0f9;}.cls-29{fill:#2f435e;}.cls-30{fill:#222020;}.cls-31{fill:#885035;}.cls-32{fill:#ffcfe0;}.cls-33{fill:none;}.cls-34{fill:#ffabc3;}.cls-35{fill:#bc8757;}.cls-36{fill:#ffc863;}.cls-37{fill:#98cffb;}.cls-38{fill:#5d7acd;}.cls-39{fill:#847979;}.cls-40{fill:#ffe562;}.cls-41{fill:#ffec9e;}.cls-42{fill:#f6ca69;}</style><linearGradient id="linear-gradient" y1="96.46" x2="144.22" y2="96.46" gradientUnits="userSpaceOnUse"><stop offset="0" stop-color="#fbebe3"/><stop offset="1" stop-color="#e9dad4"/></linearGradient></defs><title>help</title><g id="Layer_2" data-name="Layer 2"><g id="Layer_1-2" data-name="Layer 1"><path class="cls-1" d="M2.22,86.84h142s-33,6-45,13-24.5,8.5-33.5,2.5-58.5-5.5-63.5-10.5S2.22,86.84,2.22,86.84Z"/><path class="cls-2" d="M72.93,33.56h0c-.43,0-.89.42-.21.42h0c.43,0,.89-.42.21-.42Z"/><polygon class="cls-3" points="61.97 91.06 60.37 91.06 68.13 52.88 69.73 52.88 61.97 91.06"/><polygon class="cls-4" points="73.31 59.62 67.39 59.62 67.52 58.94 73.45 58.94 73.31 59.62"/><polygon class="cls-4" points="74.31 54.69 68.39 54.69 68.53 54.01 74.45 54.01 74.31 54.69"/><polygon class="cls-4" points="72.31 64.55 66.38 64.55 66.52 63.87 72.45 63.87 72.31 64.55"/><polygon class="cls-4" points="71.31 69.47 65.38 69.47 65.52 68.8 71.45 68.8 71.31 69.47"/><polygon class="cls-4" points="70.31 74.4 64.38 74.4 64.52 73.72 70.45 73.72 70.31 74.4"/><polygon class="cls-4" points="69.31 79.33 63.38 79.33 63.52 78.65 69.45 78.65 69.31 79.33"/><polygon class="cls-4" points="68.31 84.26 62.38 84.26 62.52 83.58 68.45 83.58 68.31 84.26"/><polygon class="cls-4" points="67.31 89.19 61.38 89.19 61.52 88.51 67.44 88.51 67.31 89.19"/><polygon class="cls-3" points="67.37 91.06 65.78 91.06 73.53 52.88 75.13 52.88 67.37 91.06"/><polygon class="cls-5" points="81.41 91.06 83 91.06 75.25 52.88 73.65 52.88 81.41 91.06"/><polygon class="cls-6" points="70.06 59.62 75.99 59.62 75.85 58.94 69.92 58.94 70.06 59.62"/><polygon class="cls-6" points="69.06 54.69 74.99 54.69 74.85 54.01 68.92 54.01 69.06 54.69"/><polygon class="cls-6" points="71.06 64.55 76.99 64.55 76.85 63.87 70.92 63.87 71.06 64.55"/><polygon class="cls-6" points="72.06 69.47 77.99 69.47 77.85 68.8 71.93 68.8 72.06 69.47"/><polygon class="cls-6" points="73.06 74.4 78.99 74.4 78.86 73.72 72.93 73.72 73.06 74.4"/><polygon class="cls-6" points="74.07 79.33 79.99 79.33 79.86 78.65 73.93 78.65 74.07 79.33"/><polygon class="cls-6" points="75.07 84.26 81 84.26 80.86 83.58 74.93 83.58 75.07 84.26"/><polygon class="cls-6" points="76.07 89.19 82 89.19 81.86 88.51 75.93 88.51 76.07 89.19"/><polygon class="cls-5" points="76 91.06 77.6 91.06 69.84 52.88 68.24 52.88 76 91.06"/><path class="cls-7" d="M61.94,12.19c0-1.69-1.31-3.44-2.18-4.75s-2.19-2.69-2.13-4.26A3.71,3.71,0,0,1,60.76.06C66-.82,68.32,8.69,69,12.25Z"/><path class="cls-8" d="M68.65,54.2c-.2.18-2.38,1.13-1.74,1.36A15.15,15.15,0,0,0,71,55a2.6,2.6,0,0,0,.09-.76c-.68.29-1.05.35-1.64.56C69.19,54.65,68.91,54.24,68.65,54.2Z"/><path class="cls-9" d="M71.05,42.41c.08-1.14.65-9.44.06-13.45l-4,.21c.13,1.52,1.12,8.66,1.29,9.7a12.37,12.37,0,0,1,0,3C68,44.25,69.83,53.2,69.64,53.49s-.88.61-1,.71c.26,0,.54.43.75.6A8.61,8.61,0,0,0,71,54.24c0-.47-.06-1.63,0-2C71.06,51.41,71,42.65,71.05,42.41Z"/><path class="cls-8" d="M75.19,54.2c.21.18,2.39,1.13,1.74,1.36a15.13,15.13,0,0,1-4-.56,2.6,2.6,0,0,1-.09-.76c.67.29,1,.35,1.64.56C74.65,54.65,74.94,54.24,75.19,54.2Z"/><path class="cls-9" d="M72.8,42.41c-.08-1.14-.65-9.44-.06-13.45l4,.21c-.13,1.52-1.13,8.66-1.3,9.7a12.88,12.88,0,0,0,0,3C75.84,44.25,74,53.2,74.2,53.49s.89.61,1,.71c-.25,0-.54.43-.74.6a8.61,8.61,0,0,1-1.64-.56c0-.47.06-1.63,0-2C72.78,51.41,72.83,42.65,72.8,42.41Z"/><path class="cls-10" d="M75.28,22.28l-7.41.29s-1.72,1.74-1.09,8.69l.41,3.56a28.14,28.14,0,0,0,7.44.35l.29-5.8.45,5.74c.45,0,.9-.1,1.37-.17C76.74,34.94,78.11,27,75.28,22.28Z"/><path class="cls-11" d="M74.2,15a13.78,13.78,0,0,0,2.09,1.84c1,.42.91-.33,1.83-1A70.73,70.73,0,0,1,72,10.08C71.12,9,70.2,7.58,68.62,8c-1.34.25-2,1.92-3.34,2.33l-.58.17c-2.25.25-4.34.08-4.59,2.84A42.8,42.8,0,0,1,59,19.84c-.25,1-1,2.17.41,2.42,1.09.17,1.42-.58,1.67-1.5A23,23,0,0,0,61.94,14c.84,1.67,2.67,2.92,3.67,4.59a8.46,8.46,0,0,1,.75,5.17,18.33,18.33,0,0,0,.07,5.84,17.61,17.61,0,0,0,4.38-.45c.15,0,.29-.06.43-.09.1-1,.22-2.43.33-2.78.25.47,1,1.49,1.49,2.33a20.61,20.61,0,0,0,4.3-1.74,7.07,7.07,0,0,0-.16-1.19A10,10,0,0,0,74,20.51a6.19,6.19,0,0,1-2.67-4.59A18.42,18.42,0,0,0,70,10.33C70.7,12,72.87,13.84,74.2,15Z"/><path class="cls-12" d="M64.13,10.16a4.21,4.21,0,0,0-1.81,1.37,2.28,2.28,0,0,0-.44.88c-.09.44,0,.34.47.31A5,5,0,0,0,64,12.28a2.83,2.83,0,0,0-.72,1c-.25.44-.25.53.09.82a5.77,5.77,0,0,0,2.13,1,5.78,5.78,0,0,0,2.25.25c.47-.07.5-.13.6-.57s.18-.87.28-1.28A7.16,7.16,0,0,0,69,10.88c-.19-1-1.25-.38-1.78,0a15.54,15.54,0,0,0,1.4-2c-1.09-.69-2.87.43-3.72,1,0,0,0,0,0-.07Z"/><path class="cls-13" d="M68,14.86c0-.15-.06-.31-.1-.48s-.25-1.33-.53-2.44l-.51-.23a6.31,6.31,0,0,0-1.23-.46,6.56,6.56,0,0,0-.11,1.26c0,.24,0,.57,0,.84.82.67,1.7,1.34,1.91,1.47a1.58,1.58,0,0,0,.58.29l0-.11C68.05,15.11,68.05,14.94,68,14.86Z"/><path class="cls-14" d="M65.53,12.51a6.56,6.56,0,0,1,.11-1.26,6.31,6.31,0,0,1,1.23.46l.51.23a5.63,5.63,0,0,0-.75-2.08,2.39,2.39,0,0,0-1.45,0c-.84.31-2,1.17-1.13,2.15a17.52,17.52,0,0,0,1.51,1.3C65.57,13.08,65.52,12.75,65.53,12.51Z"/><path class="cls-15" d="M64.84,11a1.58,1.58,0,0,0,1.3-1.08c-.11-.11-1.42-1.73-1.42-1.73.25-1.57.58-3.36-.54-4.67s-2.32-2-3.69-1c-2.44,1.75,1,6.25,2.75,6.13h.31c.26.78.56,2.16.56,2.16C64.42,10.92,64.5,11,64.84,11Z"/><path class="cls-7" d="M59.53,5.79a12.81,12.81,0,0,1,1.21-1,5,5,0,0,0,1.5-2.59c1.08.42,1.16,2.3,1.16,3.3a2.85,2.85,0,0,0,.42-1.63A6.36,6.36,0,0,1,64.11,6c.71-1.42.46-4.25-1.41-4.75-1.63-.42-4.84,2-3.51,3.46Z"/><path class="cls-16" d="M95.5,54.49A29.52,29.52,0,0,0,100,54.1a15,15,0,0,0,6.14-2.31c-.11.73-.28,2.76-.73,3.32-.68.85-7.31,2.22-9.4,2Z"/><path class="cls-17" d="M100.63,48.53a2.11,2.11,0,0,0-.69-.29A23.58,23.58,0,0,0,94.06,48a.93.93,0,0,0-.9,1.44,4.93,4.93,0,0,1,.34,2,6.14,6.14,0,1,1-12.27,0,4.81,4.81,0,0,1,.35-2,.93.93,0,0,0-.9-1.44c-2,0-6.3-.79-7.23,1.46-.85,2.06-.51,4.65-.51,6.81,0,.87-.56,1.45-1.26,1.28H71a6.14,6.14,0,1,0,0,12.27h.67c.7-.17,1.26.4,1.26,1.28,0,1.41-.27,3.27.49,4.54.41.69,1.13.79,1.86,1a26.2,26.2,0,0,0,6.26.28c1.63,0,17.11.5,18.93-.44,2.15-1.11,1.31-6.13,1.31-8,0-3.8,0-7.6,0-11.4,0-1,0-2,0-3.08a16.94,16.94,0,0,0-.31-3.91A2.53,2.53,0,0,0,100.63,48.53Z"/><path class="cls-18" d="M100.18,48.53a2.17,2.17,0,0,0-.7-.29A23.55,23.55,0,0,0,93.6,48a.93.93,0,0,0-.9,1.44,4.81,4.81,0,0,1,.35,2,6.14,6.14,0,1,1-12.27,0,4.93,4.93,0,0,1,.34-2,.93.93,0,0,0-.9-1.44c-2,0-6.29-.79-7.22,1.46-.85,2.06-.51,4.65-.51,6.81,0,.87-.57,1.45-1.26,1.28h-.68a6.14,6.14,0,0,0,0,12.27h.68c.69-.17,1.26.4,1.26,1.28,0,1.41-.27,3.27.48,4.54.41.69,1.14.79,1.87,1a26.16,26.16,0,0,0,6.26.28c1.63,0,17.11.5,18.93-.44,2.14-1.11,1.3-6.13,1.3-8,0-3.8,0-7.6.06-11.4,0-1,0-2,0-3.08a16.94,16.94,0,0,0-.31-3.91A2.53,2.53,0,0,0,100.18,48.53Z"/><path class="cls-19" d="M103.5,40.78c-.6.34-2.42-.38-1.7-1.21.6-.65,1.4.45,1.89.72s1.25.26,1.29.68Z"/><path class="cls-15" d="M107.29,48.16c-.49-.64-.65-.72-.38-1.4a7.7,7.7,0,0,0,.38-1.21,8.89,8.89,0,0,0,.11-2.46,3,3,0,0,0-3.94-2.39c-1.67.61-2.21,2.56-1.94,4.34a3.92,3.92,0,0,0-.56,1.12c-.21,1,.46.68,1,.3.6,1.33,1.74,2.23,3.22,1.78A9,9,0,0,0,106,50.1l2.35-.84C108,48.88,107.63,48.58,107.29,48.16Z"/><path class="cls-19" d="M105.58,43.13c-.49-.08-.45.76-.3,1.06h0a6.6,6.6,0,0,1-1,.3c-.26-.79-.37-1.85.69-2.12.34-.08.72.08,1.09,0a4.19,4.19,0,0,0,1.06-.57c1,1.1,1.77,4.07-.13,4.6-.3.07-1-.5-1.15-1.3a.61.61,0,0,0,.6-.38c.23-.53-.11-1.55-.75-1.59Z"/><path class="cls-15" d="M106.05,89.26a.53.53,0,0,0,.58.24,1.23,1.23,0,0,0,.26-.08c-.11-.84-.22-1.83-.25-2.47l-.89.25c0,.45-.12,1.15-.19,1.72C105.79,88.85,105.9,89.07,106.05,89.26Z"/><path class="cls-20" d="M106.71,89.24A.74.74,0,0,1,106,89c-.18-.17-.31-.37-.59-.31-.08.46-.15.81-.15.81-.72.11-3.18.11-3.29.19-.27.19,0,.79.15.94a8.88,8.88,0,0,0,3.48,0c.46-.19.34-.38.61-.79a5.12,5.12,0,0,0,.19.72c.3,0,.6,0,.9,0a15,15,0,0,1-.3-1.48Z"/><path class="cls-15" d="M111.85,88.78a15.12,15.12,0,0,1,.82,1.9,2.77,2.77,0,0,1,1.28,0c-.39-.74-.78-1.43-1.21-2.14Z"/><path class="cls-20" d="M113.74,90.5a.74.74,0,0,1-.69-.22c-.18-.17-.31-.37-.59-.3-.08.45-.15.8-.15.8-.72.11-3.18.11-3.29.19-.27.19,0,.79.15,1a8.88,8.88,0,0,0,3.48,0c.46-.19.34-.37.61-.79a3.83,3.83,0,0,0,.19.72,6.78,6.78,0,0,1,.9,0c0-.09-.17-.73-.3-1.49A1.63,1.63,0,0,1,113.74,90.5Z"/><path class="cls-21" d="M104.92,87.79c-1.19-4.26-3.47-14.93-2.21-22.94.14-.91.45-.69,1.36-.52.74.12,1.48.12,2.21.23a44.3,44.3,0,0,0,.23,9.83c.23,2.9.4,5.74.74,8.58.17,1.59.4,3.18.45,4.71Z"/><path class="cls-22" d="M110,64.78a16.06,16.06,0,0,1-.72,5.69,34.11,34.11,0,0,0-.46,8.12c.17.46.86.34.34,1.08.57.12.91,1.48,1.2,1.93.57.85,2.5,5.68,3.18,7.05h0c-.57.11-2.22.45-2.78.51,0,0-3.81-6.71-4.61-7.84s-2.44-9-2.89-11.48c-.23-1.07-1.09-4.53-.29-5.56Z"/><path d="M102.86,64.13a5.66,5.66,0,0,1,0-.76s2.34.23,3.44.31c1.29.07,2.46.26,3.75.22A7.62,7.62,0,0,0,110,65c-1.29,0-2.54,0-3.83-.07a16.74,16.74,0,0,1-3.29-.49Z"/><rect class="cls-23" x="102.33" y="63.75" width="1.26" height="0.51" transform="translate(28.53 159.69) rotate(-83.99)"/><rect class="cls-24" x="102.23" y="63.75" width="1.26" height="0.51" transform="translate(28.44 159.6) rotate(-83.99)"/><rect class="cls-22" x="104.53" y="64.08" width="1.26" height="0.51" transform="translate(30.17 162.18) rotate(-83.99)"/><path class="cls-15" d="M99.44,60.33c-.82.11-1.51.37-2.13-.31-.45-.51-1.16-.63-1.48-1.22-.11-.26-.22-.77-.48-.29-.14.29.09.66.26.85s.59.54.45.77-2.9-.23-2.87.23,2.44.14,2.44.37-1.59.14-2,.2-.93.28-.28.48a16.49,16.49,0,0,0,2.31-.12c0,.34-2.13.27-2,.66s2.08-.26,2.09-.13c.15.31-1.48.51-1.22.87.08.36,1-.29,1.43-.43a11.6,11.6,0,0,0,1.37-.37c.48-.2,2.15-.68,2.55-.2Z"/><path class="cls-25" d="M103.12,63.5c-1.44-.49,0-2.42.15-3.33.27-1.1.34-2.24.61-3.33s.57-2,.83-3a11.6,11.6,0,0,1,.8-2.84c.49-.79,2-1.25,2.8-1.63,1.93-.83,2.31,3.53,2.39,4.74a38.93,38.93,0,0,1,.11,6.66c-.11.87-.15,1.82-.34,2.69-.23,1.08-1.74.85-2.51.72-1.22-.21-2.45-.38-3.67-.55A7.5,7.5,0,0,1,103.12,63.5Z"/><path class="cls-26" d="M105,50.45a4.86,4.86,0,0,0,.26.65c.08.2.17.6.36.65s.63-.25.77-.31a15.79,15.79,0,0,0,3.27-2h0a8.87,8.87,0,0,1-1.2-1.08Z"/><path class="cls-26" d="M99.13,60.13a26.19,26.19,0,0,0,.68,2.64,28,28,0,0,0,3.72-1.16c.6-.17,1.22-.23,1.76-.43.77-.25,1.16-1.42,1.51-2.1.73-1.56,1.56-3.1,2.3-4.66.31-.74.62-1.67-.15-2.24a1.13,1.13,0,0,0-1.67.37c-.71.91-1.54,4.54-1.82,4.77s-1,0-.74.79c-.28,0-.34.09-.51.29s0,.2,0,.28-.2.06-.31.12a2.88,2.88,0,0,1-1.05.45Z"/><path class="cls-27" d="M67.28,47.82c-1.45-1.35-4.64-.87-6.46-.87a1.1,1.1,0,0,1-1.11-1.52v-.86a6.13,6.13,0,1,0-12.26,0v.86A1.1,1.1,0,0,1,46.34,47c-2.15,0-6-.76-7,1.86-.84,2.21-.22,4.81-.2,7.11,0,1.62.07,3.23.06,4.85,0,3.1,0,6.2,0,9.3,0,.62,0,1.25,0,1.87,0,1.79.43,3.13,2.25,3.61a19.9,19.9,0,0,0,5.4.24c1.72,0,3.44,0,5.16,0,3.33,0,6.67,0,10,0,1.48,0,3.52.35,4.84-.48,1-.6,1.21-2.34,1.21-3.39V69.66a1,1,0,0,0-1.49-1,4.33,4.33,0,0,1-1.35.13,6.08,6.08,0,0,1-3.3-1c-4.41,1.94-10.33,4.5-10.55,4.37s-.31-.41-.42-.6a7.75,7.75,0,0,1-.61-2A53,53,0,0,0,60,65.88a6.13,6.13,0,0,1,5.21-9.38,4.67,4.67,0,0,1,1.35.12,1,1,0,0,0,1.49-1V52.24c0-.27,0-.58,0-.9C68.08,50.1,68.12,48.6,67.28,47.82Z"/><path class="cls-28" d="M66.82,47.82c-1.44-1.35-4.63-.87-6.45-.87a1.11,1.11,0,0,1-1.12-1.52s0,0,0-.86a6.14,6.14,0,1,0-12.27,0c0,.84,0,.86,0,.86A1.1,1.1,0,0,1,45.88,47c-2.15,0-6-.76-7,1.86-.85,2.21-.23,4.81-.21,7.11,0,1.62.08,3.23.07,4.85,0,3.1,0,6.2,0,9.3v1.87c0,1.79.43,3.13,2.24,3.61a20,20,0,0,0,5.41.24c1.71,0,3.44,0,5.16,0,3.33,0,6.66,0,10,0,1.48,0,3.51.35,4.84-.48,1-.6,1.2-2.34,1.2-3.39V69.66a1,1,0,0,0-1.48-1,4.37,4.37,0,0,1-1.36.13,6.14,6.14,0,0,1-3.3-1c-4.4,1.94-10.33,4.5-10.55,4.37s-.3-.41-.41-.6a7.75,7.75,0,0,1-.61-2,53,53,0,0,0,9.67-3.68,6.13,6.13,0,0,1,5.2-9.38,4.72,4.72,0,0,1,1.36.12,1,1,0,0,0,1.48-1V53.91c0-.56,0-1.11,0-1.67,0-.27,0-.58,0-.9C67.63,50.1,67.66,48.6,66.82,47.82Z"/><path class="cls-15" d="M76.5,95.07a.54.54,0,0,0,.6.19,1.43,1.43,0,0,0,.25-.1c-.18-.84-.38-1.81-.47-2.45l-.86.34c0,.44,0,1.16,0,1.73C76.21,94.69,76.34,94.9,76.5,95.07Z"/><path class="cls-20" d="M77.16,95a.76.76,0,0,1-.71-.15c-.2-.16-.34-.34-.62-.26,0,.46-.07.82-.07.82-.71.18-3.16.4-3.26.48-.25.22,0,.8.23.93a9.1,9.1,0,0,0,3.48-.27c.43-.23.3-.41.53-.85a4.9,4.9,0,0,0,.25.7,6.79,6.79,0,0,1,.9,0c0-.08-.23-.7-.43-1.45A2.08,2.08,0,0,1,77.16,95Z"/><path class="cls-15" d="M90,94.08a.54.54,0,0,0,.58.24l.26-.08c-.11-.85-.68-1.83-.71-2.48l-.88.26c0,.44.33,1.15.26,1.72C89.71,93.67,89.82,93.89,90,94.08Z"/><path class="cls-20" d="M90.63,94.05a.73.73,0,0,1-.69-.21c-.18-.17-.31-.37-.59-.31-.08.45-.15.8-.15.8-.72.12-3.18.12-3.29.19-.27.19,0,.8.15,1a9.08,9.08,0,0,0,3.48,0c.46-.19.34-.38.61-.8a4.79,4.79,0,0,0,.19.72,6.78,6.78,0,0,1,.9,0c0-.09-.17-.73-.3-1.49A1.63,1.63,0,0,1,90.63,94.05Z"/><path class="cls-29" d="M72.83,69.9a15.31,15.31,0,0,0,.57,3.3h0c.11,2.5-1.08,5.39-1.54,7.89-.17,1-.68,2.22-.45,3.24a28,28,0,0,0,1.64,3.52,36.68,36.68,0,0,1,1.65,4.83c.23,1,.29,1.31.29,1.31a7.13,7.13,0,0,0,2.9-.71c.1-1.08-1.14-3.27-1.6-4.63-.57-1.59-1.57-3.94-1.57-3.94,0-.25.25-1-.19-.95,0-1.76,1.91-7.16,2.25-8.06s.65-1.08,1.61-1.42c0,0,1,5,1.37,7.55.28,1.53,1.42,2.39,2.55,3.47A49.39,49.39,0,0,1,88,92.43a5.2,5.2,0,0,0,2.84-1.09c0-.14-2.08-2.86-2.59-3.55-.79-1.07-4.88-6.07-5-6,.22-.39.11-.62-.29-.62a49.53,49.53,0,0,1-.79-7.33,15.21,15.21,0,0,0-2.36-7.07c-.11-.23-.17-.4-.28-.63Z"/><path class="cls-30" d="M72.68,69.71c0,.08.11.46.11.65h0l0,0h0a9.82,9.82,0,0,0,4.39-1c1.06-.57,3.52-2,2.27-3.26Z"/><rect class="cls-29" x="77.07" y="68.27" width="0.43" height="1.63" transform="translate(-20.35 34.25) rotate(-22.16)"/><path class="cls-15" d="M63.68,59.56a5.92,5.92,0,0,0-2.55-5.51c-2.84-1.64-5.51.86-4.49,3.87a4.86,4.86,0,0,0,1.88,2.34c-.25.39-.52.81-.32,1.06.35.43.83-.07,1.15-.57a3.39,3.39,0,0,0,3.76-.22,5.09,5.09,0,0,1,.86.74l1.3-1.37A12.89,12.89,0,0,1,63.68,59.56Z"/><path class="cls-31" d="M61.19,59h.66a1.78,1.78,0,0,0,.61,0,1.69,1.69,0,0,0,.57-.49,2.4,2.4,0,0,0,.48-.63.52.52,0,0,0,.06-.3A7,7,0,0,0,63,55.7c-.51-.94-2-3.24-3.38-2.58a.69.69,0,0,0-.37.34c-.45-1.34-2.5.93-2.87,1.27a4.88,4.88,0,0,1-1.67,1.11c-.18.06-.74.09-.8.31s.45.4.65.37c-.34,0-1.67.52-1.16,1s1.45-.11,1.82-.34c-.54.6-.74,1.22.22.68.74-.4,1.05-1,1.62-1.56a2.06,2.06,0,0,0,.37,1.48,6.57,6.57,0,0,1,.65-1.11c0,.79,1.17,1.45,1.77,1.84-1-1.1,1-2,1.19-.45Z"/><path class="cls-32" d="M64,62.69a8.56,8.56,0,0,1-.93-1.14h0a10.65,10.65,0,0,1,1.5-2.41c.2-.29.11-.29.43-.29a6.77,6.77,0,0,1,.71.26,7.12,7.12,0,0,1,1,.37Z"/><path class="cls-15" d="M50.3,69.68c-.82.11-1.5.37-2.13-.32-.45-.51-1.16-.62-1.47-1.22-.12-.25-.23-.76-.49-.28-.14.28.09.65.26.85s.6.54.45.77-2.89-.23-2.86.23,2.44.14,2.44.36-1.59.15-2,.2-.94.29-.29.49a16.58,16.58,0,0,0,2.32-.13c0,.35-2.14.28-2,.67s2.08-.26,2.08-.13c.16.3-1.47.51-1.22.86.09.37,1-.28,1.44-.42a11.45,11.45,0,0,0,1.36-.37c.48-.2,2.16-.68,2.56-.2Z"/><path class="cls-33" d="M66.07,56.62a4.72,4.72,0,0,0-1.36-.12,6.13,6.13,0,0,0-5.2,9.38,10.4,10.4,0,0,0,3.08-2.32c.58-.73,3.76-4.3,4.37-5.13C67.9,57,69.84,56.69,70.67,55c-.49.11-1.25,0-.53-.57a11.48,11.48,0,0,1-2.59-.54V55.6A1,1,0,0,1,66.07,56.62Z"/><path class="cls-34" d="M79.8,65.55c-.16-.53-.38-.38-.72-.61a3.59,3.59,0,0,1-.91-1.14,12.18,12.18,0,0,0-2-2.27A18.07,18.07,0,0,0,71.31,59a4.91,4.91,0,0,0-.58-.18h0c.76-.8,4.25-4.62,4.09-5.3-.09-.4-4.45-1.6-6.8-2,0,.32,0,.67,0,.94V54a7.73,7.73,0,0,0,2.13.41c-.72.53,0,.68.53.57-.83,1.67-2.77,2-3.71,3.41-.61.83-3.79,4.4-4.37,5.13a10.4,10.4,0,0,1-3.08,2.32,6.22,6.22,0,0,0,1.9,1.92l4.62-2a6.66,6.66,0,0,1,2.18.66,14.56,14.56,0,0,1,2.12,1.25,8.32,8.32,0,0,1,1.17.83c.42.42.27.68.49,1.1.72,1.36,3.83-.27,4.78-.65S80.17,67,79.8,65.55Z"/><path class="cls-34" d="M59.51,65.88a53,53,0,0,1-9.67,3.68,7.75,7.75,0,0,0,.61,2c.11.19.22.49.41.6S57,69.74,61.41,67.8A6.22,6.22,0,0,1,59.51,65.88Z"/><path class="cls-35" d="M33.75,41.44c.39,0,.73-1.19.62-1.7-.23-1.25-1.42-2.33.34-3.3,1.48-.73,2.44.74,2.22,2.11a2.71,2.71,0,0,1-1,1.59,2.57,2.57,0,0,0-.85,1.36c0,.23-.28.91-.22.79Z"/><path class="cls-36" d="M23.35,55.81c-1.19-1.47,1.76-4,2.67-5a59.32,59.32,0,0,0,5.68-7.45c.34-.56,1.53-2.61,1.53-2.61.57-.28,2.12.74,2.33,1.08-1.36,2.44-7.84,13.58-10.39,14.49-.46.17.45,0,0,0Z"/><path class="cls-9" d="M56.66,15.18a.88.88,0,0,1,.9.36c.36.67-.9.76-1.23.45Z"/><path class="cls-37" d="M66.47,25a4.77,4.77,0,0,0-1.24.09,1,1,0,0,1-1.49-1c0-1.39.07-2.78,0-4.17-.15-2.33-1.45-3.52-3.85-3.52-5.3,0-10.6.08-15.9,0a38.79,38.79,0,0,0-6.47.12c-1.93.31-2.63,1.9-2.63,3.73,0,2.41,0,4.82,0,7.23,0,3.77-.07,7.55,0,11.33,0,1.4-.33,2.88,0,4.26.41,1.64,2.27,2.18,3.8,2.18H43c.88,0,1.24-.62.8-1.38a5.45,5.45,0,0,1-.58-2.48,6.14,6.14,0,1,1,12.27,0,5.45,5.45,0,0,1-.58,2.48c-.43.76-.07,1.38.8,1.38,3.33,0,8,.93,8-3.86V38.25a1,1,0,0,1,1.49-1,4.31,4.31,0,0,0,1.24.1,6.14,6.14,0,0,0,0-12.27Z"/><path class="cls-38" d="M66.47,24.57a4.77,4.77,0,0,0-1.24.09,1,1,0,0,1-1.49-1c0-1.38.07-2.78,0-4.16-.15-2.34-1.45-3.52-3.85-3.52-5.3,0-10.6.08-15.9,0a37.74,37.74,0,0,0-6.47.13c-1.93.3-2.63,1.89-2.63,3.73,0,2.41,0,4.81,0,7.22,0,3.78-.07,7.56,0,11.33,0,1.41-.33,2.88,0,4.27.41,1.64,2.27,2.17,3.8,2.17H43c.88,0,1.24-.62.8-1.38a5.4,5.4,0,0,1-.58-2.48,6.14,6.14,0,0,1,12.27,0,5.4,5.4,0,0,1-.58,2.48c-.43.76-.07,1.38.8,1.38,3.33,0,8,.94,8-3.86V37.79a1,1,0,0,1,1.49-1,4.77,4.77,0,0,0,1.24.09,6.14,6.14,0,0,0,0-12.27Z"/><path class="cls-15" d="M56.69,15.15c-.18.57-.24,1.21-.42,1.78s-.4.81-.46.15a5.53,5.53,0,0,1,.09-1.21c-.12.49-.09,2-.51,2.24S55,16.72,55,16.48c-.06.33.09,1-.33,1.05a3.06,3.06,0,0,1-.21-1.48c0,.28-.12.85-.4,1-.21-.24-.15-.94-.12-1.27.09-.63.25-.72.76-.72.06,0,.18.09.27.09s.18-.18.3-.18.36.21.57.21.58-.45.82,0Z"/><path class="cls-35" d="M28.35,52h0C28.33,52.14,28.35,52.22,28.35,52Z"/><path class="cls-35" d="M31,46a3,3,0,0,0-1.12-.41A4,4,0,0,0,28,42.46c-1.13-.85-2.44-1.07-3.52.06s-.79,2.61-.11,4c1,1.93,3.06,3.07,2.16,5.56L28.31,52a2.79,2.79,0,0,0-.07-.34c-.12-.4-.23-.85-.34-1.25A3.07,3.07,0,0,0,30,47.3C30.7,47.07,31.51,46.64,31,46Z"/><path class="cls-30" d="M28.35,46.5l.4-.12c.17-.9-.63-1.42-1.31-1.7,1.25.06.34-1.42-.06-1.82a2,2,0,0,0,1.08-3c-1.13-1.19-2.38,1.08-3.29,1.59-1.25.8-2.39,1-2.44,2.73a7.22,7.22,0,0,0,1.13,3.69A3.21,3.21,0,0,0,26,49.68c.74.11,2.05-.28,2.05-1.25s-1.82-.91-1.19-2A.84.84,0,0,1,28,46C28.07,46,28.35,46.5,28.35,46.5Z"/><path class="cls-35" d="M25.2,97a.55.55,0,0,1-.58.24,1.23,1.23,0,0,1-.26-.08c.11-.85.22-1.83.25-2.48l.89.25c0,.45.12,1.16.19,1.72C25.46,96.58,25.35,96.8,25.2,97Z"/><path class="cls-20" d="M24.54,97a.73.73,0,0,0,.69-.21c.18-.17.31-.37.59-.31.08.45.15.8.15.8.72.12,3.18.12,3.29.19.27.19,0,.8-.15.95a9.08,9.08,0,0,1-3.48,0c-.46-.19-.34-.38-.61-.8a4.79,4.79,0,0,1-.19.72,6.78,6.78,0,0,0-.9,0c0-.09.17-.73.3-1.49A1.48,1.48,0,0,0,24.54,97Z"/><path class="cls-35" d="M36.1,97a.54.54,0,0,1-.58.24l-.26-.08c.12-.85.23-1.83.26-2.48l.88.25c0,.45.12,1.16.2,1.72C36.36,96.58,36.26,96.8,36.1,97Z"/><path class="cls-20" d="M35.44,97a.75.75,0,0,0,.7-.21c.18-.17.31-.37.59-.31l.14.8c.72.12,3.18.12,3.3.19s0,.8-.15.95a9.13,9.13,0,0,1-3.49,0c-.45-.19-.34-.38-.6-.8a6.38,6.38,0,0,1-.19.72,6.78,6.78,0,0,0-.9,0c0-.09.16-.73.29-1.49A1.82,1.82,0,0,0,35.44,97Z"/><path class="cls-39" d="M34.77,80.18c-.91-4.94-1.71-9.94-2.56-14.88a17.39,17.39,0,0,1-2.95.56,23.19,23.19,0,0,0-2.5.06c-1,.12-1.93-.17-2.9,0,.29,1.88.06,3.81.51,5.69s.12,4.48.12,6.64c0,3.52-.57,15.17-.91,17.33h.06a2.31,2.31,0,0,0,2.68-.12s.43-2.22.48-3.12c0-.1,0-.2,0-.29.22-2.49.62-4.94.85-7.38.35-4,.62-7.87,1-11.79.08.22.16.46.23.71.28,1.25,5.53,21.63,5.53,21.63.93,1,3.16-.33,3.16-.33C37.55,94.72,35.68,85,34.77,80.18Z"/><path class="cls-30" d="M23.79,65.55a5.84,5.84,0,0,0,.15.87h0c2.57,1.4,5.83.13,8.4-.36a7.41,7.41,0,0,0-.15-1.39Z"/><rect class="cls-39" x="26.96" y="65.44" width="0.48" height="2.39"/><path class="cls-40" d="M30.53,52.78c-2.5.69-7.69-1.09-7.69,2.88a30.72,30.72,0,0,0,.83,5.91A4.32,4.32,0,0,1,23.6,64c-.23.46-.72.69-.5,1.29a2,2,0,0,0,1.1.91,6.4,6.4,0,0,0,2.54.08c.83-.12,1.67-.08,2.5-.16a10.72,10.72,0,0,0,2.46-.41c.42-.15.8-.38.76-.87s-.46-.61-.57-1.06a11.71,11.71,0,0,1-.08-2.31,22.37,22.37,0,0,0-.18-2.35,22.07,22.07,0,0,1-.35-4.43Z"/><path class="cls-41" d="M29.2,53.09a9.69,9.69,0,0,0-.3-1.48h0c-.87,0-1.71,0-2.58.11-.38.08-1.09.08-1.25.42a3.15,3.15,0,0,0,.16,1.21Z"/><path class="cls-35" d="M38.91,39.57c.3-.78.7-1.38.18-2.15-.39-.56-.34-1.27-.85-1.71-.22-.17-.7-.4-.17-.54.31-.07.62.23.77.45s.39.7.65.61.43-2.87.87-2.74-.42,2.41-.19,2.46.49-1.51.63-1.86.49-.85.54-.17a15.63,15.63,0,0,1-.65,2.23c.33.12.75-2,1.1-1.8s-.72,2-.59,2c.26.22.83-1.32,1.12-1,.33.17-.52,1-.75,1.3a12.3,12.3,0,0,1-.66,1.24c-.31.43-1.16,2-.78,2.45Z"/><path class="cls-41" d="M38.35,39.17c-.06,0,2.67.63,2.27,2.1a27.53,27.53,0,0,1-3.35,7.29c-1.37,2.21-4.35,6.67-6.25,7.58-1.06.5-2.67.13-2.33-1.52.28-1.08,6.87-5.76,9.43-14.6Z"/><path class="cls-9" d="M77.76,14.7a.88.88,0,0,0-.91.37c-.36.66.91.75,1.24.45Z"/><path class="cls-41" d="M97.59,16.53a1.32,1.32,0,0,0-.2-.12,6.06,6.06,0,0,0-2.5-.44H79.18a58.44,58.44,0,0,0-5.92,0,3.48,3.48,0,0,0-3.36,3.84v4.5a.9.9,0,0,0,1.42.87,5.09,5.09,0,0,1,2.13-.41,6.14,6.14,0,1,1,0,12.27,5,5,0,0,1-2.13-.42.9.9,0,0,0-1.42.87V41a7.17,7.17,0,0,0,.35,2.3c.43,1.23,2.38,1.56,3.51,1.56H76.4a1.1,1.1,0,0,1,1.12,1.52s0,0,0,.86a6.14,6.14,0,1,0,12.27,0v-.86a1.1,1.1,0,0,1,1.11-1.52h4A3.57,3.57,0,0,0,98.76,41c0-.66,0-1.31,0-2,0-1.58,0-3.15,0-4.73,0-2,0-3.93,0-5.9,0-1.74,0-3.48,0-5.21a23.55,23.55,0,0,0-.15-4,8.17,8.17,0,0,0-.2-1.22A2.4,2.4,0,0,0,97.59,16.53Z"/><path class="cls-42" d="M97.59,16.07l-.2-.11a5.9,5.9,0,0,0-2.5-.44H79.18a58.44,58.44,0,0,0-5.92,0,3.47,3.47,0,0,0-3.36,3.83v4.51a.9.9,0,0,0,1.42.87,5,5,0,0,1,2.13-.42,6.14,6.14,0,1,1,0,12.27,5.09,5.09,0,0,1-2.13-.41.9.9,0,0,0-1.42.87v3.44a7.13,7.13,0,0,0,.35,2.3c.43,1.24,2.38,1.57,3.51,1.57H76.4a1.1,1.1,0,0,1,1.12,1.51s0,0,0,.87a6.14,6.14,0,0,0,12.27,0v-.87a1.09,1.09,0,0,1,1.11-1.51h4a3.58,3.58,0,0,0,3.87-3.87c0-.65,0-1.31,0-2,0-1.58,0-3.16,0-4.73,0-2,0-3.94,0-5.91,0-1.73,0-3.47,0-5.21a23.59,23.59,0,0,0-.15-4,8.25,8.25,0,0,0-.2-1.21A2.43,2.43,0,0,0,97.59,16.07Z"/><path class="cls-15" d="M77.73,14.67c.18.58.24,1.21.42,1.78s.39.82.45.15a5.4,5.4,0,0,0-.09-1.2c.12.48.09,2,.51,2.23s.4-1.39.4-1.63c.06.33-.1,1,.33,1.06A3.09,3.09,0,0,0,80,15.58c0,.27.12.84.39,1,.21-.24.15-.93.12-1.26-.09-.64-.24-.73-.75-.73-.06,0-.18.09-.27.09s-.19-.18-.31-.18-.36.21-.57.21-.57-.45-.81,0Z"/></g></g></svg>