<svg xmlns="http://www.w3.org/2000/svg" xmlns:xlink="http://www.w3.org/1999/xlink" viewBox="0 0 164.29 140.26"><defs><style>.cls-1{mask:url(#mask);filter:url(#luminosity-noclip-3);}.cls-2,.cls-4{mix-blend-mode:multiply;}.cls-2{fill:url(#linear-gradient);}.cls-3{mask:url(#mask-2);filter:url(#luminosity-noclip-4);}.cls-4{fill:url(#linear-gradient-2);}.cls-5{isolation:isolate;}.cls-6{fill:url(#linear-gradient-3);}.cls-7{mask:url(#mask-3);}.cls-8{fill:url(#linear-gradient-4);}.cls-9{mask:url(#mask-4);}.cls-10{fill:url(#linear-gradient-5);}.cls-11{fill:#db934c;}.cls-12{fill:#f5c168;}.cls-13{fill:#fdf8f4;}.cls-14{fill:#f9db9c;}.cls-15{fill:#f6ca69;}.cls-16{fill:#dbd3ce;}.cls-17{fill:#202336;}.cls-18{fill:#3e6a88;}.cls-19{fill:#323755;}.cls-20{fill:#eda358;}.cls-21{fill:#e3a98a;}.cls-22{fill:#e29042;}.cls-23{fill:#ad6f32;}.cls-24{fill:#c0b3af;}.cls-25{fill:#d9544e;}.cls-26{fill:#be3b34;}.cls-27{fill:#ce453f;}.cls-28{fill:#e9dad3;}.cls-29{fill:#daccc6;}.cls-30{fill:#dfd0ca;}.cls-31{fill:#ad9696;}.cls-32{fill:#d5b8b8;}.cls-33{fill:#ebcbcb;}.cls-34{fill:#1d3341;}.cls-35{fill:#a87e67;}.cls-36{fill:#40444e;opacity:0.24;mix-blend-mode:hard-light;}.cls-37{fill:#ee835f;}.cls-38{fill:#d67050;}.cls-39{fill:#4a4f5b;}.cls-40{fill:#c1c1c1;opacity:0.3;}.cls-41{fill:#d49e81;}.cls-42{fill:#d45d58;}.cls-43{fill:#9f7a64;}.cls-44{fill:#f3b694;}.cls-45{fill:#994441;}.cls-46{fill:#162d3c;}.cls-47{fill:#87c0f9;}.cls-48{fill:#243b52;}.cls-49{fill:#315170;}.cls-50{fill:#213c57;}.cls-51{fill:#616161;}.cls-52{fill:#dccdc7;}.cls-53{fill:#e3aa8b;}.cls-54{filter:url(#luminosity-noclip-2);}.cls-55{filter:url(#luminosity-noclip);}</style><filter id="luminosity-noclip" x="55.76" y="-8743.34" width="27.63" height="32766" filterUnits="userSpaceOnUse" color-interpolation-filters="sRGB"><feFlood flood-color="#fff" result="bg"/><feBlend in="SourceGraphic" in2="bg"/></filter><mask id="mask" x="55.76" y="-8743.34" width="27.63" height="32766" maskUnits="userSpaceOnUse"><g class="cls-55"/></mask><linearGradient id="linear-gradient" x1="51.82" y1="126.99" x2="87.74" y2="126.3" gradientUnits="userSpaceOnUse"><stop offset="0" stop-color="#fff"/><stop offset="1"/></linearGradient><filter id="luminosity-noclip-2" x="104.45" y="-8743.34" width="27.63" height="32766" filterUnits="userSpaceOnUse" color-interpolation-filters="sRGB"><feFlood flood-color="#fff" result="bg"/><feBlend in="SourceGraphic" in2="bg"/></filter><mask id="mask-2" x="104.45" y="-8743.34" width="27.63" height="32766" maskUnits="userSpaceOnUse"><g class="cls-54"/></mask><linearGradient id="linear-gradient-2" x1="104.45" y1="125.55" x2="132.07" y2="125.55" xlink:href="#linear-gradient"/><linearGradient id="linear-gradient-3" y1="129.32" x2="164.29" y2="129.32" gradientUnits="userSpaceOnUse"><stop offset="0" stop-color="#fbebe3"/><stop offset="1" stop-color="#e9dad4"/></linearGradient><filter id="luminosity-noclip-3" x="55.76" y="125.39" width="27.63" height="2.53" filterUnits="userSpaceOnUse" color-interpolation-filters="sRGB"><feFlood flood-color="#fff" result="bg"/><feBlend in="SourceGraphic" in2="bg"/></filter><mask id="mask-3" x="55.76" y="125.39" width="27.63" height="2.53" maskUnits="userSpaceOnUse"><g class="cls-1"><path class="cls-2" d="M83.39,126.65c0,.7-6.19,1.27-13.81,1.27s-13.82-.57-13.82-1.27,6.19-1.26,13.82-1.26S83.39,126,83.39,126.65Z"/></g></mask><linearGradient id="linear-gradient-4" x1="51.82" y1="126.99" x2="87.74" y2="126.3" gradientUnits="userSpaceOnUse"><stop offset="0" stop-color="#f1a163"/><stop offset="1" stop-color="#f7d16b"/></linearGradient><filter id="luminosity-noclip-4" x="104.45" y="124.28" width="27.63" height="2.53" filterUnits="userSpaceOnUse" color-interpolation-filters="sRGB"><feFlood flood-color="#fff" result="bg"/><feBlend in="SourceGraphic" in2="bg"/></filter><mask id="mask-4" x="104.45" y="124.28" width="27.63" height="2.53" maskUnits="userSpaceOnUse"><g class="cls-3"><ellipse class="cls-4" cx="118.26" cy="125.55" rx="13.81" ry="1.26"/></g></mask><linearGradient id="linear-gradient-5" x1="104.45" y1="125.55" x2="132.07" y2="125.55" xlink:href="#linear-gradient-4"/></defs><title>post</title><g class="cls-5"><g id="Layer_2" data-name="Layer 2"><g id="Layer_1-2" data-name="Layer 1"><path class="cls-6" d="M146.8,119.35c9.91-.63,11.27.34,17.49,1-21.66,6.12-31.75,17.31-59.93,14.8-23.93-2.14-48.12,10-71,2.78-8.8-2.78-17-7.12-25.15-11.44-2.07-1.09-10.08-3.59-7.79-7.2,1.35-2.13,11.31.15,13.75.33,10.79.83,21.61,1.34,32.44,1.62,21.38.55,42.78.18,64.16-.5C122.78,120.34,134.8,120.12,146.8,119.35Z"/><g class="cls-7"><path class="cls-8" d="M83.39,126.65c0,.7-6.19,1.27-13.81,1.27s-13.82-.57-13.82-1.27,6.19-1.26,13.82-1.26S83.39,126,83.39,126.65Z"/></g><g class="cls-9"><ellipse class="cls-10" cx="118.26" cy="125.55" rx="13.81" ry="1.26"/></g><path class="cls-11" d="M117.16,27H65.41c-13.28.88-13.22,15.5-13.22,15.5h0v69.88H104V42.48S104.26,27.81,117.16,27Z"/><rect class="cls-12" x="48.57" y="43.37" width="0.63" height="53.78"/><path class="cls-12" d="M108.34,18.79H76.7V1.25h31.64Zm-31-.63h30.39V1.88H77.33Z"/><path class="cls-12" d="M49.19,37.05H17.55V15H49.19Zm-31-.62H48.57V15.63H18.18Z"/><path class="cls-12" d="M138.77,72.17H107.13V54.57h31.64Zm-31-.62h30.39V55.19H107.75Z"/><path class="cls-13" d="M115.1,26c-12.91.83-13.16,15.5-13.16,15.5v69.88H50.12V41.53S50.06,26.91,63.34,26Z"/><rect class="cls-14" x="56.93" y="44.28" width="35.59" height="3.14"/><rect class="cls-14" x="56.93" y="51.55" width="30.39" height="2.22"/><rect class="cls-14" x="56.93" y="57.42" width="15.28" height="3.3"/><rect class="cls-14" x="76.72" y="57.42" width="15.8" height="3.3"/><rect class="cls-14" x="56.93" y="63.78" width="24.34" height="2.36"/><rect class="cls-14" x="56.93" y="69.67" width="27.42" height="1.31"/><rect class="cls-14" x="56.93" y="75.56" width="32.98" height="1.31"/><path class="cls-14" d="M72.32,88.76H56.81V81.33H72.32ZM57,88.53H72.09v-7H57Z"/><rect class="cls-14" x="76.03" y="81.45" width="13.87" height="1.7"/><rect class="cls-14" x="76.03" y="85.05" width="9.83" height="1.7"/><rect class="cls-14" x="56.93" y="93.22" width="29.66" height="1.31"/><rect class="cls-14" x="56.93" y="99.11" width="15.62" height="1.31"/><path class="cls-15" d="M115.29,65.42l-1.53-2.5a.44.44,0,0,1,.75-.46l1.08,1.77,2.87-1.7a.44.44,0,0,1,.6.16.43.43,0,0,1-.16.59Z"/><path class="cls-15" d="M116.32,69.28a5.5,5.5,0,1,1,5.49-5.5A5.51,5.51,0,0,1,116.32,69.28Zm0-10.21A4.71,4.71,0,1,0,121,63.78,4.71,4.71,0,0,0,116.32,59.07Z"/><polygon class="cls-15" points="89.97 8.19 90.08 10.5 91 10.46 90.81 6.58 86.86 6.76 86.9 7.68 89.29 7.57 85.08 12.2 80.69 8.2 80.07 8.88 85.14 13.49 89.97 8.19"/><path class="cls-15" d="M29,23.1a2.63,2.63,0,0,0-.4-.32,5.39,5.39,0,0,0-.6-.33,6.09,6.09,0,0,0-.76-.27,4.61,4.61,0,0,0-.84-.15v3.1l.28.06a12.8,12.8,0,0,1,1.46.44,4.23,4.23,0,0,1,1.1.59,2.33,2.33,0,0,1,.69.84,2.71,2.71,0,0,1,.24,1.22,3,3,0,0,1-.28,1.36,2.84,2.84,0,0,1-.79.93,3.73,3.73,0,0,1-1.17.56,6,6,0,0,1-1.43.19v1.57H25.7v-1.6a7.71,7.71,0,0,1-2.05-.43,6.54,6.54,0,0,1-1.77-1l.76-1.43a2.66,2.66,0,0,0,.48.39,5.43,5.43,0,0,0,.73.41,7,7,0,0,0,2,.56V26.7l-.19-.05-.18-.06a13.38,13.38,0,0,1-1.38-.44,3.51,3.51,0,0,1-1-.57,2.09,2.09,0,0,1-.59-.77,2.62,2.62,0,0,1-.2-1.07,3.14,3.14,0,0,1,.26-1.3,2.9,2.9,0,0,1,.72-1,3.56,3.56,0,0,1,1.09-.64,4.83,4.83,0,0,1,1.37-.28V19h.78v1.51a5.77,5.77,0,0,1,1.8.39,6.9,6.9,0,0,1,1.45.8Zm-4.94.38a1.08,1.08,0,0,0,.44.94,4.2,4.2,0,0,0,1.34.56V22a2.21,2.21,0,0,0-1.35.42A1.32,1.32,0,0,0,24.05,23.48Zm4.31,5a1.12,1.12,0,0,0-.52-1,5.8,5.8,0,0,0-1.47-.61v3a2.76,2.76,0,0,0,1.48-.35A1.14,1.14,0,0,0,28.36,28.46Z"/><rect class="cls-16" x="33.73" y="21.28" width="12.42" height="1.77"/><rect class="cls-16" x="33.73" y="25.14" width="9.76" height="1.77"/><rect class="cls-16" x="33.73" y="29" width="10.95" height="1.77"/><rect class="cls-16" x="124.09" y="60.56" width="8.87" height="1.77"/><rect class="cls-16" x="124.09" y="64.42" width="9.95" height="1.77"/><rect class="cls-16" x="93.67" y="5.28" width="11.29" height="1.77"/><rect class="cls-16" x="93.67" y="9.14" width="8.87" height="1.77"/><rect class="cls-16" x="93.67" y="13" width="9.95" height="1.77"/><polygon class="cls-16" points="115.41 83.85 105.81 83.85 105.81 83.23 114.78 83.23 114.78 72.55 115.41 72.55 115.41 83.85"/><polygon class="cls-16" points="69.41 24.98 68.78 24.98 68.78 21.86 89.59 21.86 89.59 19.68 90.22 19.68 90.22 22.48 69.41 22.48 69.41 24.98"/><polygon class="cls-16" points="46.15 61.69 35.22 61.69 35.22 38.13 35.84 38.13 35.84 61.06 46.15 61.06 46.15 61.69"/><path class="cls-12" d="M105.82,52.12h-.62V45c0-.12-.77-13.78,10.76-15.76l.11.61c-11,1.9-10.25,15-10.25,15.13Z"/><polygon class="cls-12" points="140.29 65.79 139.66 65.79 139.66 53.74 126.73 53.74 126.73 53.11 140.29 53.11 140.29 65.79"/><polygon class="cls-12" points="28.18 38.85 15.87 38.85 15.87 27.25 16.49 27.25 16.49 38.23 28.18 38.23 28.18 38.85"/><polygon class="cls-12" points="75.9 9.14 75.27 9.14 75.27 0 90.55 0 90.55 0.63 75.9 0.63 75.9 9.14"/><polygon class="cls-12" points="106.12 114.43 94.91 114.43 94.91 113.81 105.49 113.81 105.49 96.85 106.12 96.85 106.12 114.43"/><path class="cls-17" d="M113.91,123.29a3.62,3.62,0,0,1-1.49.93c-.75.17-1.27.37-1.28.82s2.16.73,3,.29c1.28-.67,1.41-.47,1.55-.81s-.17-1.22-.16-1.33A6.91,6.91,0,0,0,113.91,123.29Z"/><path class="cls-18" d="M114,122.92a2.21,2.21,0,0,0-.08.37s1.68.19,1.63-.1-.1-.49-.1-.49Z"/><path class="cls-17" d="M122.24,123.49a2.64,2.64,0,0,1-1.27.93c-.72.17-1.18.49-1.21.93s1.68,1,2.89.24c.8-.5,1.09-.47,1.25-.79s-.08-1.21-.06-1.31S122.24,123.49,122.24,123.49Z"/><path class="cls-18" d="M122.26,123.12a2.23,2.23,0,0,0,0,.37s1.61.29,1.6,0a2.34,2.34,0,0,0-.1-.51Z"/><path class="cls-19" d="M115.68,101.13s-.78,5.62-1.09,7.52c-.37,2.23-.5,4.07-.6,5.22-.13,1.45-.06,8.86-.15,9.28s1.83.2,1.83.2,1.41-9.66,1.8-11.2,1.35-7.36,1.67-7,1.4,7.13,1.64,8.26,1.23,10,1.23,10,1.63.36,2.08,0c0,0-.1-8-.26-10.07-.06-.81.51-9.69-.86-13.27C122.25,98.27,115.68,101.13,115.68,101.13Z"/><path class="cls-20" d="M115.61,101.39l-.09.85s2.36,1,8.11,1v-1Z"/><path class="cls-21" d="M109,90.76s-.34.76-.55.81-.44.3-.62.38-.72.12-.87.26a4.61,4.61,0,0,1-.43.67c-.13.11-.43.29-.34.4s.41,0,.41,0a.22.22,0,0,0-.07.23c.1.24.26.25.26.25s0,.19,0,.28a.44.44,0,0,0,.3.21.46.46,0,0,0,.14.25.39.39,0,0,0,.37.06s.16.22.31.18.24-.16.35-.22a5.25,5.25,0,0,0,1.14-1.75,6.1,6.1,0,0,1,.75-1.47Z"/><path class="cls-22" d="M109.15,94.6s2.67,1.21,3.62,1a3.93,3.93,0,0,0,1.56-1.43c.18-.23.36-.48.53-.72h0c.67-1,1.2-1.91,1.2-1.91s2-2.33.39-3.37a1.05,1.05,0,0,0-1.11.35,10.51,10.51,0,0,0-1.3,2.07c-.14.31-2.09,3.13-2.19,3.19a16.38,16.38,0,0,1-1.64-.22c-1.12-.09-.9-.14-.9-.14Z"/><path class="cls-22" d="M118,87.63a12.72,12.72,0,0,0-2.29.64,10.34,10.34,0,0,0-.76,3.1,24.32,24.32,0,0,0,.51,4.21c.26,1-.35,5.11.14,5.8a22,22,0,0,0,8.29.82,25.91,25.91,0,0,1-.71-5.24c.2-1.71.71-5.64.71-5.64a12.56,12.56,0,0,0-.91-3,15.24,15.24,0,0,0-2.87-.8Z"/><path class="cls-23" d="M122.51,93s.39,2.52.36,2.68S124.63,95.15,122.51,93Z"/><rect class="cls-24" x="126.42" y="99.82" width="5.57" height="7.33" rx="1.06" transform="translate(-26.11 160.75) rotate(-58.93)"/><rect class="cls-25" x="110.88" y="76.45" width="5.97" height="35.57" transform="matrix(-0.52, 0.86, -0.86, -0.52, 253.34, 45.35)"/><rect class="cls-26" x="113.89" y="74.75" width="1.99" height="35.57" transform="translate(-23.66 143.18) rotate(-58.93)"/><rect class="cls-27" x="112.86" y="76.45" width="1.99" height="35.57" transform="translate(253.34 45.35) rotate(121.07)"/><rect class="cls-25" x="111.84" y="78.16" width="1.99" height="35.57" transform="translate(253.24 48.81) rotate(121.07)"/><polygon class="cls-28" points="97.09 87.61 100.17 82.5 93.25 81.11 91.47 80.75 92.62 82.16 97.09 87.61"/><path class="cls-29" d="M99.14,84.21a1,1,0,0,0,1-1.71Z"/><path class="cls-30" d="M98.11,85.91a1,1,0,0,0,1-1.7Z"/><path class="cls-28" d="M97.09,87.62a1,1,0,0,0,1-1.71Z"/><rect class="cls-31" x="129.24" y="100.69" width="1.99" height="2.19" transform="translate(-24.16 160.8) rotate(-58.93)"/><rect class="cls-32" x="128.21" y="102.39" width="1.99" height="2.19" transform="translate(284.52 46.22) rotate(121.07)"/><rect class="cls-33" x="127.18" y="104.09" width="1.99" height="2.19" transform="translate(284.42 49.68) rotate(121.07)"/><polygon class="cls-29" points="99.14 84.21 91.47 80.75 100.17 82.5 99.14 84.21"/><polygon class="cls-30" points="98.11 85.91 91.47 80.75 99.14 84.21 98.11 85.91"/><polygon class="cls-28" points="98.11 85.91 91.47 80.75 97.09 87.62 98.11 85.91"/><polygon class="cls-25" points="92.62 82.16 93.25 81.11 91.47 80.75 92.62 82.16"/><path class="cls-21" d="M118.31,101.44a.77.77,0,0,0,.27-.06l.24-.16.08,0a1.35,1.35,0,0,0,.45-.23,12.21,12.21,0,0,0,.76-1l-.35-.44-.27-.46a10.3,10.3,0,0,0-1.54.33l0,0c-.14.11-.19.26-.26.32s-.25.29-.23.39a.32.32,0,0,0,.19.27.82.82,0,0,0,.21.4.53.53,0,0,0,.27.35S118.16,101.42,118.31,101.44Z"/><path class="cls-22" d="M121.8,88.31c-.27.1-.55.75-.34,2a5.54,5.54,0,0,0,.86,2.27c.18.32,1.18,2.29,1,2.55s-1.87,1.93-2,2.07-2,1.85-2,1.85l1,1.35s4.09-3.2,4.41-3.52,1.27-1,.92-2.1-1-3.78-1.12-4S123.58,87.62,121.8,88.31Z"/><path class="cls-21" d="M106.63,93.21s.65-.73,1-.72.1.29.1.29.22-.28.45-.13,0,.46,0,.46a.27.27,0,0,1,.39.06c.17.23-.11.44-.11.44s.43-.07.34.28a1.56,1.56,0,0,1-.8.89s-.19.07-.34-.17a.38.38,0,0,1-.52-.31s-.49-.11-.34-.49A.34.34,0,0,1,106.63,93.21Z"/><path class="cls-20" d="M117,87.84s-.12-.56,1.63-.69,2.95.26,3,.76-4.45,1.77-4.45,1.77Z"/><path class="cls-21" d="M118.8,81.29s-2.47-.91-2.31,2.37.73,3.61,2.35,3.15,1.76-2.53,2-3.52S119.6,81.43,118.8,81.29Z"/><path class="cls-21" d="M117.54,88.15s.59.26,2.52-.59a8.54,8.54,0,0,1,.32-2.55c.38-1.23-2.58,1.64-2.58,1.64s0,.15,0,.32a3.8,3.8,0,0,1-.1.51C117.62,87.89,117.64,87.82,117.54,88.15Z"/><path class="cls-34" d="M120.47,84.91s0-.87-.36-1-.55.42-.55.42h-.3s.27-.89-.08-1.09-2.42,0-2.68-.33.11-2.07.68-2.24a3.39,3.39,0,0,1,3.1.34s.84.37.87,1.06A7.44,7.44,0,0,1,120.47,84.91Z"/><path class="cls-35" d="M117.72,87.48c1.92-.32,2.2-1.41,2.21-1.43a2.81,2.81,0,0,1-2.11.92A3.8,3.8,0,0,1,117.72,87.48Z"/><path class="cls-21" d="M119.7,83.58c.11-.28.72-.25.66.21s-.57,1.16-.78,1S119.55,84,119.7,83.58Z"/><path class="cls-14" d="M97.56,102.58H87.77V92.8h9.79Zm-8.85-.94h7.91V93.73H88.71Z"/><polygon class="cls-14" points="92.81 99.76 89.37 96.51 90.44 95.37 92.89 97.68 98.24 93.28 99.23 94.48 92.81 99.76"/><path class="cls-36" d="M89.7,74.51a26.36,26.36,0,0,0-36-9.56,25.55,25.55,0,0,0-3.54,2.45v6A22.05,22.05,0,0,1,88.93,86.91c0,.28,0,.55,0,.82A22,22,0,0,1,50.12,102v6.06a26.24,26.24,0,0,0,5.15,3.31H78.53c.54-.26,1.08-.55,1.61-.86A26.36,26.36,0,0,0,89.7,74.51Z"/><rect class="cls-37" x="19.09" y="105.42" width="33.86" height="5.76" transform="translate(133.01 168.43) rotate(140.19)"/><rect class="cls-38" x="48.81" y="94.69" width="1.81" height="4.37" transform="translate(149.93 139.47) rotate(140.19)"/><path class="cls-39" d="M47.38,92.85A20.95,20.95,0,1,0,55,64.21,20.95,20.95,0,0,0,47.38,92.85Zm3-1.73A17.51,17.51,0,1,1,83,81.67h0a17.52,17.52,0,0,1-32.65,9.45Z"/><path class="cls-40" d="M48.8,77.05S67,63.2,83,81.67h0a17.51,17.51,0,0,0-34.2-4.62Z"/><path class="cls-41" d="M68.41,51.56A10.56,10.56,0,0,0,68.78,50c-.06-.15-1-1.11-1-1.23s1.33-.93,1.46-1.16.38.45.43,1,.14,1.52.14,1.64S69.46,52,69.46,52Z"/><path class="cls-42" d="M64.59,53.76s0,.15.06.37h0c0,.14,0,.31.08.48.1.55.21,1.21.25,1.43a5.67,5.67,0,0,0,.67,1.83,1,1,0,0,0,.67.29c.21,0,.75.24,1.4-.78a30.13,30.13,0,0,0,1.71-4.77c.06-.2.21-.74.21-.74l-1.32-.47-1.08,2.93c-.1.27-.7,1.35-.73,1.39s-.1-3-.1-3Z"/><path class="cls-19" d="M70.41,73.15a10.44,10.44,0,0,0,1.38,1.93c.56.36.21.73-.05.73s-1.62.1-1.92-.24-.45-1.35-.72-1.62-.57-1.32.13-1.57S70.41,73.15,70.41,73.15Z"/><path class="cls-21" d="M70,72.43s1.11,1.93,1.31,2.22-.37.28-.71.15A6.84,6.84,0,0,1,69.26,73a.91.91,0,0,1,0-.64Z"/><polygon class="cls-19" points="68.86 73.47 69.11 75.45 69.25 75.46 69.21 74.03 68.86 73.47"/><path class="cls-19" d="M60.75,73.15a10.44,10.44,0,0,0,1.38,1.93c.56.36.21.73-.05.73s-1.62.1-1.92-.24-.45-1.35-.72-1.62-.58-1.35.13-1.57S60.75,73.15,60.75,73.15Z"/><path class="cls-21" d="M60.39,72.43s1,1.93,1.25,2.22-.37.28-.71.15A6.84,6.84,0,0,1,59.6,73a.91.91,0,0,1,0-.64Z"/><polygon class="cls-19" points="59.2 73.47 59.45 75.45 59.59 75.46 59.55 74.03 59.2 73.47"/><path class="cls-21" d="M56.43,58.13l8.81,4a1.77,1.77,0,0,1,.45.25h0a1.69,1.69,0,0,1,.65,1.16c.34,3.42,2.89,8.83,2.89,8.83.82.4.76.05.76.05-.52-1.66-1.15-8.48-1.37-11.23-.05-.58-.08-1-.08-1.1s-.1-.2-.27-.33c-1.21-1-6.18-3-6.18-3A9.39,9.39,0,0,0,56.43,58.13Z"/><path class="cls-21" d="M55.78,59.5A2.77,2.77,0,0,0,58.44,62h4.12a26,26,0,0,0-1.5,4.44c-.44,2.16-1.49,6-1.49,6s.07.13.82.05a92.15,92.15,0,0,1,4.47-8.07A10.81,10.81,0,0,0,66,61c0-.38,0-.67-.12-.79s-.47-.35-.91-.63a20.71,20.71,0,0,0-4.79-2.34,34.12,34.12,0,0,1-3.59-1.09S55.51,57.12,55.78,59.5Z"/><path class="cls-19" d="M62.13,62H58.44s-2.69.07-3-2.31a4.47,4.47,0,0,1,1-3.36s1.25.33,2.82.71a13,13,0,0,1,2.84-.25s4.68,1,6.42,3.26C68.51,60,65.76,58.62,62.13,62Z"/><path class="cls-21" d="M66.12,46.33c0,.27,0,.54,0,.8a1.93,1.93,0,0,0,0,.24,2.47,2.47,0,0,0,.48,1.28h0a1.54,1.54,0,0,0,1.63.63c1.23-.29,2-4.29,2-4.29-.34-1.56-2.43-1.65-3.26-1.09A3,3,0,0,0,66.12,46.33Z"/><path class="cls-42" d="M56.23,56.4s0,.46,3.53,1l.27.05.83.14c1.66.31,1.32.3,2-.86a10.44,10.44,0,0,1,1-1.79,3.57,3.57,0,0,0,.87-.9c.19-.3.89-.11,1.55-.68s.38-1.41.42-2.07a8,8,0,0,0-.37-2.52c-1.84-3.44-4.52-.71-5-.22s-2.15,4.58-2.6,5.1C57.08,55.49,56.23,56.4,56.23,56.4Z"/><path class="cls-21" d="M64.44,47.25s.27,3.36,1.07,3.73.54-2.91.54-2.91S65.37,46.69,64.44,47.25Z"/><path class="cls-34" d="M69.31,45.24a7.08,7.08,0,0,1,.34,1.93,4,4,0,0,0,.67-1.43,2.44,2.44,0,0,0-.58-2.62C68.72,42.28,69.31,45.24,69.31,45.24Z"/><path class="cls-21" d="M65.15,48.24c0,.83.88,1.29.95.9,0,0,.11-.15.18-.23h0l.07-.07a1,1,0,0,1,.24-.19,3.76,3.76,0,0,1,.81-.35l-.89-2.44s-.17.19-.39.47A4.19,4.19,0,0,0,65.15,48.24Z"/><path class="cls-43" d="M66.28,48.91l.07-.07a1,1,0,0,1,.24-.19,2.75,2.75,0,0,1-.48-1.28A2.39,2.39,0,0,0,66.28,48.91Z"/><path class="cls-44" d="M63.14,63.8a.92.92,0,0,1-.12-.2,2,2,0,0,0-.05-.24.19.19,0,0,0,0-.08,1.78,1.78,0,0,1-.12-.4,10.2,10.2,0,0,1,.13-1l.47,0,.43-.11a8.67,8.67,0,0,1,.71,1.11s0,0,0,0a2.27,2.27,0,0,1,0,.35s0,.32-.1.37a.3.3,0,0,1-.27,0,.67.67,0,0,1-.36.11.43.43,0,0,1-.37,0S63.25,63.87,63.14,63.8Z"/><path class="cls-42" d="M63,49.85s.46-1.74-.74-1.71S61,49.67,61,50s-.45,3.81-.4,4.47a21,21,0,0,0,.06,2.45,54.9,54.9,0,0,0,2.28,5.27S64,61.73,64,61.73s-1.37-4.48-1.55-4.89a2.94,2.94,0,0,1-.19-1.44C62.24,55.09,63,50.11,63,49.85Z"/><path class="cls-34" d="M69.47,45.38s-.58,1-1.48.79-1.57,0-1.68.37-.88,2.42-1.7,2.36-1.42-1.31-1.88-1.07-1,1.62-1.56,1.25-.49-1.64.8-2.19,2.19-.55,2.57-1.26,1.3-2.67,2.19-3.06a2.52,2.52,0,0,1,2.68.3A2,2,0,0,1,70.27,45Z"/><path class="cls-35" d="M65.69,62.39h0a1.63,1.63,0,0,1,.27.26A5.9,5.9,0,0,0,66,60.81,6.48,6.48,0,0,1,65.69,62.39Z"/><path class="cls-45" d="M60,57.46l.83.14h0a3.24,3.24,0,0,1-.25-.78,30.53,30.53,0,0,1,0-3.92l.15-1.5A16.23,16.23,0,0,0,60,57.46Z"/><path class="cls-45" d="M64.65,54.13h0c0,.14,0,.14.06.31A2.37,2.37,0,0,0,66,53.55a2.73,2.73,0,0,1-1.09.35A.36.36,0,0,0,64.65,54.13Z"/><path class="cls-46" d="M71.07,81.13a2.38,2.38,0,0,1,1.11,2.68c-.36,2-.52,2.23-.12,3s.89,4,.53,4.66S68,88.74,67.47,85.93s.36-4.05.7-4.52A2.48,2.48,0,0,1,71.07,81.13Z"/><polygon class="cls-47" points="58.74 77.43 64.95 77.43 64.95 81.93 64.95 82.88 64 81.93 58.74 81.93 58.74 77.43"/><path class="cls-34" d="M71.7,122.86a3.33,3.33,0,0,0,.44.72c.2.27.84,1.38,1.13,1.46s1.15.23,1.23.72.11.83-.75.87-1.42.09-1.83-.51a4.43,4.43,0,0,0-1.07-1.05v1.58h-.33a14.55,14.55,0,0,0-.25-1.76,2,2,0,0,1,.48-2C71.54,122.21,71.7,122.86,71.7,122.86Z"/><path class="cls-21" d="M73.27,125s-.77.19-1.07,0-1.3-1.89-1.63-2c0,0,.32-.65,1.13-.18C71.7,122.86,73.05,124.75,73.27,125Z"/><path class="cls-21" d="M80.79,96s.54.1.72-.15a1.74,1.74,0,0,1,.62-.43c.14-.06.51-.44.6-.26s-.58.65-.7.78.66.18.79.3,0,1.4-.56,1.3A4.66,4.66,0,0,1,81.14,97a3.3,3.3,0,0,1-.39-.06Z"/><path class="cls-21" d="M82.7,96.16a11.44,11.44,0,0,1,1.68.53c.09.11.06.2-.09.17l-1.56-.36s1.81.81,1.9.89,0,.22-.07.21-1.92-.71-1.92-.71,1.69.76,1.74.85a.12.12,0,0,1-.16.17l-1.74-.66a7.71,7.71,0,0,1,1.2.73c0,.06,0,.21-.33,0s-1.06-.5-1.06-.5Z"/><path class="cls-34" d="M67.4,123.89a15.31,15.31,0,0,0,1.2,1.58s.77.29.85.83.07.89-.85.92-1.51-.14-1.67-.69a2.56,2.56,0,0,0-.54-.93v1.16h-.2s0-1.12-.07-1.33-.14-1,.29-1.34A1.21,1.21,0,0,1,67.4,123.89Z"/><path class="cls-48" d="M66.82,99.21a8,8,0,0,0-1.38,3.09c-.3,1.68.17,7.31.16,8.13s-.79,2.89-.63,4.46.76,9.33.76,9.33l1.67-.33s-.1-7.92,0-8.58.29-3,.32-3.31,2.45-7.36,2.45-8.57S69.44,97.24,66.82,99.21Z"/><path class="cls-48" d="M72.28,99.76s1.78,6.82,2,7.76a20.17,20.17,0,0,1,.51,2.13,14.18,14.18,0,0,1-.34,2.42l-2.27,10.85H70s1.21-6.51,1.24-7.78,1-3.09.82-3.63-3.1-6.76-3.1-6.76S66.77,97.78,72.28,99.76Z"/><path class="cls-21" d="M68.6,125.47a1.22,1.22,0,0,1-1.45-.14,4.32,4.32,0,0,1-.74-1.24l1-.2Z"/><path class="cls-49" d="M71.54,88.18a2.2,2.2,0,0,1,1.29.67,8.43,8.43,0,0,1,1.23,1.86C74.2,91,76.25,94,76.35,94s1.13.41,1.81.64c1,.35,3.16,1.12,3.16,1.12l-.42,1.32s-4-1.29-5-1.54c-1.21-.3-4-3.88-4-3.88S69.87,89.27,71.54,88.18Z"/><path class="cls-37" d="M70.26,87.66a10.38,10.38,0,0,0,1.28.52,7.16,7.16,0,0,1,1.84,2.34,3.89,3.89,0,0,1-.46,2.6c-.47,1.07,0,1.43-.24,2.5a44.56,44.56,0,0,0-.1,5.69c0,.59-6.2,1.5-7.44.41,0,0,.84-3.62,1.82-4.65A3.92,3.92,0,0,0,67,95c-.15-.37-1.79-3.14-1.79-3.14s-.12-2.81.6-3.37a9.25,9.25,0,0,1,2.62-.76A5.46,5.46,0,0,1,70.26,87.66Z"/><path class="cls-21" d="M70.71,86.56s0,.27-.06.62c0,.14,0,.3,0,.45a10,10,0,0,0,0,1.25s-1,1-2.12-1.16a2.91,2.91,0,0,0,.12-2.09C68.2,84.42,70.71,86.56,70.71,86.56Z"/><path class="cls-50" d="M73.48,93.52a8.15,8.15,0,0,0,0-2.55A6,6,0,0,1,73,93Z"/><path class="cls-21" d="M67.68,87.88a2.69,2.69,0,0,0,2.55,1.86c1.88-.15.89-1.7.89-1.7a3.77,3.77,0,0,0-.6-.29c-.13,0-2.07,0-2.07,0Z"/><path class="cls-49" d="M71.12,88a18.45,18.45,0,0,1,1,5.48,61.76,61.76,0,0,0,.42,8.69c.35,1.42,1.32,5.81,1.32,5.81l.76-.39s-1.83-7-2-7.52a47,47,0,0,1,.24-6.3,13.19,13.19,0,0,0,.6-3,5.07,5.07,0,0,0-1.82-2.61Z"/><path class="cls-49" d="M68.05,87.79A28.2,28.2,0,0,1,69,92.24c.31,2.5-1,14.1-1.79,16.73l-3.27-.52s.71-8.2,1.66-9.7,1.26-2.81.23-5.92.45-4.66.45-4.66S67.76,87.82,68.05,87.79Z"/><polygon class="cls-51" points="71.57 96.06 67.61 102.92 63.21 100.38 67 93.42 71.57 96.06"/><polygon class="cls-52" points="71.09 96.3 67.58 102.39 63.67 100.13 67.03 93.96 71.09 96.3"/><polygon class="cls-51" points="69.8 95.75 70.05 95.33 68.47 94.41 68.16 94.81 69.8 95.75"/><path class="cls-21" d="M69.61,100.62a.8.8,0,0,1-.26,0l-.24-.13-.08,0a1.25,1.25,0,0,1-.44-.18,9.26,9.26,0,0,1-.8-.84l.3-.45.21-.45a9.48,9.48,0,0,1,1.48.18l0,0a1.35,1.35,0,0,1,.27.28s.26.25.26.35a.37.37,0,0,1-.16.27A.72.72,0,0,1,70,100a.51.51,0,0,1-.23.36S69.75,100.58,69.61,100.62Z"/><path class="cls-49" d="M66.93,88.18a1.67,1.67,0,0,0-1.89,1,6,6,0,0,0-.78,2.54c-.09.61-.48,2.28-.52,2.45s-.93,2.22-.52,2.94,4.57,2.85,4.54,3,.72-1.61.72-1.61a18.16,18.16,0,0,1-2-1.23c-.44-.47-1.39-1-1.19-1.55s.91-3,1.07-3.33S67.94,88.61,66.93,88.18Z"/><path class="cls-53" d="M70.86,81.35s2.14.67,1,4.36-4.09-.43-3.78-2.68S70.86,81.35,70.86,81.35Z"/><path class="cls-46" d="M72.06,83.5a4.84,4.84,0,0,1-2.85,1.18,4.48,4.48,0,0,0-.73,1.11s-1.59-2.7.36-4.33S72.77,82.83,72.06,83.5Z"/><path class="cls-53" d="M69.23,84.75c0-.27-.18-.88-.57-.71s0,1.42.28,1.34C68.94,85.38,69.27,85.39,69.23,84.75Z"/><path class="cls-43" d="M70.65,87.18c0,.14,0,.3,0,.45s-.94,0-1.58-1.46C69.08,86.23,69.77,87.25,70.65,87.18Z"/></g></g></g></svg>