<svg xmlns="http://www.w3.org/2000/svg" xmlns:xlink="http://www.w3.org/1999/xlink" viewBox="0 0 164.29 108.91"><defs><style>.cls-1{mask:url(#mask);filter:url(#luminosity-noclip-4);}.cls-2,.cls-4,.cls-6{mix-blend-mode:multiply;}.cls-2{fill:url(#linear-gradient);}.cls-3{mask:url(#mask-2);filter:url(#luminosity-noclip-5);}.cls-4{fill:url(#linear-gradient-2);}.cls-5{mask:url(#mask-3);filter:url(#luminosity-noclip-6);}.cls-6{fill:url(#linear-gradient-3);}.cls-7{fill:url(#linear-gradient-4);}.cls-8{fill:#1d2032;}.cls-9{fill:#505685;}.cls-10{fill:#e3a98a;}.cls-11{fill:#ddd;}.cls-12{fill:#292d45;}.cls-13{fill:#18202d;}.cls-14{fill:#bb8b73;}.cls-15{fill:#3d4266;}.cls-16{fill:#e3aa8b;}.cls-17{fill:#bebebe;}.cls-18{fill:#c34b46;}.cls-19{fill:#9b9b9b;}.cls-20{fill:#1c1d2f;}.cls-21{fill:url(#radial-gradient);}.cls-22{fill:#fff;}.cls-23{mask:url(#mask-4);}.cls-24{fill:url(#linear-gradient-5);}.cls-25{mask:url(#mask-5);}.cls-26{fill:url(#linear-gradient-6);}.cls-27{mask:url(#mask-6);}.cls-28{fill:url(#linear-gradient-7);}.cls-29{fill:#c66e4f;}.cls-30{fill:#f3af6f;}.cls-31{fill:url(#linear-gradient-8);}.cls-32{fill:url(#linear-gradient-9);}.cls-33{fill:#6f6865;}.cls-34{fill:#baaeaa;}.cls-35{fill:#bcdcfb;}.cls-36{fill:#d19d80;}.cls-37{fill:#d44e57;}.cls-38{fill:#63a7eb;}.cls-39{fill:#e4ab8c;}.cls-40{fill:#424870;}.cls-41{fill:#ded1ca;}.cls-42{fill:#dee0e6;}.cls-43{fill:#688bc3;}.cls-44{fill:#e0a788;}.cls-45{fill:#454240;}.cls-46{fill:#d9544e;}.cls-47{fill:#f1f1f1;}.cls-48{fill:#9f7a64;}.cls-49{fill:#d49e81;}.cls-50{fill:#202336;}.cls-51{fill:#5d5854;}.cls-52{fill:#8f8780;}.cls-53{fill:#4f5785;}.cls-54{fill:#6d6761;}.cls-55{fill:#7d7067;}.cls-56{fill:#e3b160;}.cls-57{fill:#1a2b3b;}.cls-58{fill:#c58d71;}.cls-59{fill:#323755;}.cls-60{fill:#f5bf68;}.cls-61{fill:#423e79;}.cls-62{filter:url(#luminosity-noclip-3);}.cls-63{filter:url(#luminosity-noclip-2);}.cls-64{filter:url(#luminosity-noclip);}</style><filter id="luminosity-noclip" x="63.09" y="-8516" width="4.46" height="32766" filterUnits="userSpaceOnUse" color-interpolation-filters="sRGB"><feFlood flood-color="#fff" result="bg"/><feBlend in="SourceGraphic" in2="bg"/></filter><mask id="mask" x="63.09" y="-8516" width="4.46" height="32766" maskUnits="userSpaceOnUse"><g class="cls-64"/></mask><linearGradient id="linear-gradient" x1="65.32" y1="31.21" x2="65.32" y2="63" gradientTransform="translate(7.7 -7.76) rotate(7.22)" gradientUnits="userSpaceOnUse"><stop offset="0.01"/><stop offset="1" stop-color="#fff"/></linearGradient><filter id="luminosity-noclip-2" x="78.37" y="-8516" width="4.17" height="32766" filterUnits="userSpaceOnUse" color-interpolation-filters="sRGB"><feFlood flood-color="#fff" result="bg"/><feBlend in="SourceGraphic" in2="bg"/></filter><mask id="mask-2" x="78.37" y="-8516" width="4.17" height="32766" maskUnits="userSpaceOnUse"><g class="cls-63"/></mask><linearGradient id="linear-gradient-2" x1="80.46" y1="31.21" x2="80.46" y2="63" gradientTransform="translate(166.95 104.39) rotate(173.38)" xlink:href="#linear-gradient"/><filter id="luminosity-noclip-3" x="63.49" y="-8516" width="18.74" height="32766" filterUnits="userSpaceOnUse" color-interpolation-filters="sRGB"><feFlood flood-color="#fff" result="bg"/><feBlend in="SourceGraphic" in2="bg"/></filter><mask id="mask-3" x="63.49" y="-8516" width="18.74" height="32766" maskUnits="userSpaceOnUse"><g class="cls-62"/></mask><linearGradient id="linear-gradient-3" x1="72.86" y1="31.21" x2="72.86" y2="63" gradientTransform="matrix(1, 0, 0, 1, 0, 0)" xlink:href="#linear-gradient"/><linearGradient id="linear-gradient-4" y1="97.97" x2="164.29" y2="97.97" gradientUnits="userSpaceOnUse"><stop offset="0" stop-color="#fbebe3"/><stop offset="1" stop-color="#e9dad4"/></linearGradient><radialGradient id="radial-gradient" cx="65.53" cy="15.38" r="50.39" gradientUnits="userSpaceOnUse"><stop offset="0.01" stop-color="#f9dc9a"/><stop offset="0.99" stop-color="#fae46e"/></radialGradient><filter id="luminosity-noclip-4" x="63.09" y="42.7" width="4.46" height="28.8" filterUnits="userSpaceOnUse" color-interpolation-filters="sRGB"><feFlood flood-color="#fff" result="bg"/><feBlend in="SourceGraphic" in2="bg"/></filter><mask id="mask-4" x="63.09" y="42.7" width="4.46" height="28.8" maskUnits="userSpaceOnUse"><g class="cls-1"><rect class="cls-2" x="64.9" y="42.64" width="0.83" height="28.92" transform="matrix(0.99, -0.13, 0.13, 0.99, -6.66, 8.67)"/></g></mask><linearGradient id="linear-gradient-5" x1="65.32" y1="31.21" x2="65.32" y2="63" gradientTransform="translate(7.7 -7.76) rotate(7.22)" gradientUnits="userSpaceOnUse"><stop offset="0.01" stop-color="#f9dc9a"/><stop offset="1" stop-color="#fff"/></linearGradient><filter id="luminosity-noclip-5" x="78.37" y="42.61" width="4.17" height="28.83" filterUnits="userSpaceOnUse" color-interpolation-filters="sRGB"><feFlood flood-color="#fff" result="bg"/><feBlend in="SourceGraphic" in2="bg"/></filter><mask id="mask-5" x="78.37" y="42.61" width="4.17" height="28.83" maskUnits="userSpaceOnUse"><g class="cls-3"><rect class="cls-4" x="80.04" y="42.56" width="0.83" height="28.93" transform="translate(153.8 122.94) rotate(-173.38)"/></g></mask><linearGradient id="linear-gradient-6" x1="80.46" y1="31.21" x2="80.46" y2="63" gradientTransform="translate(166.95 104.39) rotate(173.38)" xlink:href="#linear-gradient-5"/><filter id="luminosity-noclip-6" x="63.49" y="43.22" width="18.74" height="3.91" filterUnits="userSpaceOnUse" color-interpolation-filters="sRGB"><feFlood flood-color="#fff" result="bg"/><feBlend in="SourceGraphic" in2="bg"/></filter><mask id="mask-6" x="63.49" y="43.22" width="18.74" height="3.91" maskUnits="userSpaceOnUse"><g class="cls-5"><polygon class="cls-6" points="78.95 47.13 75.81 44.03 72.76 47.11 69.72 44.11 66.78 47.09 63.49 43.84 63.89 43.43 66.77 46.28 69.72 43.3 72.75 46.3 75.81 43.22 78.94 46.33 81.82 43.42 82.23 43.82 78.95 47.13"/></g></mask><linearGradient id="linear-gradient-7" x1="72.86" y1="31.21" x2="72.86" y2="63" gradientTransform="matrix(1, 0, 0, 1, 0, 0)" xlink:href="#linear-gradient-5"/><linearGradient id="linear-gradient-8" x1="-17483.4" y1="77.47" x2="-17573.82" y2="77.47" gradientTransform="matrix(-1, 0, 0, 1, -17453.46, 0)" gradientUnits="userSpaceOnUse"><stop offset="0" stop-color="#6ed1e2"/><stop offset="1" stop-color="#5a7af5"/></linearGradient><linearGradient id="linear-gradient-9" x1="-17516.66" y1="77.47" x2="-17543.17" y2="77.47" xlink:href="#linear-gradient-8"/></defs><title>tackle</title><g id="Layer_2" data-name="Layer 2"><g id="Layer_1-2" data-name="Layer 1"><path class="cls-7" d="M146.8,88c9.91-.64,11.27.34,17.49,1-21.66,6.12-31.75,17.3-59.93,14.79-23.93-2.13-48.12,10-71,2.79-8.8-2.79-17-7.13-25.15-11.44C6.13,94-1.88,91.54.41,87.94c1.35-2.13,11.31.14,13.75.33C25,89.09,35.77,89.6,46.6,89.88c21.38.56,42.78.19,64.16-.5C122.78,89,134.8,88.78,146.8,88Z"/><path class="cls-8" d="M117.81,93.71s-.8.54-1.17.74-1.81.33-2,.47-.06.58.18.61a11.73,11.73,0,0,0,2.6-.07,19.26,19.26,0,0,1,1.94-.09c.24-.1,0-1.41-.1-1.7S117.81,93.71,117.81,93.71Z"/><polygon class="cls-9" points="119.19 93.32 119.31 93.67 117.81 93.71 117.85 93.23 119.19 93.32"/><path class="cls-8" d="M126.47,93s-.62.74-.91,1-1.64.84-1.73,1,.11.56.35.53a11.79,11.79,0,0,0,2.47-.82c.51-.33,1.62-.48,1.82-.64s-.39-1.35-.58-1.6S126.47,93,126.47,93Z"/><polygon class="cls-9" points="127.68 92.21 127.89 92.51 126.47 92.98 126.37 92.51 127.68 92.21"/><path class="cls-10" d="M115.12,63.05a9.82,9.82,0,0,0-1.48-.63c-.12,0-.15.11,0,.18l1.28.68s-1.71-.51-1.82-.5-.12.15-.06.19,1.74.65,1.74.65-1.6-.47-1.69-.44a.13.13,0,0,0,0,.23l1.58.57a6.07,6.07,0,0,0-1.24-.19s-.1.17.21.23,1,.28,1,.28Z"/><path class="cls-10" d="M116.56,64.08s-.43-.25-.42-.55a1.77,1.77,0,0,0-.2-.69c-.07-.14-.12-.63-.28-.55s0,.82.07,1S115.17,63,115,63s-.75,1-.32,1.29a4.27,4.27,0,0,0,1.09.28,2.92,2.92,0,0,0,.31.19Z"/><path class="cls-11" d="M121.12,67.35c-.32.71-.49.79-.87.88-.81.2-4.61-3.26-4.61-3.26l.83-1.09s.93.73,1.72,1.26a13.37,13.37,0,0,0,1.54,1.08,23.42,23.42,0,0,0,1.5-2.13,12.73,12.73,0,0,1,.94-2.49S123.22,62.82,121.12,67.35Z"/><path class="cls-12" d="M122,76.58s.29,2.11.58,4.14h0c.06.39.12.77.17,1.14h0c.19,1.28.36,2.33.42,2.52.19.53,2.75,8.49,2.75,8.49s2-.37,2.07-.59c0,0-2.18-8.33-2.15-8.63s-.27-8.8-.27-8.8S122.12,76.09,122,76.58Z"/><path class="cls-12" d="M120.39,73.94s-1.81,8.64-2,9.28-1,10.33-1,10.33a18.73,18.73,0,0,0,2.25,0s1.56-9.81,1.72-10.11c.63-1.19,3-7.14,3.33-8a7.52,7.52,0,0,1,.83-1.56A4.83,4.83,0,0,0,120.39,73.94Z"/><path class="cls-11" d="M124.35,60.14a29.77,29.77,0,0,0-2.4,1.93,7.9,7.9,0,0,0-1.53,3.48,36.25,36.25,0,0,1,.12,6.9c-.09,1.4-.23,1.49-.13,1.5.35.07,4.49.93,5.18,1.15a38.54,38.54,0,0,0,0-4.87C125.32,69.58,126.29,62.78,124.35,60.14Z"/><path class="cls-10" d="M124.35,60.14s-3.44,3.62-3.22,3.22c.76-1.45,1.29-1.68,1.28-2s-.08-.81-.09-1c0-.39,0-.71,0-.71s1.72-2.32,1.63-1.52A4.89,4.89,0,0,0,124.35,60.14Z"/><path class="cls-10" d="M121.21,55.74a8.36,8.36,0,0,0-.49,1.34,6,6,0,0,1,0,.74,9.77,9.77,0,0,0-.29,1.11c0,.22.49.12.54.47s.37,1,.54,1a4,4,0,0,0,2.13-.91c.11-.34.72-2.19.91-2.54s-2.78-2.35-3.06-1.8Z"/><path class="cls-13" d="M125.28,56.62c.23-.92-.83-1-.83-1a2.88,2.88,0,0,0-2.34-.75c-1.65.06-1.44,2.23-1.44,2.23a6.29,6.29,0,0,1,1.64,0,7.44,7.44,0,0,1,0,1.15l.62,0s0-.82.25-.86.37,1.74.92,2.14a.64.64,0,0,1,.08-.24h0a7.42,7.42,0,0,0,.45-.9A10.78,10.78,0,0,0,125.28,56.62Z"/><path class="cls-10" d="M122.75,57.47a.47.47,0,0,1,.79-.2c.39.3,0,1.35-.43,1.34S122.58,58,122.75,57.47Z"/><path class="cls-14" d="M123.75,59.23a1.18,1.18,0,0,1-.18.4,3.58,3.58,0,0,1-1.25.63l.05.65S123.8,60.39,123.75,59.23Z"/><path class="cls-15" d="M120.33,74.2a4,4,0,0,1,.11-.74s3.06.77,5.16,1.08a4.44,4.44,0,0,1,0,.74S121,74.44,120.33,74.2Z"/><path class="cls-16" d="M121.39,74.68s-.13.5-.33.61.91,1.21.91,1.21a9.82,9.82,0,0,0,.47-1.1A7,7,0,0,0,121.39,74.68Z"/><path class="cls-11" d="M125.14,62.35s1.21,6.34,1.31,7-4,6.4-4,6.4l-1.32-.82s3.33-5.81,3.33-6.08S123,63.45,123,63.45a1.13,1.13,0,0,1,.53-1.64A1.15,1.15,0,0,1,125.14,62.35Z"/><path class="cls-12" d="M120.61,75.1a22.31,22.31,0,0,0-.46,2.8c0,.66,2.5-1,2.39-1.65Z"/><path class="cls-11" d="M124.35,60.21l-2.17,1.58a6.59,6.59,0,0,0-1.3,2l3.84-3Z"/><polygon class="cls-17" points="124.23 59.84 122.32 61.1 122.17 61.86 124.43 60.25 124.23 59.84"/><path class="cls-18" d="M122.17,61.86a14.49,14.49,0,0,0-1.59,5.6c0,2.54-.14,4.29-.14,4.29l-.25.69-.2-.82s0-3,.09-4.3a11.49,11.49,0,0,1,2-5.6Z"/><path class="cls-18" d="M122.17,61.86a.36.36,0,0,1-.18.08c-.11,0-.24-.17.33-.84Z"/><path class="cls-19" d="M123.6,65.59l.85,3.25-2.08,3.88s1.54-3.26,1.49-4.1S123.6,65.59,123.6,65.59Z"/><path class="cls-20" d="M122.59,80.72h0c.06.39.12.77.17,1.14.3-.7,1.29-4.64,1.3-4.71Z"/><path class="cls-21" d="M98.15,22C98.09,9.79,86.34-.07,71.92,0s-26.08,10.05-26,22.29a19.2,19.2,0,0,0,2.31,9s8.05,15.56,9.25,30.33c0,6.91,6.67,12.48,14.81,12.44S87,68.42,87,61.51c1.06-14.8,9-30.42,9-30.42h0A19.42,19.42,0,0,0,98.15,22Z"/><path class="cls-22" d="M83.62,25.38a7.21,7.21,0,0,0,.46-2l1.34-.52-.26-1.53-.26-1.54-1.43,0A7.53,7.53,0,0,0,82.39,18L83,16.73l-1.27-.91-1.27-.9-1.05,1a6.85,6.85,0,0,0-2-.45l-.51-1.34-1.54.25-1.54.26,0,1.44A7,7,0,0,0,72,17.14l-1.31-.59-.9,1.27-.91,1.27,1,1.05a7.58,7.58,0,0,0-.45,2l-1.34.52.26,1.53.26,1.54,1.43.05a7.76,7.76,0,0,0,1.08,1.72l-.58,1.31,1.27.91,1.27.9,1-1a7,7,0,0,0,2,.45l.51,1.34,1.54-.25,1.54-.26,0-1.44a7,7,0,0,0,1.73-1.08L82.8,29l.9-1.27.9-1.27Zm-9.07.49A3.82,3.82,0,1,1,79.88,25,3.83,3.83,0,0,1,74.55,25.87Z"/><path class="cls-22" d="M69.54,33.71a4.54,4.54,0,0,0,.29-1.25l.85-.33-.17-1-.16-1-.91,0a4.42,4.42,0,0,0-.68-1.09l.37-.83-.81-.57-.8-.57-.66.62a4.61,4.61,0,0,0-1.26-.29l-.32-.85-1,.17-1,.16,0,.91a4.67,4.67,0,0,0-1.1.68l-.82-.37-.58.8-.57.81.62.66a4.61,4.61,0,0,0-.28,1.25l-.85.33.16,1,.17,1,.9,0A4.46,4.46,0,0,0,61.65,35l-.37.83.8.57.8.57.66-.62a4.27,4.27,0,0,0,1.26.29l.32.85,1-.16,1-.17,0-.91a4.61,4.61,0,0,0,1.09-.68L69,36l.57-.8.57-.81ZM63.8,34a2.42,2.42,0,1,1,3.37-.57A2.43,2.43,0,0,1,63.8,34Z"/><g class="cls-23"><rect class="cls-24" x="64.9" y="42.64" width="0.83" height="28.92" transform="matrix(0.99, -0.13, 0.13, 0.99, -6.66, 8.67)"/></g><g class="cls-25"><rect class="cls-26" x="80.04" y="42.56" width="0.83" height="28.93" transform="translate(153.8 122.94) rotate(-173.38)"/></g><g class="cls-27"><polygon class="cls-28" points="78.95 47.13 75.81 44.03 72.76 47.11 69.72 44.11 66.78 47.09 63.49 43.84 63.89 43.43 66.77 46.28 69.72 43.3 72.75 46.3 75.81 43.22 78.94 46.33 81.82 43.42 82.23 43.82 78.95 47.13"/></g><path class="cls-29" d="M80.66,81.94,63.94,82a3.37,3.37,0,0,1-3.38-3.35l0-6.58L84,72l0,6.58A3.35,3.35,0,0,1,80.66,81.94Z"/><path class="cls-30" d="M82.72,77.84l-20.88.1a5,5,0,0,1-5.08-5l0-11,31-.15,0,11A5,5,0,0,1,82.72,77.84Z"/><rect class="cls-31" x="44.29" y="68.73" width="55.88" height="17.48"/><polygon class="cls-32" points="100.17 86.21 100.17 68.73 79.83 68.73 68.9 86.01 100.17 86.21"/><rect class="cls-33" x="112.14" y="60.73" width="0.68" height="30.9"/><rect class="cls-34" x="93.45" y="47.82" width="22.37" height="38.7" rx="7.27"/><rect class="cls-22" x="94.07" y="48.44" width="21.14" height="36.57" rx="7.18"/><rect class="cls-33" x="101.3" y="47.53" width="6.66" height="1.5"/><path class="cls-35" d="M104.19,62a5.71,5.71,0,1,1,0-11.42v.25a5.46,5.46,0,1,0,5.46,5.46,5.29,5.29,0,0,0-.06-.8l.25,0a5.93,5.93,0,0,1,.06.84A5.71,5.71,0,0,1,104.19,62Z"/><path class="cls-10" d="M91.23,74.27a1.35,1.35,0,0,1,.17.46,2.25,2.25,0,0,0,.21.53,5.77,5.77,0,0,1,.26.9,4,4,0,0,0-.12.6c0,.13.09.39,0,.41s-.25-.2-.25-.2,0,.13-.09.17a.3.3,0,0,1-.3,0s-.07.13-.16.15a.36.36,0,0,1-.29,0,.29.29,0,0,1-.22.07.3.3,0,0,1-.25-.15s-.22,0-.28-.06a1.22,1.22,0,0,1-.08-.3,3.44,3.44,0,0,1,.28-1.54A1.38,1.38,0,0,0,90,74.09Z"/><path class="cls-36" d="M91.51,76.9s0-.76-.18-.92-.22.12-.22.12,0-.27-.19-.31-.23.28-.23.28a.2.2,0,0,0-.26-.16c-.23,0-.17.31-.17.31s-.22-.26-.36,0a1.09,1.09,0,0,0,0,.91s.07.12.28.06a.3.3,0,0,0,.47.08s.33.18.45-.11A.28.28,0,0,0,91.51,76.9Z"/><path class="cls-37" d="M93.78,63.43s-1.29,4.29-1.72,5.88c-.14.49-.47,5.24-.53,5.43s-1.69.45-1.69.45.2-5.93.22-6.26,1.8-6.94,2.32-7.18.59,0,1.08.33A1.14,1.14,0,0,1,93.78,63.43Z"/><rect class="cls-38" x="106.12" y="56.43" width="3.52" height="0.26" transform="matrix(0.84, -0.55, 0.55, 0.84, -13.36, 68.33)"/><path class="cls-39" d="M109.75,56.6a.69.69,0,0,1-.08.23l-.16.2-.05.07a1.17,1.17,0,0,1-.24.38c-.14.14-.69.6-.69.6l-.47-.4-.48-.22a8.71,8.71,0,0,1,.39-1.33l0,0a1.29,1.29,0,0,1,.31-.21s.27-.2.36-.18a.29.29,0,0,1,.22.19.74.74,0,0,1,.34.21.45.45,0,0,1,.29.27S109.74,56.46,109.75,56.6Z"/><path class="cls-40" d="M92.74,92.74s-.12.82-.14.94-1.3-.07-1.3-.07l-.11-1A8.1,8.1,0,0,1,92.74,92.74Z"/><path class="cls-12" d="M92.62,93.57a3.43,3.43,0,0,0,.8.71c.4.21,1,.3,1.25.52s.62.85-1,.83-2.44.1-2.62-.16a6.3,6.3,0,0,1,.26-2A3.44,3.44,0,0,0,92.62,93.57Z"/><path class="cls-40" d="M102,92.74s-.12.82-.13.94-1.31-.07-1.31-.07l-.1-1A8,8,0,0,1,102,92.74Z"/><path class="cls-12" d="M101.87,93.57a3.43,3.43,0,0,0,.8.71c.4.21,1.86.39,2.09.61s.45.8-1.86.74c-1.65,0-2.44.1-2.61-.16s.25-2,.25-2A3.13,3.13,0,0,0,101.87,93.57Z"/><path class="cls-12" d="M93.8,71.8a7.55,7.55,0,0,0-1.12,3.67,39,39,0,0,1-.62,5.47c-.2,2-1,6.83-1.07,7.92s.13,4.55.13,4.55l1.67,0s1.4-8.4,1.76-9.26,2.16-7,2.22-7.65S93.8,71.8,93.8,71.8Z"/><path class="cls-12" d="M100.19,72.06s.92,4.78,1,5.85.2,5.16.26,5.82.56,8.71.72,9.72h-2.13s-1.63-5.86-1.63-8.63A21.38,21.38,0,0,0,96.37,77c-.81-1.83-2.67-1.87-3.18-5.27C93.19,71.7,99.51,71,100.19,72.06Z"/><path class="cls-10" d="M95.83,55.59s1.63-.6,2.38.64.68,3.72-.14,4a2.1,2.1,0,0,1-2.48-.63A6.14,6.14,0,0,1,94.81,57,1.65,1.65,0,0,1,95.83,55.59Z"/><path class="cls-10" d="M97.89,60.31a1.43,1.43,0,0,0,0,.66c.12.21-2.11.22-2.11.22A14.89,14.89,0,0,0,95.3,59C95,58,97.89,60.31,97.89,60.31Z"/><path class="cls-12" d="M95.3,59s.16.26.78.16,1.39-.93,1.65-1,.27-.25.27-.25l.16.24.28,0s-.26-.75.13-1-.4-2.41-2.41-1.71c0,0-1.54.42-1.48,1.3A4.82,4.82,0,0,0,95.3,59Z"/><path class="cls-41" d="M98.07,60.94s0-.41-.2-.45a13.42,13.42,0,0,0-2.3-.13v.48S96,61.11,98.07,60.94Z"/><path class="cls-10" d="M98,57.58c0-.14-.4-.56-.55-.11s.22,1.05.42,1S98,58,98,57.58Z"/><path class="cls-37" d="M101.18,61.57c-1.29-.17-3.11-.63-3.11-.63l-2.5-.1a23.7,23.7,0,0,0-3.19.91c-.09,0-.09,2-.32,2.57l.75,1.58s.43,3.12.52,4.51c0,.64-.89,6-.89,6a16.57,16.57,0,0,0,2.7.49,25.19,25.19,0,0,0,6-.27c0-.2-.82-7.49-.86-7.87-.06-.58.2-3.66.2-3.66a53.78,53.78,0,0,0,4.79-2.74c.25-.23,1.32-1.26,1.62-1.62a26.93,26.93,0,0,0,2-2.59c.13-.13-1.23-.83-1.34-.87s-1.49,1.84-2,2.45a15.69,15.69,0,0,1-1.28,1A13.1,13.1,0,0,1,101.18,61.57Z"/><path class="cls-12" d="M95.37,55.74s-2.08.16-.07,3.27Z"/><polygon class="cls-42" points="109.43 55.71 109.6 55.45 109.29 55.49 109.43 55.71"/><path class="cls-43" d="M66.86,78.29A8.76,8.76,0,0,1,65.7,79.9c-.47.31-.18.62,0,.62s1.35.08,1.6-.2.38-1.14.61-1.36.47-1.11-.12-1.32S66.86,78.29,66.86,78.29Z"/><path class="cls-44" d="M67.21,77.68s-.93,1.62-1.09,1.86.3.24.59.13a5.84,5.84,0,0,0,1.11-1.49.73.73,0,0,0,0-.54Z"/><polygon class="cls-43" points="68.16 78.56 67.94 80.22 67.83 80.22 67.86 79.03 68.16 78.56"/><path class="cls-43" d="M75,78.29a8.76,8.76,0,0,1-1.16,1.61c-.47.31-.18.62,0,.62s1.36.08,1.61-.2.37-1.14.61-1.36.48-1.13-.12-1.32S75,78.29,75,78.29Z"/><path class="cls-44" d="M75.25,77.69s-.88,1.61-1,1.85.3.24.59.13a5.84,5.84,0,0,0,1.11-1.49.73.73,0,0,0,0-.54Z"/><polygon class="cls-43" points="76.25 78.56 76.03 80.22 75.92 80.22 75.95 79.03 76.25 78.56"/><path class="cls-44" d="M78.57,65.71l-7.38,3.36a1.42,1.42,0,0,0-.92,1.18c-.29,2.86-2.43,7.39-2.43,7.39-.68.33-.63,0-.63,0a85.17,85.17,0,0,0,1.15-9.39c0-.49.06-.82.07-.93s.08-.17.22-.28a36.47,36.47,0,0,1,5.18-2.52A7.86,7.86,0,0,1,78.57,65.71Z"/><path class="cls-44" d="M80,67.15c-.23,2-3.08,1.77-3.08,1.77H73.43a21.49,21.49,0,0,1,1.26,3.72c.37,1.8,1.24,5,1.24,5s-.05.11-.68,0c0,0-2.71-5.4-3.75-6.76a9.26,9.26,0,0,1-1-2.82c0-.32,0-.57.11-.67a7.92,7.92,0,0,1,.76-.52,17.62,17.62,0,0,1,4-2c1.41-.31,3.62-.9,3.62-.9A3.8,3.8,0,0,1,80,67.15Z"/><path class="cls-45" d="M77.61,51.78a3.16,3.16,0,0,0,.26-2,2,2,0,0,0-2.64-1.61c-1.42.48-2.56,1.58-1.71,2.86s-.77,1.85-.36,2.45a1.17,1.17,0,0,1,.08,1.38,1.61,1.61,0,0,0-.67,1.24c.06.6,2.75-1.73,2.75-1.73S76.78,51.4,77.61,51.78Z"/><path class="cls-46" d="M73.28,64.32s.22,1,5.73-.27C79,64.05,77.16,63.43,73.28,64.32Z"/><path class="cls-47" d="M79.07,64.34l.26.49-6,.17a11.48,11.48,0,0,0,.16-3.61c-.07-1.34-.81-2.27-.73-3.62l-.86.14c.61-1.75.82-2.61,2.71-3.28a3.59,3.59,0,0,1,1.69-.2c2.2.18,2.86.2,3.94,2.19-1.69.27-1.41.88-1.92,2.56a6.08,6.08,0,0,0-.38,2.6C78,62.63,79.07,63.56,79.07,64.34Z"/><path class="cls-10" d="M75.57,55.06c.9-.17.7-.67.7-.67s0-.29,0-.64a2.81,2.81,0,0,1,0-.29c0-.15,0-.3,0-.44.08-.6-1.63-.24-1.63-.24a4.1,4.1,0,0,1-.13,1.58C74.23,54.73,74.67,55.22,75.57,55.06Z"/><path class="cls-10" d="M77.28,54.38A27.6,27.6,0,0,1,74.8,57s-.77-.69-.3-2.53A4.63,4.63,0,0,1,77.28,54.38Z"/><path class="cls-10" d="M77.23,49.34a4.1,4.1,0,0,1,0,3.54c-.93,1.71-2.77-.75-2.89-1s-.75-1.93.51-2.43S77,48.85,77.23,49.34Z"/><path class="cls-45" d="M76.92,50a4,4,0,0,1,.72,1.48,3.39,3.39,0,0,0-.47-2.34c-.73-1.14-2.58-.05-2.83.41s-1,.86.25,2.82C74.59,52.36,76.79,50.83,76.92,50Z"/><path class="cls-48" d="M75.41,53.06a1.86,1.86,0,0,0,.81.69,2.81,2.81,0,0,1,0-.29A1.54,1.54,0,0,1,75.41,53.06Z"/><path class="cls-49" d="M84.93,62.71s.45.2.66.11a1.78,1.78,0,0,1,.65-.11c.14,0,.57-.16.56,0s-.7.29-.84.34.42.37.47.51-.58,1.05-1,.79-.55-.78-.63-.81l-.27-.18Z"/><path class="cls-49" d="M86.37,63.49a9.39,9.39,0,0,1,1.06,1c0,.12,0,.18-.14.1l-1-.81s1,1.24,1.09,1.33-.08.17-.14.13S86,64,86,64s1,1.16,1,1.25a.12.12,0,0,1-.2.07l-1-1.1a5.76,5.76,0,0,1,.62,1c0,.05-.11.15-.27-.09s-.61-.75-.61-.75Z"/><path class="cls-50" d="M73.79,68.92h3.09s2.85.23,3.08-1.77a3.8,3.8,0,0,0-.94-3.1s-1.5.4-2.82.72a10.27,10.27,0,0,0-2.37-.21s-5.57,1.84-5.4,2.81C68.43,67.37,70.76,66.12,73.79,68.92Z"/><polygon class="cls-51" points="75.8 65.46 69.91 65.38 72.88 66.89 75.8 65.46"/><path class="cls-47" d="M74,64.71a5.08,5.08,0,0,0,3,.05l.08-.61-3.35.19Z"/><polygon class="cls-52" points="72.88 66.89 75.8 65.76 75.8 65.46 72.65 66.6 72.88 66.89"/><path class="cls-53" d="M74,65a.29.29,0,0,1-.4.29l-.35-.15a.24.24,0,0,1-.14-.26c.14-.89.45-4.36,0-5a2.37,2.37,0,0,1-.33-.58c-.29.76-.66,1.74-.8,2.27l-2.79,3.7-.93.24a30.43,30.43,0,0,1,2.1-4.29c.18-.49.7-2,1.17-3.29l.7-2a1,1,0,0,1,.41-.5c.43-.26,1.15-.66,1.8-1h0l.06,0h0C73.26,56.3,73.75,61.6,74,65Z"/><path class="cls-53" d="M78.59,54.59a4.6,4.6,0,0,1,1.91,2,14.91,14.91,0,0,0,1.65,2.77c.84.75,3.18,3.43,3.3,3.37a9.18,9.18,0,0,1-.73.84s-3.85-3.28-4.22-3.78S79.23,57.29,79,57.33h0a14.14,14.14,0,0,0-.68,1.84l0,0a6,6,0,0,0-.08,2.47,8.64,8.64,0,0,0,.91,2.35.37.37,0,0,1,0,.29h0a.2.2,0,0,1-.1.12l-1.12.41-.26.1a.59.59,0,0,1-.77-.46,32.49,32.49,0,0,0-.81-4.6,7,7,0,0,1,.43-5.66A21.09,21.09,0,0,1,78.59,54.59Z"/><polygon class="cls-54" points="72.88 66.89 71.13 62.1 65.48 62.19 67.15 66.61 72.88 66.89"/><path class="cls-55" d="M69.32,64.22c.17.34.12.72-.11.84s-.57-.07-.75-.41-.12-.72.12-.84S69.15,63.87,69.32,64.22Z"/><path class="cls-45" d="M75.28,51.15a1,1,0,0,0,0,1.05c.34.48-.08,1-.15,1.48s1.39,1.88-.24,2.57-2.16-.45-1.74-1.08a3.55,3.55,0,0,0,.75-2C73.9,52.25,74.2,50.86,75.28,51.15Z"/><polygon class="cls-22" points="87.4 45.18 79.86 45.18 79.86 50.65 79.86 51.8 81.01 50.65 87.4 50.65 87.4 45.18"/><path class="cls-56" d="M38.5,66.82S36.29,73.28,36.15,74s-1.89,6.55-1.89,6.55S30.62,77,29.49,76.09,36.94,66.63,38.5,66.82Z"/><path class="cls-57" d="M39.66,91.87l1-.42c.3-.13.35-.41.48-.22a2.87,2.87,0,0,0,1.09.83c.34.07,2.55.41,2.59.91s-1,.67-2.43.75-1.49.45-2.46.2C39.66,93.85,39.66,91.87,39.66,91.87Z"/><path class="cls-57" d="M18.26,83.73l.52,1c.15.27.43.29.26.43a2.94,2.94,0,0,0-.69,1.15c0,.33-.13,2.5-.61,2.6s-.75-.89-1-2.28-.59-1.39-.45-2.35C16.35,83.94,18.26,83.73,18.26,83.73Z"/><path class="cls-10" d="M42.61,68.3l.41-.74a1.82,1.82,0,0,1,.68-.35,2.16,2.16,0,0,1,.9-.12.32.32,0,0,1,.17.21.66.66,0,0,1,0,.3.39.39,0,0,1,.09.35.32.32,0,0,1,0,.35.28.28,0,0,1,0,.3,2.77,2.77,0,0,0-.38.21,4.88,4.88,0,0,1-1.31.47S42.58,69.46,42.61,68.3Z"/><path class="cls-58" d="M43.62,68.05a1.47,1.47,0,0,1-.1.46c-.06.1.71.43.71.43S44.07,68.11,43.62,68.05Z"/><path class="cls-59" d="M30.81,72.75c-.61.46-1.41,2.23-2,3.61,0,0-1.35,2.74-1.86,3.5-.76,1.15-1.72,1-3.36,1.67-1.33.51-5.55,2-5.55,2l1,2s6.39-1.47,8.44-2.32a37.52,37.52,0,0,0,4.46-3.31h0c.43-.35.81-.69,1.14-1h0c.26-.24.49-.45.67-.63s.51-.53.51-.53S31.31,72.37,30.81,72.75Z"/><path class="cls-60" d="M36,64.26l1.81,4.57s.09.63,1.41.21,3.51-1,3.51-1,.77,1.61.61,1.7A53,53,0,0,1,37.6,71.8c-1.23.34-3.75-6.27-3.75-6.27Z"/><path class="cls-59" d="M39.2,82.26A14.31,14.31,0,0,0,37.72,78h0c-1-2.09-2-4.27-2-4.27s-5.9,0-5.89.63c0,1.2,2.8,4.12,3.26,4.65h.3a10.75,10.75,0,0,1,1.54,1.85,13.9,13.9,0,0,1,1.39,3.53c.39,1.37,3,7.85,3,7.85l2.44-.84S39.16,83.44,39.2,82.26Z"/><path class="cls-61" d="M29.49,74s4-4.3,3.68-7.08a4.87,4.87,0,0,1,0-.66,5.73,5.73,0,0,1,.06-.84,5,5,0,0,1,2.45-3.63s0-.36,1.69,1.27a8.38,8.38,0,0,1,1.16,3.56c.16,2.21-.47,2.65-1.25,4.34-.57,1.22-1.39,2.29-1.57,2.78C35.67,73.76,35.22,74.49,29.49,74Z"/><path class="cls-10" d="M37.43,61.67l0,.23c0,.1,0,.23-.07.37a5.25,5.25,0,0,0-.12,1.06c0,.4-1.5-1.45-1.5-1.45a19.69,19.69,0,0,0,.36-2.76C36.13,57.65,37.43,61.67,37.43,61.67Z"/><path class="cls-48" d="M37.38,61.9c0,.1,0,.23-.07.37a6.59,6.59,0,0,1-1-1.26A6.28,6.28,0,0,0,37.38,61.9Z"/><path class="cls-60" d="M36.88,68.43l-.05.11c-.06.13-.2.29-.34.54a31.23,31.23,0,0,0-3,6.84c-.58,2.25-.89,4-.89,4l-4.5-4.1a31.27,31.27,0,0,1,3.2-5.34c1.82-2.21,1.3-7.24,1.3-7.24l2.59-1.2.38-.42L37,62.7l.77.5A38.23,38.23,0,0,1,36.88,68.43Z"/><rect class="cls-11" x="30.5" y="41.75" width="0.8" height="47.27" transform="translate(94.27 30.52) rotate(86.48)"/><rect class="cls-11" x="30.98" y="49.45" width="0.8" height="47.27" transform="translate(102.42 37.33) rotate(86.52)"/><rect class="cls-11" x="50.1" y="63.91" width="0.87" height="8.13" transform="translate(-4.06 3.22) rotate(-3.51)"/><rect class="cls-11" x="43.74" y="64.3" width="0.87" height="8.13" transform="translate(-4.07 2.81) rotate(-3.49)"/><rect class="cls-11" x="37.38" y="64.69" width="0.87" height="8.13" transform="translate(-4.13 2.44) rotate(-3.51)"/><rect class="cls-11" x="31.02" y="65.08" width="0.87" height="8.13" transform="translate(-4.17 2.05) rotate(-3.5)"/><rect class="cls-11" x="24.66" y="65.47" width="0.87" height="8.13" transform="translate(-4.18 1.66) rotate(-3.49)"/><rect class="cls-11" x="18.3" y="65.85" width="0.87" height="8.13" transform="translate(-4.24 1.28) rotate(-3.5)"/><rect class="cls-11" x="11.94" y="66.24" width="0.87" height="8.13" transform="translate(-4.25 0.88) rotate(-3.49)"/><path class="cls-10" d="M31.11,74.09a.69.69,0,0,1-.17-.21l-.1-.26,0-.08a1.64,1.64,0,0,1-.21-.44,9.15,9.15,0,0,1-.05-1.19l.53-.14.47-.21a10.18,10.18,0,0,1,1,1.13.14.14,0,0,1,0,.06,1.46,1.46,0,0,1,0,.4s0,.37,0,.44a.33.33,0,0,1-.3.11.84.84,0,0,1-.39.19.48.48,0,0,1-.42.11S31.25,74.16,31.11,74.09Z"/><path class="cls-60" d="M35.46,64.71s1-.07.52-1.62c-.69-2.1-2.74,0-7.06,1.79a1.49,1.49,0,0,0-.86,1.79c.34,1.29,1.88,5.4,2,5.81l1.73-1a26.18,26.18,0,0,1-1-3.11c-.21-1.07-.36-2.06-.36-2.06Z"/><path class="cls-36" d="M44.51,67.12s-.85.35-.81.49a.24.24,0,0,0,.14.17l-.29.3s-.07.31.28.3c0,0-.1.28.24.23,0,0,0,.22.18.22a3,3,0,0,0,.7-.23s.09-.11,0-.3a.31.31,0,0,0,0-.35.38.38,0,0,0-.09-.35s.11-.38-.19-.51Z"/><path class="cls-10" d="M43.05,67.55a3.17,3.17,0,0,1,1,.24c.07,0,.14.09.13.18s-.15.17-.42.16a2.36,2.36,0,0,0-.63.1S42.81,68.14,43.05,67.55Z"/><path class="cls-10" d="M39,58.38s.48.89.24,1,.23,1,.29,1.13-.36.24-.45.33-.35,1.22-.69,1.25a5,5,0,0,1-2.27-.93,4.78,4.78,0,0,1-.47-3.2C35.89,57.16,38.12,56.83,39,58.38Z"/><path class="cls-50" d="M39.06,58.56s.19-.64-.7-1.35-2.24.14-2.41.27a1.85,1.85,0,0,0-.7,2c.57,1.82.56,1.75.56,1.75s.25-1.1.59-1.18.85-.14.85-.14-.31-.83.18-.95S38.57,58.38,39.06,58.56Z"/><path class="cls-10" d="M37,59.93c0-.1-.14-.53-.48-.47s-.23.6,0,.91S37.17,60.47,37,59.93Z"/><path class="cls-50" d="M35.88,57.54s-1.18.24-1,1.14a12.53,12.53,0,0,0,.8,2.11C35.76,61,35.88,57.54,35.88,57.54Z"/><polyline class="cls-22" points="143.96 6.57 142.69 6.57 142.69 4.72 142.93 4.72 142.93 6.36 143.96 6.36"/><path class="cls-22" d="M142.66,8.07V7.79h.22v.28Zm0,1.61V8.33h.22V9.68Z"/><polyline class="cls-22" points="143.48 9.69 143.25 9.69 143.25 8.33 143.46 8.33"/><path class="cls-22" d="M143.4,12.75a.72.72,0,0,1-.32.08.41.41,0,0,1-.33-.14.74.74,0,0,1-.11-.43v-.81h.23v.77c0,.27.1.41.29.41a.43.43,0,0,0,.26-.09"/><polyline class="cls-22" points="143.42 15.13 143.18 14.57 143.37 14.57"/><polyline class="cls-22" points="143.54 15.26 143.27 15.93 143.08 15.93 142.5 14.57 142.72 14.57 143.19 15.7 143.42 15.13"/><path class="cls-22" d="M143.36,19l-.06,0-.07,0-.1,0H143a.38.38,0,0,1-.22-.06.27.27,0,0,1-.09-.22v-.91h-.18v-.18h.18v-.45H143v.45h.3v.18H143v.84a.13.13,0,0,0,.05.11.17.17,0,0,0,.1,0,.27.27,0,0,0,.13,0l.07,0,.06.18"/><path class="cls-22" d="M143.45,22.17l-.19,0a.78.78,0,0,1-.28-.05.6.6,0,0,1-.22-.16.55.55,0,0,1-.14-.22.65.65,0,0,1-.05-.27.59.59,0,0,1,.05-.27.68.68,0,0,1,.14-.23.71.71,0,0,1,.22-.15.64.64,0,0,1,.28-.05.66.66,0,0,1,.28.05"/><path class="cls-22" d="M143.93,21.57h-1.12a.58.58,0,0,0,0,.18.38.38,0,0,0,.11.14.5.5,0,0,0,.14.1.45.45,0,0,0,.16,0l.13,0"/><path class="cls-22" d="M143.43,21a.5.5,0,0,0-.34,0,.34.34,0,0,0-.14.09.45.45,0,0,0-.1.14.48.48,0,0,0,0,.18h.92"/><path class="cls-22" d="M143.5,25.24a.58.58,0,0,1-.28.07.67.67,0,0,1-.26,0,.65.65,0,0,1-.21-.16.61.61,0,0,1-.13-.22.65.65,0,0,1-.05-.27.8.8,0,0,1,0-.27.86.86,0,0,1,.13-.23.75.75,0,0,1,.2-.15.47.47,0,0,1,.24-.05.52.52,0,0,1,.3.08"/><path class="cls-22" d="M143.38,24.13a.31.31,0,0,0-.13,0,.35.35,0,0,0-.18,0,.26.26,0,0,0-.14.11.51.51,0,0,0-.09.16.46.46,0,0,0,0,.19.65.65,0,0,0,0,.2.86.86,0,0,0,.1.16.4.4,0,0,0,.15.1.35.35,0,0,0,.18.05l.13,0"/></g></g></svg>