<svg xmlns="http://www.w3.org/2000/svg" xmlns:xlink="http://www.w3.org/1999/xlink" viewBox="0 0 170.43 105.22"><defs><style>.cls-1{isolation:isolate;}.cls-2{fill:url(#linear-gradient);}.cls-3{fill:#d5e0f4;}.cls-4{fill:#2c3552;}.cls-5{fill:#02112e;}.cls-6{fill:#465276;}.cls-7{fill:#fff;}.cls-8{fill:#d2e2e8;}.cls-9{fill:#235eaa;}.cls-10{fill:#174480;}.cls-11{fill:#3078c5;}.cls-12{fill:#ec636b;}.cls-13{fill:#cf3a4a;}.cls-14{fill:#ed7588;}.cls-15{fill:#ecaf8e;}.cls-16{fill:#2e3150;}.cls-17{fill:#010c27;}.cls-18{fill:#ea896d;}.cls-19{fill:#e86f56;}.cls-20{fill:#514f7e;}.cls-21{mix-blend-mode:multiply;}</style><linearGradient id="linear-gradient" x1="85.59" y1="92.41" x2="85.07" y2="80" gradientUnits="userSpaceOnUse"><stop offset="0" stop-color="#fbebe3"/><stop offset="1" stop-color="#e9dad4"/></linearGradient></defs><title>update</title><g class="cls-1"><g id="Layer_2" data-name="Layer 2"><g id="Layer_1-2" data-name="Layer 1"><path class="cls-2" d="M2.61,81.85H162.48s12.59-.62,6.08,5.89S137,92.68,121.47,102s-13-4.39-33.41-5.17S5.45,94.75,4.88,89.06-4.16,82,2.61,81.85Z"/><path class="cls-3" d="M33.89,66.9a.27.27,0,0,1-.18-.08l-.12-.13a.25.25,0,0,1,.37-.34l.12.12a.26.26,0,0,1,0,.36A.29.29,0,0,1,33.89,66.9ZM62,5H62s-.35-.09-1-.21a.25.25,0,0,1-.2-.3.25.25,0,0,1,.29-.2c.64.13,1,.22,1,.22a.26.26,0,0,1,.19.31A.27.27,0,0,1,62,5Zm-2.12-.42h0l-1-.15a.25.25,0,0,1-.21-.29A.25.25,0,0,1,59,3.91l1,.16a.25.25,0,0,1,.21.29A.26.26,0,0,1,59.91,4.57ZM46,4.36a.24.24,0,0,1-.25-.21A.25.25,0,0,1,46,3.86l1-.13a.26.26,0,0,1,.29.22.26.26,0,0,1-.22.28l-1,.13Zm11.77-.1h0l-1-.11a.25.25,0,0,1-.23-.27.25.25,0,0,1,.27-.23l1,.11A.25.25,0,0,1,58,4,.24.24,0,0,1,57.77,4.26Zm-9.63-.15a.25.25,0,0,1,0-.5l1-.08a.25.25,0,0,1,.27.23.26.26,0,0,1-.24.27l-1,.08Zm7.48-.05h0L54.6,4a.25.25,0,0,1-.24-.26.26.26,0,0,1,.27-.24l1,.06a.25.25,0,0,1,.23.27A.25.25,0,0,1,55.62,4.06ZM50.3,4a.25.25,0,0,1-.25-.24.26.26,0,0,1,.24-.27l1,0a.26.26,0,1,1,0,.51c-.33,0-.67,0-1,0Zm3.17,0h0l-1,0a.25.25,0,0,1,0-.5h1a.26.26,0,0,1,0,.51Z"/><path class="cls-3" d="M134.72,41.7l-.08,0a.26.26,0,0,1-.15-.33c0-.12.09-.25.14-.38a.25.25,0,1,1,.47.17c0,.13-.09.26-.14.39A.26.26,0,0,1,134.72,41.7Zm.53-1.48h-.08a.24.24,0,0,1-.16-.32c.1-.32.21-.64.3-1a.26.26,0,0,1,.49.15c-.1.32-.21.64-.31,1A.25.25,0,0,1,135.25,40.22ZM87.93,2.89a.27.27,0,0,1-.24-.17.25.25,0,0,1,.16-.32l1-.32a.26.26,0,0,1,.32.17.25.25,0,0,1-.17.31l-1,.31ZM90,2.24a.25.25,0,0,1-.24-.18.25.25,0,0,1,.17-.32l1-.28a.25.25,0,0,1,.31.17A.26.26,0,0,1,91,2l-1,.28Zm2.08-.59a.26.26,0,0,1-.24-.19A.25.25,0,0,1,92,1.15l1-.26a.26.26,0,0,1,.31.18.26.26,0,0,1-.18.31l-1,.26Zm2.09-.55a.25.25,0,0,1-.06-.49q.49-.13,1-.24a.25.25,0,0,1,.3.18.26.26,0,0,1-.19.31l-1,.23Z"/><path class="cls-3" d="M50.41,5h0a.25.25,0,0,1-.19-.3,8.28,8.28,0,0,1,.29-1,.25.25,0,1,1,.47.16c-.19.59-.27,1-.27,1A.26.26,0,0,1,50.41,5Zm31.1-1.91a.25.25,0,0,1-.25-.19s-.06-.22-.19-.59A.24.24,0,0,1,81.21,2a.26.26,0,0,1,.33.15c.14.39.21.62.21.63a.25.25,0,0,1-.18.31ZM51.09,2.93l-.09,0a.25.25,0,0,1-.14-.33c.13-.31.26-.63.41-.94a.25.25,0,0,1,.33-.12.25.25,0,0,1,.12.34c-.14.3-.27.61-.39.91A.26.26,0,0,1,51.09,2.93ZM80.85,1.4a.27.27,0,0,1-.23-.14c-.14-.3-.29-.6-.45-.89a.25.25,0,0,1,.44-.24c.17.3.33.61.47.91a.25.25,0,0,1-.12.34Z"/><path class="cls-4" d="M115.61,3.74V87A3.58,3.58,0,0,1,112,90.56H49.37A3.59,3.59,0,0,1,45.79,87V3.74A3.58,3.58,0,0,1,49.37.15H112a3.59,3.59,0,0,1,3.58,3.59Z"/><path class="cls-5" d="M115.61,3.74V87A3.58,3.58,0,0,1,112,90.56H49.37a3.51,3.51,0,0,1-2.26-.81L114.87,1.56A3.58,3.58,0,0,1,115.61,3.74Z"/><path class="cls-6" d="M92.58,5.11H64.48a.74.74,0,0,1-.73-.74h0a.74.74,0,0,1,.73-.74h28.1a.74.74,0,0,1,.74.74h0A.74.74,0,0,1,92.58,5.11Z"/><path class="cls-6" d="M97.64,4.24a.74.74,0,0,1-.85.86.74.74,0,1,1,.85-.86Z"/><rect class="cls-7" x="51.07" y="8.72" width="59.37" height="77.06" rx="1.43"/><path class="cls-3" d="M110.43,10.15v6.1H51.07v-6.1A1.43,1.43,0,0,1,52.5,8.72H109A1.43,1.43,0,0,1,110.43,10.15Z"/><path class="cls-7" d="M106.13,11.89H63.57a1,1,0,0,0-1.07.79.94.94,0,0,0,1,.87h42.59a1,1,0,0,0,1-.83h0A1,1,0,0,0,106.13,11.89Z"/><path class="cls-4" d="M56,12.72v.62a.22.22,0,0,1-.34.19l-.54-.3-.53-.31a.23.23,0,0,1,0-.4l.53-.3.54-.31a.23.23,0,0,1,.34.2Z"/><path class="cls-4" d="M58.76,12.72v.62a.22.22,0,0,0,.34.19l.53-.3.54-.31a.23.23,0,0,0,0-.4l-.54-.3-.53-.31a.23.23,0,0,0-.34.2Z"/><path class="cls-3" d="M69,23.34H55.6a.65.65,0,0,1-.61-.69h0A.65.65,0,0,1,55.6,22H69a.66.66,0,0,1,.62.68h0A.66.66,0,0,1,69,23.34Z"/><path class="cls-3" d="M69,26.76H55.6a.64.64,0,0,1-.61-.68h0a.65.65,0,0,1,.61-.68H69a.66.66,0,0,1,.62.68h0A.65.65,0,0,1,69,26.76Z"/><path class="cls-3" d="M69,30.19H55.6a.65.65,0,0,1-.61-.68h0a.64.64,0,0,1,.61-.68H69a.65.65,0,0,1,.62.68h0A.66.66,0,0,1,69,30.19Z"/><path class="cls-3" d="M69,33.62H55.6a.65.65,0,0,1-.61-.69h0a.65.65,0,0,1,.61-.68H69a.66.66,0,0,1,.62.68h0A.66.66,0,0,1,69,33.62Z"/><path class="cls-3" d="M69,39.89H55.6a.64.64,0,0,1-.61-.68h0a.64.64,0,0,1,.61-.68H69a.65.65,0,0,1,.62.68h0A.65.65,0,0,1,69,39.89Z"/><path class="cls-3" d="M69,43.32H55.6a.65.65,0,0,1-.61-.68h0A.65.65,0,0,1,55.6,42H69a.66.66,0,0,1,.62.69h0A.66.66,0,0,1,69,43.32Z"/><path class="cls-3" d="M69,46.74H55.6a.64.64,0,0,1-.61-.68h0a.65.65,0,0,1,.61-.68H69a.66.66,0,0,1,.62.68h0A.65.65,0,0,1,69,46.74Z"/><path class="cls-3" d="M69,50.17H55.6a.64.64,0,0,1-.61-.68h0a.64.64,0,0,1,.61-.68H69a.65.65,0,0,1,.62.68h0A.65.65,0,0,1,69,50.17Z"/><path class="cls-3" d="M69,56.46H55.6a.65.65,0,0,1-.61-.68h0a.65.65,0,0,1,.61-.69H69a.66.66,0,0,1,.62.69h0A.66.66,0,0,1,69,56.46Z"/><path class="cls-3" d="M69,59.88H55.6A.64.64,0,0,1,55,59.2h0a.65.65,0,0,1,.61-.68H69a.66.66,0,0,1,.62.68h0A.65.65,0,0,1,69,59.88Z"/><path class="cls-3" d="M69,63.31H55.6a.64.64,0,0,1-.61-.68h0A.64.64,0,0,1,55.6,62H69a.65.65,0,0,1,.62.68h0A.65.65,0,0,1,69,63.31Z"/><path class="cls-3" d="M69,66.74H55.6a.65.65,0,0,1-.61-.68h0a.65.65,0,0,1,.61-.69H69a.66.66,0,0,1,.62.69h0A.66.66,0,0,1,69,66.74Z"/><rect class="cls-8" x="75.04" y="56.34" width="32.58" height="11.65" rx="5.83"/><rect class="cls-9" x="74.05" y="55.09" width="32.58" height="11.65" rx="5.83"/><path class="cls-10" d="M85.06,60.84A4.86,4.86,0,0,1,83.94,64a4.76,4.76,0,0,1-.54.56,4.91,4.91,0,0,1-6.48,0,4.07,4.07,0,0,1-.54-.56,4.9,4.9,0,1,1,8.68-3.12Z"/><path class="cls-11" d="M82,59.64a1.88,1.88,0,1,1-1.88-1.88A1.88,1.88,0,0,1,82,59.64Z"/><path class="cls-11" d="M83.4,64.52a4.91,4.91,0,0,1-6.48,0,2.86,2.86,0,0,1,1.2-1.71,3.58,3.58,0,0,1,4.08,0A2.86,2.86,0,0,1,83.4,64.52Z"/><path class="cls-7" d="M87.1,59.82v0c.1-.3.19-.6.29-.9,0,0,0,0,0,0l-.87-.65,0,0h1.11s0,0,0,0l.32-1v0l0,0,.36,1s0,0,0,0h1l-.85.58s0,0,0,0l.34,1v0l0,0L88,59.23h0l-.83.57Z"/><path class="cls-7" d="M90.82,59.82v0c.1-.3.2-.6.29-.9,0,0,0,0,0,0l-.87-.65,0,0h1.11l0,0c.1-.33.2-.65.31-1v0l.36,1s0,0,0,0h1l-.85.58s0,0,0,0l.34,1v0l0,0-.83-.59h0l-.83.57Z"/><path class="cls-7" d="M94.55,59.82v0c.09-.3.19-.6.29-.9,0,0,0,0,0,0L94,58.19l0,0h1.11s0,0,0,0c.1-.33.21-.65.31-1v0l.36,1a0,0,0,0,0,0,0h1l-.84.58s0,0,0,0c.12.33.23.66.34,1v0l0,0-.83-.59h0l-.82.57Z"/><path class="cls-10" d="M98.27,59.82v0c.09-.3.19-.6.29-.9,0,0,0,0,0,0l-.86-.65,0,0h1.11s0,0,0,0c.1-.33.21-.65.31-1v0l.37,1s0,0,0,0h1l-.84.58s0,0,0,0l.35,1v0l0,0-.83-.59h0l-.82.57Z"/><path class="cls-10" d="M102,59.82v0c.1-.3.19-.6.29-.9a0,0,0,0,0,0,0l-.87-.65,0,0h1.11s0,0,0,0l.32-1v0l0,0,.36,1s0,0,0,0h1l-.85.58s0,0,0,0c.11.33.22.66.34,1v0l0,0-.83-.59h0l-.83.57Z"/><rect class="cls-10" x="86.5" y="61.05" width="17.77" height="0.78" rx="0.39"/><path class="cls-10" d="M103.88,62.73h-17a.38.38,0,0,0-.39.39h0a.39.39,0,0,0,.39.39h17a.39.39,0,0,0,.39-.39h0A.38.38,0,0,0,103.88,62.73Z"/><rect class="cls-8" x="75.04" y="23.21" width="32.58" height="11.65" rx="5.83"/><rect class="cls-12" x="74.05" y="21.96" width="32.58" height="11.65" rx="5.83"/><path class="cls-13" d="M85.06,27.71a4.88,4.88,0,0,1-1.12,3.12,4.68,4.68,0,0,1-.54.55,4.88,4.88,0,0,1-6.48,0,4,4,0,0,1-.54-.55,4.9,4.9,0,1,1,8.68-3.12Z"/><path class="cls-14" d="M82,26.51a1.88,1.88,0,1,1-1.88-1.88A1.88,1.88,0,0,1,82,26.51Z"/><path class="cls-14" d="M83.4,31.38a4.88,4.88,0,0,1-6.48,0,2.84,2.84,0,0,1,1.2-1.7,3.58,3.58,0,0,1,4.08,0A2.84,2.84,0,0,1,83.4,31.38Z"/><path class="cls-7" d="M87.1,26.69v0c.1-.3.19-.61.29-.91,0,0,0,0,0,0l-.87-.65a0,0,0,0,1,0,0h1.11a0,0,0,0,0,0,0c.11-.32.21-.65.32-1v0l0,0,.36,1s0,0,0,0h1l0,0-.85.57s0,0,0,.05l.34,1v0l0,0L88,26.09s0,0,0,0l-.83.58Z"/><path class="cls-7" d="M90.82,26.69v0c.1-.3.2-.61.29-.91,0,0,0,0,0,0l-.87-.65,0,0h1.11s0,0,0,0c.1-.32.2-.65.31-1v0l.36,1s0,0,0,0h1l0,0-.85.57s0,0,0,.05l.34,1v0l0,0-.83-.59s0,0,0,0l-.83.58Z"/><path class="cls-7" d="M94.55,26.69v0c.09-.3.19-.61.29-.91,0,0,0,0,0,0L94,25.06l0,0h1.11s0,0,0,0l.31-1v0l.36,1a0,0,0,0,0,0,0h1l0,0-.84.57s0,0,0,.05c.12.33.23.66.34,1v0l0,0-.83-.59s0,0,0,0l-.82.58Z"/><path class="cls-7" d="M98.27,26.69v0c.09-.3.19-.61.29-.91,0,0,0,0,0,0l-.86-.65a0,0,0,0,1,0,0h1.11s0,0,0,0l.31-1v0l.37,1s0,0,0,0h1l0,0-.84.57a.06.06,0,0,0,0,.05l.35,1v0l0,0-.83-.59a0,0,0,0,0,0,0l-.82.58Z"/><path class="cls-7" d="M102,26.69v0c.1-.3.19-.61.29-.91,0,0,0,0,0,0l-.87-.65a0,0,0,0,1,0,0h1.11a0,0,0,0,0,0,0c.11-.32.21-.65.32-1v0l0,0,.36,1s0,0,0,0h1l0,0-.85.57s0,0,0,.05c.11.33.22.66.34,1v0l0,0-.83-.59s0,0,0,0l-.83.58Z"/><rect class="cls-13" x="86.5" y="27.92" width="17.77" height="0.78" rx="0.39"/><path class="cls-13" d="M103.88,29.59h-17a.39.39,0,0,0-.39.39h0a.38.38,0,0,0,.39.39h17a.38.38,0,0,0,.39-.39h0A.39.39,0,0,0,103.88,29.59Z"/><rect class="cls-8" x="75.04" y="39.78" width="32.58" height="11.65" rx="5.83"/><rect class="cls-12" x="74.05" y="38.53" width="32.58" height="11.65" rx="5.83"/><path class="cls-13" d="M85.06,44.28a4.9,4.9,0,0,1-1.12,3.12,4.68,4.68,0,0,1-.54.55,4.88,4.88,0,0,1-6.48,0,4,4,0,0,1-.54-.55,4.9,4.9,0,1,1,8.68-3.12Z"/><path class="cls-14" d="M82,43.08a1.88,1.88,0,1,1-1.88-1.88A1.88,1.88,0,0,1,82,43.08Z"/><path class="cls-14" d="M83.4,48a4.88,4.88,0,0,1-6.48,0,2.86,2.86,0,0,1,1.2-1.71,3.58,3.58,0,0,1,4.08,0A2.86,2.86,0,0,1,83.4,48Z"/><path class="cls-7" d="M87.1,43.25v0c.1-.3.19-.6.29-.9,0,0,0,0,0,0l-.87-.64,0,0h.06l1,0s0,0,0,0c.11-.33.21-.65.32-1v0l0,0,.36,1s0,0,0,0h1l0,0-.85.57s0,0,0,0c.11.34.23.67.34,1v0l0,0L88,42.66h0l-.83.57Z"/><path class="cls-7" d="M90.82,43.25v0c.1-.3.2-.6.29-.9,0,0,0,0,0,0l-.87-.64,0,0h.06l1,0s0,0,0,0c.1-.33.2-.65.31-1v0l.36,1s0,0,0,0h1l0,0-.85.57s0,0,0,0c.11.34.23.67.34,1v0l0,0-.83-.59h0l-.83.57Z"/><path class="cls-13" d="M94.55,43.25v0c.09-.3.19-.6.29-.9a.06.06,0,0,0,0,0L94,41.63s0,0,0,0H94l1,0s0,0,0,0c.1-.33.21-.65.31-1v0l.36,1s0,0,0,0h1l0,0-.84.57s0,0,0,0c.12.34.23.67.34,1v0l0,0-.83-.59h0l-.82.57Z"/><path class="cls-13" d="M98.27,43.25v0c.09-.3.19-.6.29-.9,0,0,0,0,0,0l-.86-.64,0,0h.06l1,0s0,0,0,0c.1-.33.21-.65.31-1v0l.37,1s0,0,0,0h1l0,0-.84.57s0,0,0,0c.12.34.23.67.35,1v0l0,0-.83-.59h0l-.82.57Z"/><path class="cls-13" d="M102,43.25v0c.1-.3.19-.6.29-.9,0,0,0,0,0,0l-.87-.64,0,0h.06l1,0s0,0,0,0c.11-.33.21-.65.32-1v0l0,0,.36,1s0,0,0,0h1l0,0-.85.57s0,0,0,0c.11.34.22.67.34,1v0l0,0-.83-.59h0l-.83.57Z"/><rect class="cls-13" x="86.5" y="44.48" width="17.77" height="0.78" rx="0.39"/><path class="cls-13" d="M103.88,46.16h-17a.38.38,0,0,0-.39.39h0a.38.38,0,0,0,.39.39h17a.38.38,0,0,0,.39-.39h0A.38.38,0,0,0,103.88,46.16Z"/><path class="cls-3" d="M58.12,81.42l0-.12c.39-1.21.78-2.43,1.18-3.64a.14.14,0,0,0-.07-.18l-3.49-2.6a.24.24,0,0,1-.08-.09h.25l4.22-.05c.08,0,.11,0,.14-.1.41-1.3.84-2.61,1.26-3.91a.54.54,0,0,1,0-.1.58.58,0,0,0,0,.11c.48,1.33,1,2.67,1.46,4a.15.15,0,0,0,.17.12l3.93,0a.47.47,0,0,1,.16,0l-.08.06-3.41,2.31c-.08,0-.09.09-.06.18l1.38,4,0,.12-.16-.1c-1.11-.8-2.23-1.59-3.35-2.38-.06-.05-.1-.05-.17,0l-3.32,2.31Z"/><path class="cls-3" d="M71.41,81.42l0-.12,1.17-3.64a.13.13,0,0,0-.06-.18l-3.5-2.6a.36.36,0,0,1-.08-.09h.26l4.22-.05c.08,0,.11,0,.13-.1l1.26-3.91a.69.69,0,0,1,0-.1l0,.11,1.47,4a.14.14,0,0,0,.16.12l3.94,0a.47.47,0,0,1,.16,0l-.08.06-3.41,2.31c-.08,0-.09.09-.06.18l1.38,4a.68.68,0,0,1,0,.12l-.15-.1L75,79c-.06-.05-.1-.05-.17,0l-3.32,2.31Z"/><path class="cls-3" d="M84.69,81.42a.83.83,0,0,1,0-.12l1.17-3.64a.13.13,0,0,0-.06-.18l-3.5-2.6a.24.24,0,0,1-.08-.09h.26l4.22-.05c.08,0,.11,0,.13-.1l1.26-3.91,0-.1a.66.66,0,0,0,0,.11c.49,1.33,1,2.67,1.46,4a.16.16,0,0,0,.17.12l3.93,0a.5.5,0,0,1,.17,0l-.08.06-3.41,2.31c-.08,0-.09.09-.06.18l1.38,4a.68.68,0,0,1,0,.12l-.15-.1L88.3,79c-.07-.05-.11-.05-.17,0l-3.32,2.31Z"/><path class="cls-3" d="M98,81.42a1,1,0,0,1,0-.12c.39-1.21.78-2.43,1.18-3.64a.13.13,0,0,0-.06-.18l-3.5-2.6a.24.24,0,0,1-.08-.09h.25l4.22-.05c.09,0,.12,0,.14-.1l1.26-3.91,0-.1,0,.11c.49,1.33,1,2.67,1.46,4a.15.15,0,0,0,.17.12l3.93,0a.56.56,0,0,1,.17,0l-.09.06-3.41,2.31a.13.13,0,0,0-.06.18c.47,1.33.93,2.67,1.38,4a.55.55,0,0,1,0,.12l-.15-.1L101.59,79c-.07-.05-.11-.05-.17,0L98.1,81.35Z"/><path class="cls-12" d="M134.92,69.44h-22.2a4.38,4.38,0,0,1,4.19-3.84l6.91,0,6.91,0A4.38,4.38,0,0,1,134.92,69.44Z"/><rect class="cls-12" x="114.46" y="69.12" width="1.21" height="20.63"/><rect class="cls-12" x="131.96" y="69.12" width="1.21" height="20.63"/><rect class="cls-13" x="115.67" y="74.92" width="16.29" height="1.17"/><path class="cls-10" d="M118.38,41.57s-3.7,5-4.2,9.26c-.35,3.05,4.2,7.6,4.2,7.6l1.57-.78-1.56-3.52c-.56-1.72-1.24-2.4-.74-4.13l1.14-2.44Z"/><path class="cls-10" d="M130.07,41.5s3.66,5.27,4,9.6c.26,3.74-4.22,7.33-4.22,7.33l-1.29-.64,1.79-3.56a5.63,5.63,0,0,0,.06-4.62l-1-2Z"/><path class="cls-9" d="M119.14,52.84l-2.46,7.82s10.64,1.35,13.9.48l-1.66-8.52,1.15-11.12a15.72,15.72,0,0,0-5-1.22,12.92,12.92,0,0,0-6.68,1.29Z"/><path class="cls-10" d="M121.8,43.93a11.07,11.07,0,0,0,4.63-2,.13.13,0,0,0,0-.18.14.14,0,0,0-.19,0,10.32,10.32,0,0,1-5.06,2,.13.13,0,0,0-.13.13.13.13,0,0,0,.13.13A5.85,5.85,0,0,0,121.8,43.93Z"/><polygon class="cls-15" points="123.69 85.82 123.88 87.55 125.72 87.59 125.87 86.16 123.69 85.82"/><path class="cls-5" d="M123.4,58.45s-4.75-.26-6.36,1.06-1.29,5.1.35,6.13,4.44,3.06,4.44,3.06l1.78,17.69,2.35.08S128.12,68.7,127,65.26A27.16,27.16,0,0,0,123.4,58.45Z"/><path class="cls-16" d="M126.18,85.59a2,2,0,0,1-.07,1.21l-2.7-.06a3,3,0,0,1,0-1.19Z"/><path class="cls-7" d="M130.13,58.32H117.65l-1.15-6.75a1,1,0,0,1,.94-1.11h12.9a1,1,0,0,1,.94,1.11Z"/><path class="cls-3" d="M117.65,58.32h12.49a0,0,0,0,1,0,0v0a1.47,1.47,0,0,1-1.47,1.47h-9.56a1.47,1.47,0,0,1-1.47-1.47v0A0,0,0,0,1,117.65,58.32Z"/><path class="cls-3" d="M125,54.67a1.08,1.08,0,1,1-1.08-1.09A1.08,1.08,0,0,1,125,54.67Z"/><polygon class="cls-15" points="115.89 80.97 115.48 82.68 117.13 83 117.8 81.48 115.89 80.97"/><path class="cls-16" d="M125.82,58.16s-3.19-1.1-5,1.21-5,21.77-5,21.77l2.15.88,6.89-17.28s5.61,3.2,6.29-1.35C131.63,59.78,125.82,58.16,125.82,58.16Z"/><path class="cls-6" d="M118.4,81.13A1.93,1.93,0,0,1,118,82.3l-2.63-.93a3.2,3.2,0,0,1,.33-1.18Z"/><path class="cls-9" d="M116.74,82.4a10.4,10.4,0,0,0-1.29-.57c-.29-.06-2.72,1.67-3.41,1.65-1.25,0-1.65,1.8-.94,2a21.67,21.67,0,0,0,5.85.63,17.13,17.13,0,0,0,.86-3C117.82,82.34,117.28,82.74,116.74,82.4Z"/><path class="cls-7" d="M114.56,84a.17.17,0,0,0,.12,0,.15.15,0,0,0,.08-.19,2.21,2.21,0,0,0-.66-.9,1,1,0,0,0-1-.1.15.15,0,0,0,.14.26.74.74,0,0,1,.74.08,2,2,0,0,1,.55.76A.15.15,0,0,0,114.56,84Z"/><path class="cls-7" d="M115.06,83.68a.17.17,0,0,0,.12,0,.15.15,0,0,0,.08-.19,2.31,2.31,0,0,0-.66-.89,1,1,0,0,0-1-.11.14.14,0,0,0-.06.2.15.15,0,0,0,.2.06.72.72,0,0,1,.74.09,1.89,1.89,0,0,1,.55.76A.16.16,0,0,0,115.06,83.68Z"/><path class="cls-7" d="M113.92,84.27a.11.11,0,0,0,.11,0,.14.14,0,0,0,.09-.19,2.31,2.31,0,0,0-.66-.89,1,1,0,0,0-1.06-.1.13.13,0,0,0-.05.19.14.14,0,0,0,.2.06.78.78,0,0,1,.74.09,1.89,1.89,0,0,1,.55.76A.16.16,0,0,0,113.92,84.27Z"/><path class="cls-9" d="M124.59,87.48a10,10,0,0,1,1.31-.32c.28,0,2.28,2,2.93,2.12,1.17.17,1.25,2,.54,2.08a20.9,20.9,0,0,1-5.6-.38,16.25,16.25,0,0,1-.3-3C123.58,87.25,124,87.71,124.59,87.48Z"/><path class="cls-7" d="M126.37,89.37a.14.14,0,0,1-.11,0,.13.13,0,0,1-.05-.19,2.3,2.3,0,0,1,.77-.73,1,1,0,0,1,1,.08.13.13,0,0,1,0,.19.15.15,0,0,1-.2,0,.71.71,0,0,0-.71,0,2,2,0,0,0-.65.63A.16.16,0,0,1,126.37,89.37Z"/><path class="cls-7" d="M126,89a.14.14,0,0,1-.11,0,.15.15,0,0,1,0-.2,2.3,2.3,0,0,1,.77-.73,1,1,0,0,1,1,.08.14.14,0,1,1-.18.22.71.71,0,0,0-.71,0,2.08,2.08,0,0,0-.65.63A.16.16,0,0,1,126,89Z"/><path class="cls-7" d="M126.93,89.71a.15.15,0,0,1-.11,0,.13.13,0,0,1,0-.19,2.13,2.13,0,0,1,.76-.73,1,1,0,0,1,1,.08.13.13,0,0,1,0,.19.14.14,0,0,1-.2,0,.75.75,0,0,0-.71,0,1.9,1.9,0,0,0-.64.63A.15.15,0,0,1,126.93,89.71Z"/><path class="cls-16" d="M127.37,30.42a9,9,0,0,1,1.34,4.79c-.16,2.44.23,5.26-2,5.13s-6.08.88-7.32-1S127.37,30.42,127.37,30.42Z"/><path class="cls-17" d="M127.93,34.73s.39,3.54-1.29,4.51a2.46,2.46,0,0,1-2.89-.11S127.29,34.2,127.93,34.73Z"/><path class="cls-18" d="M121,34.72s-.6-.81-1-.14.19,2.62,1.28,2.15Z"/><path class="cls-19" d="M120.94,36.12a.08.08,0,0,1-.08-.07,1.39,1.39,0,0,0-.81-.85.09.09,0,0,1,0-.12.09.09,0,0,1,.12-.06,1.57,1.57,0,0,1,.91,1,.08.08,0,0,1-.06.11Z"/><path class="cls-19" d="M120.31,35.81h0a.11.11,0,0,1,0-.13.87.87,0,0,1,.35-.28.09.09,0,0,1,.12,0,.1.1,0,0,1,0,.12.69.69,0,0,0-.27.21A.09.09,0,0,1,120.31,35.81Z"/><path class="cls-18" d="M127.17,34.72s.6-.81,1-.14-.19,2.62-1.29,2.15Z"/><path class="cls-19" d="M127.17,36.12a.1.1,0,0,0,.09-.07,1.39,1.39,0,0,1,.81-.85.09.09,0,0,0,.05-.12A.09.09,0,0,0,128,35a1.6,1.6,0,0,0-.92,1,.09.09,0,0,0,.07.11Z"/><path class="cls-19" d="M127.81,35.81h0a.11.11,0,0,0,0-.13.87.87,0,0,0-.35-.28.09.09,0,0,0-.12,0,.09.09,0,0,0,0,.12.69.69,0,0,1,.27.21A.09.09,0,0,0,127.81,35.81Z"/><path class="cls-15" d="M125.54,38.39v2s-.58,1-1.37,1.07-1.48-.86-1.48-.86v-2Z"/><path class="cls-18" d="M125.54,38.39v.87c-.52.58-1.46.79-2.85.59V38.53Z"/><path class="cls-15" d="M127.6,33.38a18.82,18.82,0,0,1-.25,2.46c0,.19-.08.37-.12.53-.41,1.44-1.44,3.91-4.32,2.88-1.27-.46-1.86-1.87-2.12-3.31a13.24,13.24,0,0,1-.19-2.67,2,2,0,0,1,1-1.74,5.45,5.45,0,0,1,4.67-.15A2,2,0,0,1,127.6,33.38Z"/><path class="cls-16" d="M128,33.22a.34.34,0,0,1-.23.18,5.39,5.39,0,0,1,0,.68c-.12,1.34-.45,1.58-.53,1.25a14.61,14.61,0,0,1,0-1.9c-.27,0-.49-.06-.49-.06l-.32-1.3-.1,1.28a4,4,0,0,1-1.56-.09L124.34,32l-.23,1.24a2.58,2.58,0,0,1-1.57.11l-.2-1.33-.47,1.33s-1.49.54-1.51,0a10.28,10.28,0,0,1,.41-1.87,2.83,2.83,0,0,1,1.36-1.72,5,5,0,0,1,4.48-.06C128,30.52,128,33.22,128,33.22Z"/><path class="cls-16" d="M121.18,30.52a8.92,8.92,0,0,0-1.63,4.07c-.4,2.61-1,4.54.61,5.4s1.56-1,1.53-1.5a8,8,0,0,1-.51-5.94A3.41,3.41,0,0,0,121.18,30.52Z"/><path class="cls-17" d="M120.9,35.91h0s0,.12,0,.28,0,.23,0,.37a5.77,5.77,0,0,0,.73,2.92,1.72,1.72,0,0,0,1,.36v-.69a2.68,2.68,0,0,1-1.13-1.06,6.21,6.21,0,0,1-.63-1.92Z"/><path class="cls-7" d="M127.62,36.77a.21.21,0,0,1-.21.22.22.22,0,1,1,0-.44A.21.21,0,0,1,127.62,36.77Z"/><path class="cls-13" d="M41.73,40a10,10,0,0,0,6.15,6.67A14.12,14.12,0,0,0,52.11,45a12.65,12.65,0,0,1-.69-2.79c-1.74.49-3.24.74-3.24.74-3.67-1.7-5.89-9.84-5.89-9.84C40.1,35.21,41.73,40,41.73,40Z"/><path class="cls-15" d="M29.38,81.85l-1.55,2.07a3.31,3.31,0,0,0,1.43,1.65l1.86-2.39Z"/><path class="cls-12" d="M29,84.92s.72-.15,1,.1.87,3.67,1.46,4.41,0,1.15-.37,1.3-5.5-5-5.5-5a11.32,11.32,0,0,1,1.88-2.1C28.07,83.3,28.35,84.56,29,84.92Z"/><path class="cls-7" d="M29.1,86.92a.14.14,0,0,1-.07-.08.13.13,0,0,1,.07-.17,1.93,1.93,0,0,1,1-.17.93.93,0,0,1,.71.61.14.14,0,0,1-.26.08.62.62,0,0,0-.5-.42,1.72,1.72,0,0,0-.83.14A.12.12,0,0,1,29.1,86.92Z"/><path class="cls-7" d="M29,86.37a.14.14,0,0,1-.08-.07.14.14,0,0,1,.07-.18A2,2,0,0,1,30,86a.88.88,0,0,1,.71.61.13.13,0,0,1-.09.16.12.12,0,0,1-.16-.09.66.66,0,0,0-.51-.42,1.85,1.85,0,0,0-.83.15Z"/><path class="cls-7" d="M29.34,87.49a.18.18,0,0,1-.08-.07.15.15,0,0,1,.08-.18,2,2,0,0,1,1-.16.92.92,0,0,1,.72.61.14.14,0,0,1-.09.17.14.14,0,0,1-.17-.1.64.64,0,0,0-.51-.42,1.79,1.79,0,0,0-.82.15A.17.17,0,0,1,29.34,87.49Z"/><path class="cls-15" d="M38.91,85.41,39.14,88a3.35,3.35,0,0,0,2.17.27l-.22-3Z"/><path class="cls-12" d="M40.84,87.89s.45-.62.82-.6,3.24,2.23,4.21,2.41.8.89.62,1.25-7.71.16-7.71.16A13.22,13.22,0,0,1,38.73,88C39,87.29,40.08,88.07,40.84,87.89Z"/><path class="cls-7" d="M42.7,89.54a.12.12,0,0,1-.1,0,.13.13,0,0,1-.06-.18,2,2,0,0,1,.65-.75.93.93,0,0,1,.94,0,.14.14,0,0,1,0,.19.12.12,0,0,1-.18,0,.66.66,0,0,0-.66,0,1.78,1.78,0,0,0-.54.64A.13.13,0,0,1,42.7,89.54Z"/><path class="cls-7" d="M42.29,89.17a.12.12,0,0,1-.1,0,.12.12,0,0,1-.06-.18,2,2,0,0,1,.65-.75.87.87,0,0,1,.93,0,.13.13,0,0,1,0,.18.12.12,0,0,1-.18,0,.64.64,0,0,0-.66,0,1.8,1.8,0,0,0-.55.64A.11.11,0,0,1,42.29,89.17Z"/><path class="cls-7" d="M43.25,89.83a.12.12,0,0,1-.1,0,.13.13,0,0,1-.06-.18,2,2,0,0,1,.65-.75.93.93,0,0,1,.94,0,.14.14,0,0,1,0,.19.13.13,0,0,1-.18,0,.64.64,0,0,0-.66,0,1.63,1.63,0,0,0-.54.64A.16.16,0,0,1,43.25,89.83Z"/><path class="cls-5" d="M37.46,57.38l-1.57,13a43.16,43.16,0,0,0-2.75,4.35C32,76.76,29,82.08,29,82.08l1.81,1.39,9.94-10.3,2.64-15.91Z"/><path class="cls-16" d="M31.28,83.43a2,2,0,0,1-.82.92l-2.11-1.77a3.19,3.19,0,0,1,.72-1Z"/><path class="cls-16" d="M29.43,57.92a77.34,77.34,0,0,0,6.44,12.24,49.75,49.75,0,0,0,1.47,8c.41,1.22,1.19,7,1.19,7L41.29,85l-.71-16L37.66,57.38Z"/><path class="cls-20" d="M41.55,84.93a2.26,2.26,0,0,1,0,1.43l-3.19.09a3.5,3.5,0,0,1-.13-1.4Z"/><path class="cls-12" d="M42.29,33.14c.41.52,1.25,5.81,1.38,11.18,0,.12,0,.24,0,.37q0,.84,0,1.71l0,1.68c0,.91,0,1.81,0,2.68a2.81,2.81,0,0,0,0,.29c0,.84,0,1.65,0,2.41v.29c0,1.14,0,2.14,0,3h0V57c0,.56,0,1,0,1.31a28.1,28.1,0,0,1-4,.78h-.1l-.18,0h0l-.7.06a26.38,26.38,0,0,1-3.44.07l-.31,0-.27,0h-.12l-.23,0a28,28,0,0,1-5.06-.89c0-.66,0-2,0-3.76v-.3c0-1.92,0-4.29,0-6.72V47c0-.22,0-.45,0-.67V46.2c0-.06,0-.11,0-.16v-.32c0-.15,0-.31,0-.46v-.35c0-.23,0-.46,0-.69A78.59,78.59,0,0,1,30,33.81a.81.81,0,0,1,.09-.22,1.33,1.33,0,0,1,.12-.16l.2-.2a14.06,14.06,0,0,1,2.32-1.55l.32-.19,2.49-.84,2.57.18S41.67,32.38,42.29,33.14Z"/><path class="cls-13" d="M31.91,40.1a.14.14,0,0,0-.24-.08,13.39,13.39,0,0,0-2,4c-.1.3-.18.59-.25.87v.35c0,.15,0,.31,0,.46V46c0,.05,0,.1,0,.16v.11a17.62,17.62,0,0,1,.52-2.2,13.23,13.23,0,0,1,2-3.93.19.19,0,0,0,0-.08Z"/><path class="cls-13" d="M32.44,54.13h0a11.94,11.94,0,0,0,6.64-2.33,15.43,15.43,0,0,0,2.61-2.32.13.13,0,1,0-.2-.17,14.67,14.67,0,0,1-2.57,2.27,11.57,11.57,0,0,1-6.48,2.28.14.14,0,0,0-.14.14A.13.13,0,0,0,32.44,54.13Z"/><path class="cls-13" d="M35.33,55.07a11.38,11.38,0,0,0,4.92-1.43.14.14,0,0,0,0-.19.13.13,0,0,0-.18,0,10.73,10.73,0,0,1-5.37,1.37.13.13,0,0,0,0,.26Q35,55.07,35.33,55.07Z"/><path class="cls-13" d="M34.64,35.05A11.43,11.43,0,0,0,39,32.35a.13.13,0,1,0-.19-.19A10.63,10.63,0,0,1,34,34.92a.12.12,0,0,0-.11.15.13.13,0,0,0,.15.11A5.61,5.61,0,0,0,34.64,35.05Z"/><path class="cls-4" d="M40,25s.34.16.42-.5-.19-.77,0-1.09.32-.73,0-1,.32-1,0-1.38-1-.45-1.21-.86A1.82,1.82,0,0,0,37.42,19c-1.13,0-1.49.92-2.08.68a1.52,1.52,0,0,0-1.73.13c-.69.49,0,1.15-.6,1.49s-.13,1.3-.86,1.87c-.55.43,0,2.11,1.14,1.86A56.53,56.53,0,0,1,40,25Z"/><path class="cls-18" d="M39.49,25.24s.61-.82,1.07-.14-.19,2.7-1.31,2.21Z"/><path class="cls-7" d="M40.13,27.19a.19.19,0,0,1-.19.19.19.19,0,0,1-.2-.19.2.2,0,1,1,.39,0Z"/><path class="cls-19" d="M39.49,26.68a.1.1,0,0,0,.1-.07,1.43,1.43,0,0,1,.82-.87.11.11,0,0,0,.06-.12.1.1,0,0,0-.13-.06,1.64,1.64,0,0,0-.94,1,.1.1,0,0,0,.07.12Z"/><path class="cls-19" d="M40.14,26.37h.06a.11.11,0,0,0,0-.14.79.79,0,0,0-.35-.28.1.1,0,0,0-.13,0,.1.1,0,0,0,0,.13.66.66,0,0,1,.27.22A.09.09,0,0,0,40.14,26.37Z"/><path class="cls-15" d="M35,29v2a4.08,4.08,0,0,0,1.74.81,1.26,1.26,0,0,0,1.18-.6V29.16Z"/><path class="cls-18" d="M35,29v.88c.54.61,1.5.76,2.92.55V29.16Z"/><path class="cls-15" d="M32.88,23.87a19.73,19.73,0,0,0,.26,2.53,5.38,5.38,0,0,0,.13.54c.42,1.48,1.47,4,4.43,2.95,1.3-.46,1.9-1.91,2.17-3.39a14,14,0,0,0,.2-2.74A2.08,2.08,0,0,0,39,22a5.54,5.54,0,0,0-4.79-.15A2.08,2.08,0,0,0,32.88,23.87Z"/><path class="cls-18" d="M36.69,29.22a1,1,0,0,1-.46-.13.09.09,0,0,1,0-.13.09.09,0,0,1,.13,0,.8.8,0,0,0,.36.1.79.79,0,0,0,.35-.1.09.09,0,0,1,.13,0,.1.1,0,0,1,0,.13A.89.89,0,0,1,36.69,29.22Z"/><path class="cls-4" d="M32.88,23.87a19.73,19.73,0,0,0,.26,2.53l.74,0a6.85,6.85,0,0,0,0-1.1c0-.43-.38-1.09-.1-1.34.71-.64.36-.69.62-1.28s1.53-.75,2.28-.39a5.47,5.47,0,0,0,2,.29,1,1,0,0,1,.69,1c-.13.44.25.71.34,1.17a6.59,6.59,0,0,1-.2,1.7l.4.08a14,14,0,0,0,.2-2.74A2.08,2.08,0,0,0,39,22a5.54,5.54,0,0,0-4.79-.15A2.08,2.08,0,0,0,32.88,23.87Z"/><path class="cls-15" d="M33.61,25.94a1.1,1.1,0,0,0-.67-1.05.53.53,0,0,0-.7.18c-.46.68.2,2.73,1.33,2.24Z"/><path class="cls-7" d="M33.22,27.32a.2.2,0,1,1-.19-.19A.2.2,0,0,1,33.22,27.32Z"/><path class="cls-18" d="M33.32,26.68a.09.09,0,0,1-.09-.07,1.45,1.45,0,0,0-.82-.87.1.1,0,0,1-.06-.12.09.09,0,0,1,.12-.06,1.64,1.64,0,0,1,.94,1,.09.09,0,0,1-.06.12Z"/><path class="cls-18" d="M32.67,26.37h-.05a.11.11,0,0,1,0-.14,1,1,0,0,1,.36-.28.09.09,0,1,1,.08.17.65.65,0,0,0-.28.22A.09.09,0,0,1,32.67,26.37Z"/><path class="cls-7" d="M36.42,25.22a.47.47,0,0,0,0-.17.41.41,0,0,0-.37-.23H34.56a.4.4,0,0,0-.29.12.42.42,0,0,0-.09.14.4.4,0,0,0,0,.15v.18a1.14,1.14,0,0,0,.34.83,1.11,1.11,0,0,0,.73.32h0a1.18,1.18,0,0,0,1.17-1.17v-.16Zm-.17.17a1,1,0,0,1-1,1h0a.91.91,0,0,1-.61-.28,1,1,0,0,1-.29-.7v-.18a.24.24,0,0,1,.24-.24H36a.24.24,0,0,1,.24.24Z"/><path class="cls-7" d="M39.3,25.12a.28.28,0,0,0-.08-.15.4.4,0,0,0-.31-.15H37.46a.42.42,0,0,0-.38.24.45.45,0,0,0,0,.16h0v.18a1.14,1.14,0,0,0,.34.83,1.08,1.08,0,0,0,.72.32h0a1.15,1.15,0,0,0,.82-.34,1.18,1.18,0,0,0,.35-.83v-.16A.36.36,0,0,0,39.3,25.12Zm-.15.27a1,1,0,0,1-.3.71,1,1,0,0,1-.7.29h0a.93.93,0,0,1-.61-.28,1,1,0,0,1-.28-.7v-.18a.24.24,0,0,1,.24-.24h1.45a.24.24,0,0,1,.24.24Z"/><path class="cls-7" d="M34.25,25l-.08.14L34,25.08a1.87,1.87,0,0,0-1-.15.84.84,0,0,0-.39-.1h0a2.13,2.13,0,0,1,1.47.12Z"/><path class="cls-7" d="M36.31,25.24l-.06-.17a2,2,0,0,1,.51-.08,1.06,1.06,0,0,1,.47.09l-.07.15a1.15,1.15,0,0,0-.4-.07A1.5,1.5,0,0,0,36.31,25.24Z"/><path class="cls-7" d="M40.33,24.83h0A.61.61,0,0,0,40,25a2.06,2.06,0,0,0-.78.19L39.15,25A1.87,1.87,0,0,1,40.33,24.83Z"/><path class="cls-4" d="M33.48,25.4s-.1,2,0,2.44a2.52,2.52,0,0,0,1.34,2c1,.43,1.35.94,2,.85a9.25,9.25,0,0,0,1.68-.86c.77-.39,1.09-1.66,1.25-2.07a4.39,4.39,0,0,0,.13-1.27l-.4-.08a4.56,4.56,0,0,1-.86,2,2.86,2.86,0,0,1-2.19.93,4,4,0,0,1-2.27-1.66,2.78,2.78,0,0,1-.27-1.34Z"/><rect class="cls-9" x="30.81" y="37.32" width="32.58" height="11.65" rx="5.83" transform="matrix(0.57, -0.82, 0.82, 0.57, -15.25, 57)"/><path class="cls-10" d="M44,47.43a4.94,4.94,0,0,1,1.92,2.71,6.2,6.2,0,0,1,.14.75,4.9,4.9,0,0,1-3.72,5.32,4.81,4.81,0,0,1-.76.12A4.9,4.9,0,1,1,44,47.43Z"/><path class="cls-11" d="M41.3,49.22a1.88,1.88,0,1,1-2.62.46A1.87,1.87,0,0,1,41.3,49.22Z"/><path class="cls-11" d="M46.07,50.89a4.9,4.9,0,0,1-3.72,5.32,2.91,2.91,0,0,1-.71-2A3.59,3.59,0,0,1,44,50.9,2.84,2.84,0,0,1,46.07,50.89Z"/><path class="cls-7" d="M44.34,45.17l0,0-.57-.75s0,0,0,0l-1,.34h0l0,0,.6-.87s0,0,0,0c-.21-.27-.42-.54-.62-.82l0,0h0l1,.27s0,0,.05,0c.19-.26.37-.53.56-.8,0,0,0,0,0,0v0c0,.34,0,.68,0,1,0,0,0,0,0,0l1,.28h0l-.05,0-1,.34s0,0,0,0v1Z"/><path class="cls-7" d="M46.48,42.12l0,0-.57-.75a.06.06,0,0,0,0,0l-1,.34h0l0-.05.59-.87s0,0,0,0l-.62-.82v0h0l1,.27s0,0,.05,0l.55-.8,0,0v0c0,.34,0,.68,0,1,0,0,0,0,0,0l1,.28,0,0h0l-1,.34s0,0,0,0v1Z"/><path class="cls-10" d="M48.61,39.07l0,0L48,38.29s0,0-.05,0l-1,.34h0l0,0,.6-.87s0,0,0,0l-.61-.81,0,0h0l1,.27a0,0,0,0,0,0,0l.56-.81,0,0v0c0,.34,0,.68,0,1,0,0,0,0,0,0l1,.29h0l-1,.34s0,0,0,0c0,.33,0,.67,0,1Z"/><path class="cls-10" d="M50.75,36l0,0-.58-.75s0,0,0,0l-1,.34h0l0,0,.59-.87s0,0,0,0l-.62-.81v0h0l1,.27s0,0,0,0l.55-.81,0,0v0c0,.34,0,.68,0,1,0,0,0,0,0,0l1,.29h0l-1,.35a0,0,0,0,0,0,0v1Z"/><path class="cls-10" d="M52.88,33l0,0-.57-.75a.06.06,0,0,0,0,0l-1,.34h0l0-.05.59-.87s0,0,0,0l-.61-.81,0,0h0l1,.27s0,0,.05,0l.55-.81,0,0v0c0,.34,0,.68,0,1,0,0,0,0,0,0l1,.29h0l-1,.35s0,0,0,0c0,.33,0,.67,0,1Z"/><path class="cls-10" d="M55,32.13,45.23,46.05a.39.39,0,0,0,.1.54h0a.39.39,0,0,0,.54-.09l9.74-13.93a.38.38,0,0,0-.09-.54h0A.4.4,0,0,0,55,32.13Z"/><path class="cls-10" d="M56.35,33.09,46.6,47a.39.39,0,0,0,.1.54h0a.38.38,0,0,0,.54-.09L57,33.53a.39.39,0,0,0-.1-.54h0A.39.39,0,0,0,56.35,33.09Z"/><path class="cls-15" d="M42.27,51.8h.46a1,1,0,0,0,.93-.62c.08-.17.2-.47.27-.58a2.57,2.57,0,0,1,1-.79c.23,0,.19.4,0,.58a3.68,3.68,0,0,0-.54.67c-.14.26,1.09.79,1.59.91s1.38-.15,1.46.26-.57.48-.57.48.19.37-.35.68a.51.51,0,0,1-.26.56.57.57,0,0,1-.37.59c-.41.12-1.69.49-4.19-1Z"/><path class="cls-13" d="M33.66,41.15a22.64,22.64,0,0,0,1.88,5.16,13.28,13.28,0,0,0,3.24,3.16,42.66,42.66,0,0,0,3.95,2.33,2.78,2.78,0,0,0-.55,2c-5.07,0-9.5-4.8-9.5-4.8a25.18,25.18,0,0,1-3.71-13,3.45,3.45,0,0,1,.56-1.82,1.79,1.79,0,0,1,.68-.66,3.71,3.71,0,0,1,2,2.35C32.79,37.58,33.66,41.15,33.66,41.15Z"/><path class="cls-15" d="M55.85,41.47a3.29,3.29,0,0,0-1.64-.19c-.52.22.91,1,.91,1s-1.74-.93-2-.56S54.45,43,54.45,43s-1.28-.44-1.54-.18.93,1,.93,1-1-.26-1.26-.08.71.92,1.3,1.12.68-.63.68-.63.55-.49.48-.83c0,0,.57-.38.61-.78C55.65,42.67,56.47,42,55.85,41.47Z"/><path class="cls-12" d="M139.43,41.39v4.3a1,1,0,0,1-1,1h-7.82l-2.36.85a.3.3,0,0,1-.38-.39l.89-2.31V41.39a1,1,0,0,1,1-1h8.63A1,1,0,0,1,139.43,41.39Z"/><g class="cls-21"><path class="cls-13" d="M132.64,43.66a.75.75,0,1,1-1.49,0,.75.75,0,0,1,1.49,0Z"/><circle class="cls-13" cx="134.26" cy="43.66" r="0.75"/><path class="cls-13" d="M137.36,43.66a.75.75,0,1,1-.74-.74A.74.74,0,0,1,137.36,43.66Z"/></g></g></g></g></svg>